<mxfile host="app.diagrams.net" modified="2020-09-30T03:19:50.002Z" agent="5.0 (Macintosh; Intel Mac OS X 10_15_5) AppleWebKit/537.36 (KHTML, like Gecko) Chrome/85.0.4183.102 Safari/537.36" etag="txprPYlr8_r0OAiFXRzd" version="13.7.3" type="github">
  <diagram id="3vPDtnykBRXe3JWWRehN" name="Page-1">
    <mxGraphModel dx="1426" dy="794" grid="0" gridSize="10" guides="1" tooltips="1" connect="1" arrows="1" fold="1" page="0" pageScale="1" pageWidth="827" pageHeight="1169" math="0" shadow="0">
      <root>
        <mxCell id="0" />
        <mxCell id="1" parent="0" />
        <mxCell id="9-wRL0ShnZCnjAdU2LTs-1" value="" style="rounded=0;whiteSpace=wrap;html=1;" vertex="1" parent="1">
          <mxGeometry x="80" y="280" width="560" height="50" as="geometry" />
        </mxCell>
        <mxCell id="9-wRL0ShnZCnjAdU2LTs-2" value="" style="endArrow=none;dashed=1;html=1;dashPattern=1 3;strokeWidth=2;" edge="1" parent="1">
          <mxGeometry width="50" height="50" relative="1" as="geometry">
            <mxPoint x="600" y="330" as="sourcePoint" />
            <mxPoint x="600" y="280" as="targetPoint" />
          </mxGeometry>
        </mxCell>
        <mxCell id="9-wRL0ShnZCnjAdU2LTs-3" value="..." style="text;html=1;strokeColor=none;fillColor=none;align=center;verticalAlign=middle;whiteSpace=wrap;rounded=0;" vertex="1" parent="1">
          <mxGeometry x="600" y="295" width="40" height="20" as="geometry" />
        </mxCell>
        <mxCell id="9-wRL0ShnZCnjAdU2LTs-4" value="" style="endArrow=none;dashed=1;html=1;dashPattern=1 3;strokeWidth=2;" edge="1" parent="1">
          <mxGeometry width="50" height="50" relative="1" as="geometry">
            <mxPoint x="520" y="332" as="sourcePoint" />
            <mxPoint x="520" y="280" as="targetPoint" />
          </mxGeometry>
        </mxCell>
        <mxCell id="9-wRL0ShnZCnjAdU2LTs-5" value="目的容器ip" style="text;html=1;strokeColor=none;fillColor=none;align=center;verticalAlign=middle;whiteSpace=wrap;rounded=0;fontSize=15;" vertex="1" parent="1">
          <mxGeometry x="520" y="292.5" width="80" height="27.5" as="geometry" />
        </mxCell>
        <mxCell id="9-wRL0ShnZCnjAdU2LTs-7" value="" style="endArrow=none;dashed=1;html=1;dashPattern=1 3;strokeWidth=2;fontSize=15;exitX=0.545;exitY=0.98;exitDx=0;exitDy=0;exitPerimeter=0;" edge="1" parent="1" source="9-wRL0ShnZCnjAdU2LTs-1">
          <mxGeometry width="50" height="50" relative="1" as="geometry">
            <mxPoint x="350" y="331.25" as="sourcePoint" />
            <mxPoint x="400" y="281.25" as="targetPoint" />
          </mxGeometry>
        </mxCell>
        <mxCell id="9-wRL0ShnZCnjAdU2LTs-8" value="目的vtep的mac" style="text;html=1;strokeColor=#82b366;fillColor=#d5e8d4;align=center;verticalAlign=middle;whiteSpace=wrap;rounded=0;fontSize=15;" vertex="1" parent="1">
          <mxGeometry x="400" y="280" width="120" height="50" as="geometry" />
        </mxCell>
        <mxCell id="9-wRL0ShnZCnjAdU2LTs-9" value="flanneld操作ARP表：&lt;br&gt;" style="shape=callout;whiteSpace=wrap;html=1;perimeter=calloutPerimeter;fontSize=15;" vertex="1" parent="1">
          <mxGeometry x="370" y="200" width="165" height="80" as="geometry" />
        </mxCell>
        <mxCell id="9-wRL0ShnZCnjAdU2LTs-10" value="" style="shape=image;verticalLabelPosition=bottom;labelBackgroundColor=#ffffff;verticalAlign=top;aspect=fixed;imageAspect=0;image=data:image/png,iVBORw0KGgoAAAANSUhEUgAAAvoAAAA0CAYAAAD7Ypw4AAAgAElEQVR4Aey99Xtb17bvvZ977zlt2jA1Tdu92yYGWWDLMjvMzMzMaRjNFDtspjhJ23Pev3O8z+c715RkxYodO21vz90/rGfZktaaNOYY34HzHzMLSm0q16yCUhvryvrOcMJmfuzK0p+x2uCzrO1M8LsZ4VJLv/z7Uu0lbFbBh5cfw6xQuenKmAf/nuQ9y5in+nzy/RMcb+bvU+McvY6Zv0v+nzmOSbb7qe/75H5OsF9f55XY3Fi1zQwV65oXiducgkKblRux+eG4zc9319z8hHHNCZXq8jSxKBy3WUsKbEHU0eKsaLlNC5Xa7KLl9lUetJWiD57145hZUG7umhoNp9MufyfnNev4fbv+PpFnUr9hPOnX+O2lnv0jfuvnM/Oeta3PTb9Z53li487st/8/a/8z2vPrP9Hff+7fTZV/+fFm3j93P7O+b4L0kNk//3/W92ask/995n2iz/9xv5sYH0j1e7QsnHq/ptq+f97fR++7VL897/3M/c9KP74/o++Z/fnU+Us9P3ocyc8DPOLly4f70z03J4QsSzjsEqKPwbwF40G+eVk3N7/c/OXbmRFOGNfMcFx4TvIwVG5z8rkqbGaBu76OlJq73O95xslOJ0ddP4K1UT/8s15uun4m+xvgLC+Dkv32/f/Ue9B/Nx4nr9Pnzrfr5b/GHwpkYEFFcv6S8zxRPPip/UzihdH0NNHx/2OiP8z2O7/wmfdsv/cAOes9ywRkvt//n7WdLO/J/L0XlP7uv/fv94Au8+77n1zgfwP9FLOY4NxrrrMyyvEYtmMOfr0me58TrbJpSwttdrjEZuUVCuQD8BdE4jY3N2rz8wuTYH9+APYd4I/bnFDc5uVGbHGs1GbmxmxWuExK49fhcvsir8RmiNk5huWZpqcrz0wm22//nKdbf/efZ79PjlH493kG6+/+87/q7ucz8561PxOkt6zPfwptT+C3mf32/0+0/Ymv++j9NNH3j/e7KfO/DL75qeMfr3/jfj9BevD9yryP+/6ABjKf8/9P9Pk/7neeH3ycPnx/P5CDE6Dxj/d9qu375/199DhS/f430Hdz4YH2+ECf3yO3PMgHxPMZ6/kh0C8V6NVvQh6sVzh5KLCfAvpgJ//uJNBPKij+Wbee7ncpsJ9q34Htj9PWaFoY87dJoO8Nvv696XLbG/lcv934yyXfk/zPA3x/z+BrY7b9SXvH03fmfQJjLCi1zw70pz6giXWcBfeLPpU2swlK/35/z9aG/z7znu33mZ9nPuf/z/zdH/W/by/z/ke197ne6/s71fd9lVNkC6KVVt//zpqH3lttV7+19I/Y45dd9mTovTX1DltT7xt39by1xl531fe9Ma7mvjfW0DNsc0Nxmx0us69DCfsiLyGL/nhAH7A81f5no9+pvnf85z3Dmdh+Hf99k3uPpwN//6Pa+fu/949ZLz/vmfe//3x9nB79eCc7zqk+P9l2/+c992l07efd36c8H15R/AC0+X5l3j9OVxPtT/b+Z7bn/89oN7Csf2Bw8uNJB+Oy0jtrPe3SxxTQdxEa6o8HuRlAHxn1deRDoM8zSQOYrPm+r6m7H6dXMP38pAxN/rcZ4/tgPbJ8H4zXy9H09wLiff+8ZT81fqcQZAP6H8zrRPuT9Xd+nJn3LOPKeM+/gX4QuuMJyN9TBPZxhSLzd/5//57x7v73mffxnvtc32e26///XO//o97zufo5t6BEITkC7QMj1tgzYC19Q9bUM2DNXf3W2jNorT3D1pxxNfUOGhdAv6X/rc3KjdnMUIksGDNjVTY9UmmzIlUKz0lnGPSbOUkxlIlt1Gzz6BlUtu//uM89w5la/6faP08H/j7V9/3Pff6PWS8/75n3/7nz6Ojdj3ey45zq85Nt93/ec59G137e/X3K8+GBcQawSgE93z9//zz8Mnv/fTuZ94x2k/32vwu+959zx5gahON4QOvnKzvQJ5zFW+WdRT8d6CcjIT6wePt+jL77cf4VQJ81pH3Avms/NYdefvt5ybyn1j/1jJ+7yd1Hz8unvn/KQD/VoO/I5xrYX/ueFIGNDfQ9wBrvd35RPWFk3qf6vH//5O9+3fz9r533yY9jcv2enVdo8/KKrLlvxJq6h6yle8CaO3uso39I15PeAXvSM2RtvaMvfd47YI1dAP43tjDqGML0/IR9mVts0/KwYDCnjn7GsggQ4vNnj/d/Xnuebv19cnTw950XP+5sdzcfnl9l3qc67r+ef/3V65057391f/7o9v/q8X6u9v17/qj58u/PvLv2/D78/Pgpsz33v28vdfcW9iDe3Bs8PdBPKi4uhMXH3Lv+fmjRd3yEtlIgn78z2/P8xvMN//+H8+DHMXp9Uu9LhdiMfnb071PvH/vz1Pt86I67pz9HX9P/T8dwo9v2fU6/j342/T2T+zv93fw9sff/G+hnmShPiP6eOaGeQPz3/p75O/9/OnGk/+2f83f/+8x7+jPpf2f+7tP/nxzhfHo7EyPIP/u9iyKlAvqtA2+tqXPA2vsG7WnvoLV1dltHT5+1dn94PenqsyddPdbe1WMtvYTvjOgdgPl5hVU2vaDM5sWX24xQmSwCrO2/gf4ftf7/b9PvRAWN51eZ96nuN8+3/D3b+9J5Vvrf2X7/9/n8/zX6+6vH+7na9+/5s/jS6Pb8Pvxw/061P76d0XffXuo+caDv+ugBPO/NAPrCUL49/zvugHEPoIMiLAHe+pBf+Ocz76PnI/W+Pw/op/OidN7F3x+uX+Zno/uf/q7J/T25908Z6PuBpwbsBuYX0t+zD2rsjo/3nF/w7O+d3AT7djPvvh3frh+3/53//sP76PH55/x9qs9/2N6njnt0//z7fL/83X/++e8fbz9be34dsn0/0c8JufkmXGL1XQPW1vvGsNQ3vei05/2DDsz3DQr8owA4JaDfnvb227PePnve06dn6l71GwrDrLy4zchP2OxIuU3LKbZZ4Yqk6+9DoO+qEUy0n9l+59fH31P70M9rBj14i42/Z1F0x2/PJXVl+92f9bnfR6lxfyr/yZifT5yPqY7T07G/Z32fX6+Me3aX8djr79vx96ztTXAeUnSXbR59P9zdr1fq7oHAh5a0UX3LGLcPARj1mwn2efQzo/vnvxtvXKn5y3ze/T/x57PN25/z+Xj99POR2l+Z451aP6favn8+857qd2b//pj+Z7af+b/vj6eb1D0TsLr+Zj7v//fv+dR7qj23z3w1HL8Pk+9L32dpIab+d/49fv+l+uXmlbw0n5vmaCaYf//e5B4Nfh9UcUu2n/zePZdq182T/z/1e7+emes8sf+T4/HtZvTTt5d5/7D9yfXDz5+/p947sf5P9Pf/Bvp+gYO7n/DMu59QTxh+4f3v/Pcf3j0BjCbsz/X8h+19KoGM7p9/nx+Xv/vPP//94+1na8+vQ7bvJ/r5vIJim5MTU5w9QL+1a8Ce9Q1ZeydW+z5r6yFO31383dbTa+3dvdbR3WNPseh3D9mTgfc28+eQzQuVKJYPoA+TA4R9mMzjYh/pP8x2ov3M9ju/Pv7+oUDOaMMzMn/PoP9s7fC5b8Pd/w30PzZXE/3O07G/Z33Or1fG/d9AP4O+P4Ge3VxPlf9kPh/s/WC/ZFvPcdf7k8cxuXnwezpbP1Ofjz3O1Pd/Tfu+/5n37P3KHMfk+u3fn9lutv/97/26p+4fAv1s7+Bz/55Pvafa+wSgrxKa/D4dZAd9SCuT6frl5nUsoO/G4+QFse6u78HvJwX00+fBr2f6ZxP/289Lcj7T+euYio5fL9+Gb9/f/ecTu2eudbIfU1jrsd4hoE9ZQGKLufiR/5vPx3po1GeRCpsdq3JhCuEKVR6ZG62wr3JiNoewCADNkqgDQJQwJIwhUm5zohX2dZ6zelLLHOsndyU05qeIAsKg9CF1zqfnFdmcWJlNp8JJpDzZ31H9+cQJYowqi0giZahEfZtfWGVf5zrrrIg45PrFZ/63c2OV6n962zyffvEd/6f/hn7zGXPMO9K/y/Y3v00fL334KjeuMJFsz0z480iFzYxUaP4JNWHtWB/NdYS1KrWvcwuTdeaZD6rL+HFMuJ0s6+LX3d//7PWHPqmYQ+UcEm5bOvvtef+Itb7us44gNp/k3PrOXiXptnT1WkfPgLW97rIXvQMC+g2dg/ZNQdzm5BVrvqbnUZPf0czs/GLjkkIRcrQ8O1pqs2MVNi3J9CbGFMaaa69IeIaRCfTZU6wrNATd+f00I7/Q5kQSWlclGgV73dMv6zE9v1Q0rs/gDcHzJDBTinQegoDPgj1E/2iH++eij7HGPOqzSIV9HWKfQZOV8qjQT+h3XqxcXpYFUUfP8BBoW9WRWKMsNPlnfv6BoMnok99/jIX+s1bzC+GvEbd++WU2O6jnPCdcqTWaF3PzwDjxMDEfvGdGfly8c1akxLjgo6wfvNivoaeTsfjbZOaF96c/5+mCdmhjquMXbQb8lHdzpY8lve2x/vZ8x9+ZK+ZMeyI4P+Vj8ofnPO1Bf+xD5AR81L3H8Ut4qEr4RkpUd3xGQbE7TyZjvcfq4x/6WajE8XMwgPhXuUE/jIG94uVf+t/MEd9DX8x1ev/8evh7+ndj/j3V9gN5RN+R234MzD195s5aUELZ80gv47Q+AfZJpxtPo5ljG6v/vIs2JRORi8xJkMA5lxDOsAvbnLY0qj34VV6h9p63iFPeGR5Nm+AhaIS9Kv4VPIs3OEWPow0uPOefpb+072g4rmd4D3zD0xt7fn680qbRD85+iVQon4yxzY1CAxSVKNKz6mOkzKblxW1WtNK+yi8R7mDf0k/kmutXqX2VmzDGglIAP+Zv9oabi4TNLSgOPN70qzSJ93gvoa60z3oxdt4p/AEWKazW918VuPNp6AM8A/7l9mWJ1pcxsxZU0WMO/Nr7NU/NX/pcJvRuzr6BXsGs8yiVHZypw7yO1z6/gZd5vulxLX2BvuC5Tu6499IPz8f5m35CP/yevrpnUjh8LJqbzGf/YIB0koeJL9aA2eQQcPD5x17MorJQnlEy0a7zRVrY6Utjtrh4mYiCAbIIYiJMhIRAoNmFymxe4TIN1AkqN0FMFITOXYyyIJEkWib5Y32byHdsDkAzv+V9TDREw0U/6C+LwP+MSwTOZgrKT32sDcbH+7mYS96n3wswOYHwsef9d7wHJiDiCZ71ROF/M+l7pELJowBEKVwBsXnBBPF/W7JcxMnm8+vHXDGuSbebFHB/7fqLWeQWqWxma99ba+0asvbuQV1Y9wH5jT1DqrDT0j9sT/qGlaT7tHvAnrzqcuE+A+9tYUHcSOwFBEMnrA93aHcBDJga/flFNiOnUADrq/xim1lIHOPkQT7Pjgf02ZcwXf1W/XKMTiA/1ynjMBy3F1OKKaBFXgmYZsCExECDg1YA+ZwdwHs9k0unB0/zUx3feM8jWBAWgC2EDfPOPkNoYWBgPeBB3FlrmKqEQqxyQvxtvPan+v14QBeeCe9jP3qhwXrNDvN5YRLkz8gr1d/Q3Bc/R7VPvdDwfAshyvuYGwQl7/Przhr69eMzL8CmOj7e6WlhLP431fHzboAHd/i4p8X08Xx8DFPjP9DdfA7Hg/Y8sImUJwEH9AjgY838BdjyQO/jfZsab5jIu5Ep0Ad7gv3NxR6BdjwPQ6azdh78u/3lAO5YbUA//hrr+/TPpto+faTP3H0/6X9SERGATclvt5cclpgH7wjoM71Pn/R3gBWYP3/NorxyPsaQuAPDeXFbGMMI6gwtrD00oD0YQoa6fjAOYSRkQ26R41mBoQhQzXfuSrU1LacoZTBMU8BoC1kDzbHvPYBOb1t0iKFP3ifAeImMNxhx6DvP6vcFDlzDa5EFjJPv8WB7fsI7JDMCxcHzYhm6cuM2P5yQQQ3FR3wM2cUZNnlOQdB6adwxnU8zH2NEQcK+XFooBWMW2DBaJQMZfZKhKuSUUdYdevW0C03BA6Fr6MJdqf3n96HGR3+FWUttYaxMMg2lZHZ+kZSNMdsXRnK4VHPHvknDQx5Dolw65ckpTqIHndfjsO38iFPK3Lo7A4PfD7TLOz+JFj+CJf7By7g82E0H+GyC8RqCubHAvlNMHgTDpHlwA8DhkCEsa3zHgEUssniXSUg7674jdN7x9ZKwfRuvNBYciyvEN31pxBYVQWiBdf8zhD7AkBgzEwyxqf/RMmeFxdoLQMAiy6mjuUXqj8BaXkyf8fxYcwRxMUaI2m9w3kXftenRhpmHLIvjCZRnZZkM5pX30ReepR/Znp/o5x4oISwlHAOBpHnmECgAKhsqlDAI08+DFwQTbSfb7xCUXH/V+sNsmcuGnhFr6R2Rhf7KgwY7c+OBnbpx307cemDHbj6wY3ce2ql7j1Vlhwo8hPcA9qm609b/zhZgBQE4hxJWsH6Hlew8ZMXbD1jJtn1WueuQlWzdq0v0FC1VvX0sCdnmZaKfezrx90yLPnMroB8Icujnm8JyK966y6LrtkiJg8ZY+/Q2BVoCa2X68+wBnk9s2WPRddtsYfFyPeeBVTrPyLY30tuZ6t94HRgj7YqXBYwURg3fwJMyMydq30QrRL/QMPsGISCGnGX/TbVfU30ePsQFv1hQVCkBDC/8Z9kKy1u50WIbdljRpl32Y/UG8RkPdhgTlk32KXwLenN7FmWH/4ttRg5CkENoHP9h7th/9Jm/WTfuXJMdh6fHyfO/iY3/h8p1o/pIn+UpyMKXM8czVf5De8hOD7i8IglPgdbgB7PxvoYT9p//zLXFxVUOpDD/eNT+YvrzgBhZlQ44oDnoD9phDP7OuFCckeUCn1n6Dw1NZP9PtX2/j70i7EEtdK+5TwPKbhwOn3CSOZjE0zq8g789DpooDcH3eBZ61xzmF2vdaV/yIL9IIBceBE8C03y5pMAWxrH4ForvwkO95R0FHv4quZtfJOMQ+IlLoDkYD3yBy+M1zy8YP79jbwOuadPLcPZ+8jlvOcfzIfCOchETv5T3OWgPTwA0zvkw3pIODTA2qtUhD3infkOEBnQRc0Zc+jK/oNQWFiSUBzc3t1BGL56H1kQj4XKnqGCAIIw2P2YLownd2TO8F4xCuWoOoZyJh4G2wwmbV1CkNWZd/Xr7fcedzz+8+Dx1Cb8iOwKv+4ylBcaBmbPzojrt/uPto1AiS1A28XIV6vJ7hT0ihSWvUHdV+AsUHtaFNdUaKmrCKS0eV3FPGkay7LFP4R2y6DMYCBtmD8PS4Ca6UZn8Aue+YNPB3Kb9FBaReS3up4pVVrx5t1XsOGwFa7Zp8tkU/F5aXU6xq1YSuEz9BPE8YGLd0bN2/G6t7vmrNgnsS0hBZFOcBDY246YvMGk2DMSRu2KTbTp1xfZdu29nHrfa/uv3bOOJCxbfvDsAdHEBiXRmxrxx0Se/8SECiI4x/VixxlYdOmOVO48I9C38SN+9oIQQ3MZNJJ8v337IynccsG+mIIj9vH2RQxiUs4g5Zl8iSyjMBqAEMbJ+jLt8Z2r9IEQJho+Mwbfxsftfvf5fAwijZbLoN/e8seauQVu3+7AtTVTZT8WV9n1RuS2Ol9sPZdUWW7/V6jr7nRW/a8Ce9w4J6Df2DNs8FL+CYlsYr7JDd2qtYfi/rK7vvdX3vbWWgV+ttnPIrjZ0OAFJKBoWKCwYU5w/Tyf+ng3oS4mVhalIe/FRZ781Db6zJSs2OqtDBtD3AMgrCjwv0Jbvnx+0psFfbemqrVmBld8LUx3jx553IN9bpUptUVGVrTx42lYdPGnL9h61lQdOWPWeI7Zi/3Hxn+X7T1rVnmO24vA5W5RYMeX5/1jfJvudW0sHdFHy8UysOXLG7r7otdreEXe42/Dv9rh72DacvpYE+hgr2JesFTwMXrvx5GXbfv6GXah/YoduPLBVh05ZzrJ1Ev4IHtZIgl5GF0eXnqf5zyczDk+Pk+F/nzL+tSevqP/wcAAX/NzTXabyOtY4psp/mCPanl9ULeCCcP6msFrAGItn4fpdtv7oBTv9sNHWHD5tyC+MYMgvjFlj9enP/Iy5RvZx9yDju7LVMlRsPXvdDvzyUPLv0M3HtufSHSvcuFMGPMAj/M7TCn1m3v3c83/6d9nGNNX2kVkOS5SK95btPmIVe4/Zsn0ndGmvHzghuocfrAj4wfJ9R2z57iMW3bxPdENf6Ttryd0D/2z9Tv+c3zOH9OOfZats5f5T4j/wHNr0/Kdo407tPQ/+AHu0x3PwVjACtLF83zFbfeiU7rwj/Vq+/7jBw6oPuCu+/ZCUBe2zgoR42/K9J5LP8B7aj2/apba/iTljHcoaBkfGzbM/Va62ip0HrWLbfivfus9+Kl0h+S/8ERim2E8oJInN+6xqx0Gr3LLPKncfFeZjHfkeZQCgj9UdLPVDyTJbufuordl3wlbtOWbfBkZUxsy8AeKZg9DqrVa+Y59V7thrFdv32IKCQrXPewHjiv0PPArMVdn2vVa6eZcVb9mncXhw/X3JCvVpxYFTxsVcjb6Yv9QV33pYHrfwmi1WvnWPLdt9QH2gfdaHcaBcUArbezTS28egR9s/Vq+T3KneezzZ7op9J0VvXg55WoDu+HvtwVNWtf+E1nJBUbUtjC9L8nKwlYwGU8QHnk7/ceJxmwT1F0tiTrPC1UXsZOC+9T/MdofB4WbwhAYRSxPLjdjSipV2+Ppdax38TRdg5+S9Rrl8PHgl7Af3De+nTQ8mAFa3n762hv4Ra6SEYf9bq+8eEjg59aDBFkRKVLs8W78m+rkfqwP5pbb68Fm70d5ljYO/W233W6vpHraG4NRU4rg5WOlqwxPLWbbG5uZGtfgQAO1BuFz6O7DGoSVDMN8lqu3+yz6r6x2x9jf/becfNdpirItZklG8hs6zWB+wBD141a/nAY7nHjbYws8AFFk/1h6Cdt4D8ioSNiM3bEurV9uB63cEVJuHftNcpK8fazjRec72u796/b/Oj9n8QoD+G2vqHran/e/s0PnrtnbPYVu776htPHrGQms22rfF5bq3Db+31r4Ra3nVax1dg/rbA30UI7T6ZQdP2cEbD2znxRu298pNu/e0U/R7q+2VrGHS4gFleImmuJHFCEe9IwhFCOjKV/+BsaKEQ0+FG3ZYHSf+9o1Y/tptGUDfPe9D8tKfRyHKfD60fleSX/ixiIEHjNx/9kfd/X5jTgHFS6rXCgCzT1nTloF3zlsz8Ks19b3Tnm7s/01K2L/KV095/j/XuPw6pu7O4ICRAJ7UMPDeGgfe28PXA3a99YVdb31mV5rabfmhs7LgM35ojz2JQeHwrUdSCuBdrW/+yx686tVcsO7Mya6L1+2bcLGEM3PogY0HPIwrObej6Gs0zY7Hv8bjf37+UuNOudpRVsYb/4oj59VPwAKg21tk/XvHu0+Z/0TKbDrW2yA808mvYgNw3Hvu+HV99xvjgv5Qrs88Qn4V27dFk/eYjDeuiX4PoJB1NYhpX3vioj3i9O/B37VH6vreSv5hsEB+t438bpfrWuUNxIuZ3g5zMBGaSX9mqu17umHvk7vSPPzfVt//q/YLp51D/40DbyW367oG9Td8r6F3yFoH3tmhuw0yMoJhwAJ+DBOlI37Pb8E/7EEMYk5ODzu80jci3t86+F7/0wd407azl+2fpdWaewfqnMW+dPt+8ebaniHjGXhY6mIc7sKIxHWu6alCgPAOLUpUiffV9rzRO3ju8as+tc/for++d7b51CUBcOQVfYavY8QEpyHLHr/stfWHTyWBPliEvDKs+3gUHzzvVfGK1u43dudpr4C2LNvkTxIqyRWKy0K/69xVa+jGIDZkrX3vpSDgXUWphA4A8SjHJ+7VabyUuaYC3sYjp2Q8k0WePIb8MuUTIMeINqjp7LO2wXf2qHPQKQR40/OLpKzAJ8FtzBV4a+xrWHN0uemlzciJ25n7Depn28AbheuuO3xCVn0ZflHmQy6fIbN9jC+0W7xlj/gzc0/bGMHYLw9fu/kHv8J3wbDtw79pTTh/p37od6sd+FUGN/Fv9hD8FvnJ/ARX+p6ZzN//WH/6mpi8J3AInlh9XgbTH++leABwPdFJEUR+kYVWbbJTd2sEJNhUtZ0DwSDf2PnaVpe0GISCEF9LQogD+Qm5tCCm+y97jE3Bgl6oaTQI5sz9Omsb+lULdOPJK/uWMJ6PCKGJfMcmZYMzsWhUpx42i8nVdI3Yo9fDdq6mxfZdumVHb9y3209eaoFqu/rt4ctu+7l8mSO+IM4tvT0RSCghosTNtefyLWvuf6/nIfxrDU9sfl7so0AfIgfk4/bbdfGGnhdw6R6yX5o6bEH+1EN3WL9vEiuMZCGAPpaagtWb7fjdx0mmyPo1D73XhmH9cHkmQwKmOP9/9frPwP0XSYhWYUYA/bbXg9bR99aeDLyzx10Dtmz/Efu2tFJAHwHBwVpPe4ftWc+w/m7qHbb5+YXyYmHxQOCgLMFIEejHbz0UE7nR8kKfYQHQ3iJGb6rz9wEjGA308daQpOkBCLRYtG67xoviCtAfHbpDKF+QIBUkafO/fx4rcGz9dgkfns9ds11jSLeeAhrT/5/qGD/2PG05q5gLcfm5ao2hlCIkH77okZKFonW347U9fjVg91702q32binzeSs3T3n+P9a3T/nOM3R/l4ALXM+3nvZIeADwsaJilfv653y5uDFQOLDkLHMoc0du1yZB/qWGdtt68pKt3HvENh8/p3moed2v9d974XoSJHv+T5+ZU+4TWcOPAX3GgFD+GP/zc+TH7e8THT+yynuhAfqMwystE/FITJX/zCkkSdF5E1gHAB8g/+GrIavrGhHAv1TbZttPX7GLNa3i/wA9lLT/G4C+vD8Rl4CLR2jjmavWMPCb3X3Rb5cbntnR248lewhfvNn6XPsKsIL8W1ruwvb8Gk7mPuX2Myz6d573mbt67O7zHrv3otvuP+vSBT+4+/SVgCRgklPN8QhBM9A69OLvE8E+jJdnpGQGnnsA35O3/5+1v/nd7nW8tpstz+3OFBkAACAASURBVOxW63PNHWBPsrQf5WlEyvf35WuUZ4VMQM4ntuxyGKFnWL998KLLdD3vtgfPu8W/4GGsD9fxx83i3yTQYoRBqW8b+l37m7bvP+20O09eWl3ngNW+7rf2of+S4ePRy35bUr4qydcB+k09bwXIO4Z+syt1rco7U+QEUQVY9XMLpcigEOD9ftL71hr6fhWeE0iNOi81v50VceFD1xrb9duWLnLb3tvZew0aJ8qFMB9FFMJlAvqsR0NXn7UPvbWbzU9sUSThwpOFQwnxqXbGjLxClzfXMyCgz7xxYCW8EdkE2AbsY1jNfvUIY555/MQWRsqNPYpcb6bYxsCw3Wxpt29iLhxH/QxCjDTOtPZpi3YJzYXeUDxQhJjfe0+7pWghi1i7J0O/2t32V/YIudTxWvebz3vt9st+hfvKkBZY8r2XzfPDyeyt9Gf+gUXOEzhEzqC8oGYDpP94rL95FkarhcuP29Jl66TFAIga+9AOe2zbyQsCBmg4p+/V2wIIh6x93KzRSmlLbBY0uy9+DtnpR00CmS2Db+VKmZ8XtUXhuC0MFdq6gydExIDmnWevjdu/sfqc/hljxqrts/JP3G+0C/UdikFGUyPJEsv9rKUh+76w1A5euWnNxGeP/Gonbt1T/1FUpKxgRQ2UIw/0ySvAZYdV4VJti9X3cJLqsF2ubbZvC+JJoJ8pMP3zxNPyPED7Yk2z1XUP6PmLjxttUYZFJX1cE/2bNWbuWT+0+x8rVhnWhPq+YVk9Hr/utS0nzmvOsUqdvF8fxP59PMdgwu3/1esfitqMUNSa+t8oPh9LPSC+vXfEGjoHxJAr9xy0bxLlFt641ep6h1Sdh4o8WPRb+ke0HoTuQC+AZkAx6w4DIObw9L1aWUCuNT7VbwAxAqdTBPljzbGnI1/mTCE4eVgGXJwt4XCJjU6YYFEA6POdp1sfqoOlE5omBp7LP48nDTcwQssDfTHCgO7T+Yd/51j9/Jyfwa/o3xc/h2VxQoiijFft3GffFBTZt5GEzVpSYPPz4zrvgPu3hVUSUJ+zH5N5l2fkmXcPdL9PVEt4Y5VCmEBnKJVYU/kbemPf4ooH5Bes2eKsmX1vDc8nYBL+hfUewwI87FbrM9Et9P3T8k3ioayV5/eTAfqe7vwcsB6MYTz+lzlu//9Ex4+hhn57mcW+8pcfh+/TWPepyp/pBcWmi0pwYVe542xNmz3Ggjn4m1Xj2s8ptIWhIlXmWnfwuDUPjOjadf7KlOXXWGP6lM+Q33h0XeJghcU2uHAIQjfhX4sKS7V3CGWYlx+1VXsPBzxv0K7VN2vuPd18Srv+t1Nt3ym5gEWXbI8BirhxxZAXUO3MyXD6D36Yl1tg+y9ds9rXPfZkcERGSs+zoBdPTzL+TYA/q/oLVdSCKjTkzrBXUSq2HD8n/jM/J2LzciP2baTYYqs32bkH9TJYYmU/X9fuQl/yCgVWizfvtCfDv1nr0Dtbe+CYgX24mHsvYyRnFEPvkjwx0hHzT4w7SiR8+fjtB8lnF+RG7duCYitavdnO3KnRSe5tA7/ZhYfNih3nfdtPX7L6rkGFrt5pfipwnlO5SoY/Jf1HqV5UIp6CQnCzvt3auodlPFGILx6NcMK+ol+y/heJF7dgye59Yxfv11lz55DVvBxQbD/8gd/NzC+z+ZEKu/C4RXTV2jNoXBTBWLnnkOZG0RbkghZUyGMJL2vtH1bZ67quYcX/ky8AriSch3lFGcUbLwMcRrgs1zwqDebG7dSdx5LrbZx2/7pbygZhPPBUyWoZvVwsf3r7eEw8L2Z9xJOXhsVzF4WLbV5u1B4+75YV/1pdm83PidqC3JgtIociJyrFBeyFgZA5EXbIA087r4fnh36/TPb+Dw/y2awAXoCvt3JrgOMQu9eAETa4jX+uXiVie/Sqx9YfOSnihsCZfC6APkkZJGkA9JV1XVjthEyoxH6oWCmNrLZn0A5euyViRVjP/ClPYB+hXfOqT1ppzevBKTNKNjfjVOJDEGMHs1DiREGxCASwv4AQj7yozVmabw+eoZV1Wseb9yotmrQKeaAvt4sTdIsKy+Vqh/BiazZL8QHo/4JFPycyJtB3i5t6/krTU81ddPUme/Si23BvXa9vMzbwZBfeP+eZHNV1IGq/fvefd9qm42dscWGJfROJC+jjncHFxtwQT4hb3b9nsve/ev1nRYpsdigmpfRJ34iq7VBes/n1gBgUoQ7LDxy1b0oqLLJpmzX0v0mW4ZRFv3dY1gUs9w7ou4QnlyzkgD7WMBjeL43P9BvRV5CMNNl5y/acB1we6OMahZlKEAGKcmMWXb1FLlpc16F12/Ud+58LUI8F34fu+OexVLK/eT6ydquECd4lDAXpgIq9xP9/Fsj3ABXXPQK+YO0mq+keNEKsyrbukoCFf8CMYfacmQDQpxQq/CfbPP5Zn3tGnnn3QJfYUeeKH7HSbfskSBjLnJyIjBAIB3gvFkH2I+FiPswHzyogf/bSsIAmQgcetmL3QVmvCEEr3X0syfdZfz+fjJ//x5uHJL2lhSBm8i88Edn4X+a4/f8THT/yy9GtS9zzfeY+Efk1Zf5DMj9AD3CTH7fvylbKygnYO3Ttns0neZ1kwZyIFK3vYiVOBvS/MWTkePP7Z3wPqPXAgnlHDsDLAHDQzrfREpvxc559G0toP51/WC8g1tw7qL3u5xza8ddE6YffTaV9vPAuL8VHFLi9gEFCHtVAIZ6ztEAyfHE0bvc6XljH8Ds7iaEuyE8E88C3oCeiGhjHROaecplzC0nsd0UyCN0htBZDyIbDpySjMegB9OFDs5cU2D/jFXaj5Zl+U9v7zvJXbZHxTJbhTTtlBabSG+Er4A5hj5BT8OeGXOy6Tyhl/8P7MAgyZh/qfO5BnfDSNwBceAUyOzcmwH+r+Zk1do8YYD+0erPmCW8fVeeQgdsOn9bZMOsPnZRnGm/BzHBcpScJSbnT9tqOXb0toI/xlnl2Mq3EZsfKjDnh96sPn3aW984Biy1fZ209I/IYoPyinCj+HdmUXyKgX/eqz9r739jDJ0+tqWdABgn4Gl4fKjIqZp39FC5WuesnfYMG0AdPAvS5APrIJaJBGJMH39nuc/NLbUGoxC48arSng2+tqbNH7bf0DdgvTe3iq7Q/t2iZ4ycZ7cPXxF8L4pIvXs6AU+ewdyIJWe4pwX275bl9k19k85a69eBv5Cq04w2t/O8+c6U3PT+cCC1+7Df/WFK5ziJrttuS6vUS5AgNJzyCUnTjAf1YpX2ZT23gSpsTrbbFZeuscv9Zm1NcrSSGGREsHQ7oN/eN2Km7da4sU3AYwxeREh0cRAgFJ5RuPnLG2roBU2+saO0W1XSFaL4uIA8gYdvOXrL6l732cvCdtb/qt4rd+wXU0DoJv3HZ4eX2FSXNKLsXxEH7Ccu88z0XyRZjXf6MACweCwlhWBqxI9fuKxSDmO681XhEqlVrVoCHk1ZDCW0stLZNpy5ZTc8bO/DLfRFiQ+ew1b8OQm9CRaoYQq3Wr7AEk8gSLhHhcQATCsbGsxfsUd+g7f/lts3Ni1hTJxpnv91obBcD0GYJSn1qbCF3UJNPyvw6kjB/zQgOg3BClKoDpTajsErrNytSZdPzy+z7ig1WtueUzU0sUwb9eOs31fa/8IkuhCSEy2zzkXPW1vXWmnveWtGabR9Z/xFrf9VrFbuOiG7ZLNCuTyjDMg1g9fPgN8EH619QZHPDRdbU02Ptff3W0j1gbSqv2a96+VgXlu86aN+WrLTw2u3W2Ie1oc8ae4m9G7Dm3n55A9gzEniqHuAEHocZEeZ08laN3nmrsd1Z9AHCQR1tnqHPbG6AKtn+WKFwG1bs3G+bTl5U2BeJlGsOnJSy+ENRuS3Mj9j83AL7uqjCvggVy5JCH2A0hHTB1GMrN0rYHLh8U0wPRXF+XtgS6zer3zBK6Fd12BUCFLd57Ne8iC2IxC2varXB7A9cvGVbD5+zohUbJTSK122wxv5ea+zvsYJ1e1zVJKqLxCrsy7yIBAKMtWLrHqvauseWlC2zOaGwzS4IW9Hm7bbzwlU7+std23/husU3702GgSEs/Dr6dfLrlnn3+3ZamL3uKodB1/8qWyYPC6VQKzbvknAVuA8DYFyoHy5g5QURMkhlLUL32EMkzccSWgN4ERai6NodSq7befGO7b58z0q3H7afKterz1J0g1J5vMfHaisxb2mhfRsut5L1261s3XYrXbfVKrfsViiXBGe02L4KO6UQJu9DGEjmLtl2wEq27rayzbts45ETAlWt/YO25dgpK920zUo37ZSLnwIHi1busi8jyzQejCfHb94XDWMMWBxzIWJzC5fblwUklLlzTvKXrbe2/reiyXVnrkg4k3CmpLOgHjm0uChSbqUbdqj/iXVbrWLrGP0vqLC5sWX2JXJDlViKnODNjYoO4X+Peh3/Azx6/ne9qUN0Ds8GZPrxLypaZqVbGf9ejX/TkRNGlStOpd5+5JRVbNxmFRt36DvmYenKLQIAqvQRLhUfBqwhM0hsLN6w3RJcmv89AgkoedAabU+V/xTuOqx9jxK8ML/Edh69aE3PB+zpwO9WvHZ7UqZ6Por8gn+/HByxjtd9SnoV3wo86bJQU5oxp0j0M978z8ivtDkFyxSeNzvXVTmZl1cs2oWGke1rDp21Led/sd3X7lnZ7kP2ffkK8bxZ+VF5I6B9AVtKShdU2twQobTEW5fprI8vqYIHcKGSXihm209dVGgjIY5LVm8V3eD9Q97CzxR2AKgMl1rJ+m1Wtn5bkv4BaYSYENqBJwQZJDkUhM5gYJgRrbRp8JJoudG2zhvR/i0TcNtx8qK1YynuHFQFKsAgMeHwe7DIl3ggI5QKdyFofI/cZj+g/OO95SLpM5OvfOr/vh3x8LwS0W5j73sjD4jcGtYTJQL+AF3C96n6tfboWcVxY4FfseewzQ/FxKuK128WOG7sG7aNR88paZsSyq5fjAceVqHDGHVYHuUpqVsfScgjgIeZ82BO3KsR7podTZgKTlDTnwpskYRkCmEqlJKu3HdcoStbT5yXxf3J0Fv7V3GZNQwM2e32Z/KCYFAEi1TuOmCNg7/aljNX7NDV26pSV9M7pLn9tqDE5i4N5G8g9y49ajEA7uXHTTYrL2QYD8F1R6480JrTf40rt8gu1TQI5Dd099vKPYcVAYGyhPwgcgEwDX9nzzKnyjkafGuPO9/YzKWEMMckuxIbtrkcuq5h23TEzZ8wShDi6stR0y5rgpyBb158VKfDMgH71dv2WUsf+RFvrXLbHlsYLlLOIvIVHk/7KOnE89e+GnSe4SBpV3gjn9xL5+FACcIwjffjduNT7R/fH4dN/Nr+sfd/1PW802SRfOPKzrmDExiMrNzjAP0vOSBEluwym55bal8uLbYF8RX2JRVxdDiIS8rAmp8E+gHIYTJmcPiLShNFBYLO3q2150O/28OnXfZdYZlcvyRLzi0slbUfVwklDX3oxPYLV2x+FIFJqSIH9GE4AH2F1AT998Ah864+ZAH73loFMAAkwHwR/rvOXFNJRcoxApRgKP49JJ8B9NHaAEqPuobsQfeQymoBOGpfDgjEEruGtY13cwgEgpKTUiEmqjXQTmj5OnvYO2D3u/tsUbzU5uSGrfZlr6q+XG98YnNzwk4r9kA/APluA7GJXL8ygT5zAMHDYP8TD05wDgLrB9hn/b7IKTSnGHx8/US0U2gfRcOtf6E2zNm79fZ86L/t4dMe+66w4sP1f92btv79qiiCBQph6YE+ggZBJWt0gZsHz8A/WP8k0O/LCvSXpQH9pl4H9Jt6+gytf6JAH4VBQD+o8OSBPv1COGrdw6VGqMb52maFamHJbRn+Xa5gYv9ILMNaQdxlfM1mW1QQsy+JnYyW2bw4da6joimsCHvPXZPVHk8CrlwsD+zBw9duW+nGrep3S3efRTcekMVf80IZsGixgD5hBcQWtvb/KnpF8WrsemPHrt+1iq07rb67y1oG+ix/zS7RmeKUYxVSyOnHP4sr1X79635Zpn4oLbczNQ3WOER86htrwOre75L+jt9rECBSvfsghIy9TJ/8umXe/X77KlIh+sV6C3hbUrVK3hkExrLt+2RFxeIDwwWYI5C91RHFXIljVKqhDF6kzGZheQsX248ly+1y3RNZ0+t73yuJl3hUVVLqfa/kNYAr66iY1CgHxbh302+Ex0+lq2QlI2mtnWS8rkH1D6PEnMJym46lNFBQGS90m9hxUG0Qqse6tQ2OKG7V0dqgvHl41viepK9V5+/Zl6EKWbzgG3vOX5Mnihjkn0qxgrmESXiZD8GKr98hPvJ8+DdbfvSsLNL03Zd7dbQQt5/LVkuYY9BgrYjz/blypegMKzZ8ZXakyqbllgiMsSZ4siinh7KZX71mFP/DG5TO/1BqWQ/Gnhr/4WD8v2n85Mk0kXjXOyCXvgBe74i1Db6X1W79qasSvMgb4uVZT4HWcMK+L1kmqykhak+G3PznVK6RJwfZhoybKv/ZfeORaFQlJ/MSdvVRqz3t+80aXg7a99RO1+FZTn79WL1GIWXIL07dpmrXrqt3Zc2DfuED9Mnx5sSE5h8j01e5JTY9lyIY5ZJRi2Plol9CBfEsION98qYSVAfe25qjp6RosY7QMFZp1oD1QPHX+wqdsWduUZV9HYrbtKVhKaqiMU4E73ljP1SvD2Qfe8nFukM/WKep3KKzSXqG7enge4VC+nAQtYfVvaBMVYqohc74kdkOrJfYnPhymxErN9pnn1CliL3p22/rfWP/Kl8p45j2YZBbhOI/CoDjpaAcY15MJZIJiyHHAA9FJl/51P8V4oihAbwUKrGSTXutvvutQOKqA6edtZbiJpSpBA+FilUZDCWd8GNCereeuSS+jbetfMsOAX3Cu3xCLABXezJNvvM/dLIA5SqPSlt42Utl5ADon6tpcspcpFi8jd8h78nBK922R/uZfLRNZ6+JV3mgD9/4vjBhlxqbraazx3IqVtjCvJgMSKcf1stbGF67VWsAaH/c45JhF1BONtdVL2QOv4svEwhm/TcdPmXzwlHbd/Wm+Mmdlk6bj1wmwbaAMZTbmXuPDA9RY8+AhVesdzmCvW9k0Jz9U75T0MlZwusSKXchSr1DyqNEkcOYjMGuaP0W8T/yBzYcPClFCdnK5fcVxjf+B7swjzOWxOz8gxrr6KPqXr8l1m2zE7drtIZY9WcuyZdc5Bl5fSLlkjF4Hf42QP/+iwG73dFjJHxBUFhXGDyMh7Cc8Qhf4JSE2vwyWQIAmV/nOM1HJ6+F41oAQAbA+PSdOoHY5EQHp5LNCg4cImmBkAKSQdiYuKNU9zkUt4v1TwQ+dp66KObPgUYQH+CE5+m3NK4YjCnIks4C9J02Ve6AcvAbDx7S78yBmB/1cWFgeUV2ubZFLigEoLTrsEvIQlBSdQhggduG38FYVxw+pRq1hPGQEIOWe63pic0NxZKWk+lYF2PuQC4R4pKIc2cNvbUVR05Io8QiUfeqX5o3ybiEIowNtNH6U0DfjYfSV0Gme8Ak5uSXC2TjUeDAHSw5rCNM3gE3Dgb7+Pr59h2dOG/CLN4zwfaZMwSzNlFuXIksH13/oXeWvv4kTwugJeuOOwuhQA1hK+MCfccgAO5YDdMt+k96AfKDlgn02/r6DJDswEe/krrovwRVhkWfPYVFH6CPFwbLH8wCxs/cYYXSPsMbkVNo0IiEc++I3XnWbYdvPrRdF27ZllNXbf+1u3LrAhixyCzfsd/mJJbZf5AIH6FutHMfHrtxX3GYKNaU9Nx39Y7tvHBNyeQw8tutHdbQ1aOko6Wrdkiws++n/RTSXjr9sE5KAUDzSn277b94y3acumb32rus9nWfXWtosZaBfmvu7bXQ2t1SqDg9UXuvEIsH3pliKfYA3M3Hztiey79Ybd+QvFPn6ppVNQp3aU3PW8Wpwqy9ldWHESA8s/Efv0cxMsjrRt3hcELVsMjtoQzqpqOnrWrHfiWjUo6W5FvXhjvBWCCbk3UJ4yGZC6tbfswK124RiGSeSZ4j3HDLiYu248xVu9byXN8RGrT30nV5YrwAoK9SItSXUvuxbLXAPXyCahYATjwOAH2AE/td1ufgOejgp2XrVdKQalcHr962cw9qrK6zV3R44WGtPCEHrtyyQzfuqVxmZNshuZUBaRgiijfsVDsoA2sOHBfAgS6wopIYi2WTwgL0B17yr2XrRIdSeIKDcaBPPIv0n8IB0BF9550/koAZKnKWYA58C1fadAwdsXLn1VReU8Km/ytX1clqBz7kf8yr53/p44fP/rRsYzD+e8H46wxlkX041vjLdh+T4PeKSlLZipQIBBLGxVj9/AM+Ad/i6ZQVniL/OVHTIjAHyELBefCsy+pfD9iNxmcG+CEXhPKorMHlxg578uZX8a/6l53iN5RuhiZ9UrUHcHgdlpSvGXf+58WX66BDwI/2UChuReu2OjnT9UahDXjRt5y+bNvOQr9PpUABJPdd/sWoOgYv0uFJgXLtwdTXS9xpvvAl4r9JAkeBJ/8FRZoQGJKhxb8CjxB7wI0hbj9XpugffkXIqqd/2mPuAajsH/agpwXoj/eQOwBf4zfp7bO3af9+xwtVTON5AWnKMGJ0xOpNAYKQSzKG56J4LClfof0MFtl36YbAdTb+8imfw6dQWJDb7L/m3ncK1Vx/+IyrTU9oTXASORZ1wPa6Qye1pyiRi9dWITm5AP1dkifM1YYjp11YDN6OtJrwtKNwGeYQ8A9+CSdUfx+LPookZ77gfWGvMj9zOH031/1m86kL9uhZlyzoq/Aa5BUrj7K9750MMIRarzp0xJoHhm3X2cvyDv9YUq3cvVvPXstyvu/idcXzP+gZSGIeQmDEu0POs0HiL2fMkLQN0C/aiLX9rarv5C7bKOVIwDmUsPMPa2XQIP8RA0HRxu2BoeOdFa/fqsRcvIzwOXgTuY4oBY+63orumV+AfsnmHQL6rT3Dtumwmz8f5sS8Ebap0E3mDswoxdq1j+eQZODI8vUKb0URw6AQ37A1KHxABIZTTjFUgRX+NkBfg9fpfe4kNQmMoPKCgMtHrGpsBoC+rCgQY365LSpcIQ0TN9/0EHWaqbdbJKIeE+gHjEEAuaBY8bUwZxIYAQuAZlyQy3YdloZFBvs3BXG7++SZXNowLmLGCX2AyAB4WAVwzbvQDWcVZDOkX0kAGISzZG5sgASfwfSw1iAcsOBRMhShIe/ErUeygONBcPNAgmqhEv5W7zsq6+vp2ha5KTlamX7ixuH5Kw2tNiefRFB3suIX9Je6tsxjXrHcdpTDOl3XZMSRzy8ibyCq59GkKfGJIiSgzdiS2j5uvRTA9YAIkO+BPuPi96yXU9TKlYzF/wsi1dJ8YbC4V8dbP9++n0/azta+/63WIWjfrwlgHWbO2o+//kXJ9b/a8lKWWrf+LgwGxsvJfBML3cESXKyYQA/0AeVtPf02FtAHcDzp7bPW7j5939oD0B9KMg0YK4xIygtjDCVkHRgN9F35WubDHX9eqUo9WJxJgjt2p0bVA7CAiu6CeHIsRtQhppoCjKbmRU+g2BKS4aochFdukJBx3rMauXMRCtNzCpRYd+TGXYF1kp2wXoQ37ndKHpa1WJkstlS6QhhSLUjVDGCunG5YUKrDwxBCda+7jNAfQndES4E1lfhMhBkVE7AAA9JuNHdYTfeA7bx0XXRM6VZcsZSX/S6x3KjXLWu7TnJ0+5i9TDhH5r70/3u69lZELGX0FYs+QoDQFcApygr7SGX2+n9TNZS1R84o14C8CrxpOpGbMeYXy7CAsYH5I4kqf9laWbPwvrHfGNfOM5fcScl9QxbdtFtWc2gOfsm6A3wQrpTvpG28Kij4CA7AD4cRAUin470IeC3PSAEMDtiT0haOW3TNRmul5Fv/sBWt3az60rjRAS5cUvACTyC0hht778WbRv4SSkr1rv16ZlG0WB7BjcdOuxyn7iElC3L4jPZ6+qE4adVjOEiOeaTkHq7sH8tXKiYYxQ5PHNZ8DAWEVxCfCx0CeNcePCEagv/xWTb+lzl+zYOErzvwx43/bWr85FpQ0UqHfwVeH9YuViHjhJRNgGLYnTtCzLKqnaTNP3XutUbBSbbwoMnyn8tNz6Wg0yf4O3MOzZ1/1CzZRaIfIVAr9hxVBR72LkDqTttTedUuNjwN+JezCivxUIaYhP2zZKVy0dLnHws2Mdl+/jHIyOJN4n8orpA/qsygoIl+q9fYIsINlkaleCyOlij0hgonWH7DG7ZrvwroByE8zAdx04uLltuiWKUtjlVaftU6hTBStYZCG3V9A1a4cXPKC8CcU77X5+eEiqVooRw6+u/T3dM/88/vJZeCQ5kIoUP+4T3H+koYF+1zcfYDBhfffkPvgBHm4oEsQB9ZCtAXyFeIi/NSIE/hpXsuXJdMhrflVq12hrJx8I3nN9nu7Hn2upQJasxv2C5wCI9UjDtx+ToRnVO6SZp3RRpO362RQbNu8Dcr3Lhb33FQU3z9NgF9+Du5ECgkVOxLv/iMa/+lG7Z01XbNOXsYZZPYfrxg5x836OAnPqNvhMUyD/TlYn2reAoy6eflG0R/W49fdFEK/SPKycMDyzpTJYak0VX7jsqKvuvyL/J6Hrl6W0D/Ye+g+k64GPKB9WPvHbn1SLT74Fmnwn9m5xfY9yVl8upAz1tPXxO20vzlxe1ibZM1dvcrIRcZhoH3wuMmyTkKl2DUhN/hoWQMKJvIMIA+bXq5Qy18lEq8PZce1Nv+yzdt75XbuvZfvm0HL3Hxmbs4B4bzBDCoMB/aEyvWC+tRYRBPOEVUpIh5hTy/ODhPZ+jvA/QVZ6oTXykJ6JgNEzdRiz7hOTAJGOXMpRyLzMmTwfHOBbjjPNAfHtOirzbzEbLO4kTMV23fsB29/VACdlGkVIyK5JG610NWvH6b3PG3Wjuk0VFqSoAo7FzfAvoFJNhSPYgYjlc8BQAAIABJREFUbQ/wA3dN0nrvDkBgk451Qax8DlOFgXrBeujaHTFRLJsFy9fqwC+FChF+FJy4huUAQE+YUXTTTgFm3J6E9fA5ZZYoGTqPQyEUS1gmwA3Thskuqdxgj14OWkPPOz1PnN1XORGNk6z1jqH/krVfgt6PLwD6PobPA28HiBzITwf6fA9AI06SsWJVQutn/WDyrOloRW3s9UsxQB8ig5KRqWi4zU87yfUI+ptaf1yaFTbx9X8mpkZpKm1+rX+qJGBq/X2/RoeBMM9cKLbMI9p5JtDHYp+y6C83XJb839HTJ9d7R8+AtfX0iuFAI1KM04A+c/xRoA9j1BkM5UYyNAwHQaAwE07/01HcLiQFJgrYVsLRpp0SBoBoDkwRyCTsJpywk3ceC2wAOL4rrnBVE3KiAlq8myosMHCe7Rh4Z3lrdzlvHBapUNxO3n6k+sQkM3FQGPtS8xtUluB5aL9jYMTae4ctsnaPTVsSF9AS2CIRK1QshYRkLyw4MPZt56/YdCrGxBlrRJ4LQBBKkbPqlaoevBKuQiVSPCcSOqi418DKg7UaoA+4UL3q7iG786xTJekIg6KuMslkAL8rdS3KccHFD60A0HEhbzh+Xswdq2FB9RoJKVzqJNJx51ocKbKrdQ3y6Jx80KQ1loALLPPaE+GE/atqrcq8AZAB/JS9+04no8bVHkqGr/KRBPqBdwt6QrGPrd2ktQaYxddtUfUNPsegIMUkWiqa8cnx0BDGGw4apN45oWZYPx89fxmEmg3a1fpWK1i+zmYtiYjHKT8k4ItYWQGRAKcfKlarVCl9R0nh/A8OwBG/JHG7wBkpoGFCD6flcTJk1H4uW675B1DB/wD68D/4dCb/8+NH8fEg0e1Ndxp6ZO2mZEx1bP0WeVwYuwt5cqEm7GH6wHzCi3kP/AtFi9AI+gFNMP/uZFrncZaSh8yT/Jkc/3nwclDzjREIRRPFomX4V4UesFc5FHFRQZk19/6qiiPknVH95WZbh9X39BsedRnbCA0NPOncWRMOX6JUbPr8E44kPhopU8gaeR5UOoFX49nedPK8A+Kd/QqBIISKpD/uJGRyLc6P282GJ6oydramRftyHmVQIyhuMXm32JO7L95W0iYhe1h7ubAYn3lQa7mrVtucKKctu1Aj9o8wQ3roVPmKjPn/9QP6n0l4LiA9AHHwS/gc1uE9F26p/YauNwLFhC3iiTjz4LGFVqy0heGILOXwEOYE2Q9NqhBBELrJvoR3whspjw0tUCYU4yNhein5NVo+TPRzeRKwmDPHoSIr2bhdMeJ1r3vkUXQHP1FRJyFDC3t368kLAopY3m++GLDFpauUnwW4Beg7Q6ILN6O/mRdKBBegtOrQObdfCZmLV4ivk1B76s4jxdXDE6Ev5jO3ar2dfNCg8uQYD45eua69jOzffPS8zpFBUaD4BkbIi/UtMtYUVK9VaVj4Z/7qDdqDhy7fVIz/w743UrZog4t9SXlpzvsgUffQ9dvKPwDoz4/ExHswAP3S9lJ8E74H7zp9v0aVdBhXXvUaKc2q7tb3RmONrNoo8C/ek1co4xpGtvud75yVnwo+zP+mna5E6MA7JRaz79mTUvjhAT0jUgJ8nkb1wTNSdM7efywPB2tCZSRkIaU6eZ75L1i9MYgccHKYSkLk8v1tLPq4Q1hoNiwA3bvtIHQlqY2j8WK5Z3G/KayUNQmwqM2vckuAn48DfX6vK4QFZpVAfv3AiFzTVJbAEnHmbr1ihQ9evqMsZsJirja2GVo9xAeBwazF8NNis2Xl9kDYh3ZMEOh78I/AJXQIIYUlUMym/62SG8mgJw78//wYtvmly+xLrGP5UYEt3NMnbj9y8awkHuXFVPcfy96TgffSYOeHnSsKcDMvXi1GCfA9cr3GGrre2vFbtcnncU1xbgCE1db/qzYejMEJxZRFPxPowwC9NT8T6Avs6x0JgUxc/8Tx0QfGT9jOeOuXYogeUI8G+hJK3msSAH2e0dpg8db6O2vUp6//kNX0v3d99TH6ACWFfPj++PtoRu7nDbqBCbZwkAWHCXW7WGCYyFhAH63/KWE+nX32lMTdNKAP4E636E8E6BNiNr9ouYCJLC+F5WJy1AaG2TjwH1P8J3SO2/GfRVUC41guCF0gRpPfImyo3wzIP/WgTmCQ/Ba5iyMuj2VOQaFCIgipaXzdnwT6KOrkkADKKbt49kG9+sH+RpknNOPLHBeCcOT6XSXCPXndL6CvUD2YPLGSQQgM/UQx52wClFMAFnPjzi0oVZjJPKzBwfHh8sLk4A1xXhm/Pin6Gr1+/nNvQUe4oJRgccaizVkQzAnKEsIOS2LZ9v1SvlFUKM+2/uBRxfICEPAgYPS429Eli9zFhw2qmAEoIxeGqh1YYinP92240Fbt2WeEe3GoHuEZM3ODU0J9UivW1eJq23ftrh385b7CrgjD+jZeLR6LEQJQiqIi6yYnJefG9ff8QheT7ITNVpXURQAjxNzx7B7klxvriaWQvnMtjFUJKHEoGtWe8DY1dvfqahvg737be+Ga8ofIAxKwCgwMmtPgACh4xaLEMtt79Y76jlWMcXDyMGsDbQOuUZLo9+w4yZilApuEHGHFxSgC8AfoY+QQ/0rjfyS5+fFDOwr/IuwpGD+8N7phq7xBlLWl9CDhWcgb1p38JtYNvs8Jt3hylcwJ/4qUSCYR7sahjfTJzz+KAHNP0udU+Q/x2FjsAZLQGICC8sRYDPG8IL9O3qqz1v7f7cClu0pQxZt1ub5FCY9Nfb8a1lD2MLTvlR0AJPQz1vyzTpp78i6iJdqfeH3x2t193mntI78Z5Zep9EJBiNk/hZIVV+YuCds/I6W2etdBWWQJHdFJrchHwmSooFLo+D8n4QKyW7pGrKPvnTW+GpAXkWpsOStX2ZdLcyQvmEMANWvik7qhBRLLHf3ftf3XUvMPxvD0T/9RECWnqIZFfhuHIkXKbc+5m2ofIx/hnABEkiA3HT9luStW2ddLcuRJFdAPzn0Q0CeUDBwQRCrAA0jKxjoLcFu9/5hyDbDSej4y2TsKpbzJIVfyNrFhiww/GISI+2autp26aKsPnVD45C/NT8VjvUelbM9JmxetFtB3Mf4YcUak3OMJ5eygzOvs/VrzV2TLARdRoTDQIoXtPONwva5B1c93Z4l0W2P3OymMdVS16eqz7afP2OJQREYZQr6w6BNyxBwtxPtXEDNOD2be4feU1qZOPOFA0DWFFEjmfdA7rDUAQ8J/mAuKVqCgYlAp3bJTQB+QT0Lu1hPnZKBjn/yrbIXbxwUlRpUgqoBRPhzezbvgf8wB4J85wGMGr0NZIjcO2QvQ175Rnf+oJTbuSOaFkPzKc8hCLv4+d4+rVsoqCmt44x5FbMii3+8q6BWs2Ci5QfusF0DfyVNnmEIRJTSo/e8E9AV0opX25RJqMruMee5o51zZNoAXxGjjWAFwtREDxl1WWmoKY3lKAv0PY/Rh7jA4nkHrRkhTzpDryK0Hctcg3EgKvNPeKSsh7nNCes49qldCBIKWDeKsMiWugggAEldi0jrmYtwEXtOBPtnrSUVgtOUfhsOFgELgkDzDiXcoFhxnDsjGYgODQzB9QYxYUYXFt+wUM+FQhO+LOK2vTHGQgC0YDi5wNPErDc02N69AGxwwRzIg3gOOl24Z+N0ePuu1H+JVyefnxlxNYN5L6M6V+jbFGCb7n8Winw1oIyjcFbi9QqU2/edCrQWKmsJPRnlkxl6/FH04QO3LOgIEdAWeEa84Zf5ezCFIlkqt/1Da+u9WPerU+rvqTJwMzAbkFEcx+gDoO5DvSkTC7JP9yFBY/bzNziv7KNDHIlq1m6o7zqKfDvSfdU0d6BNipn6iBEnpdm5maAWr7KpDZ2zHhZu2//oDO3j9oeLFqfqEZQ2rwqZT12zGkiLR4z+LqwXyUUaJyUVBBVgjjLD6SSnPidqGI2cVSoK1PXedS6ZlD/1QWCkmieuXRDApuYQXRUjajtvcBIA2pko+Hd1v7Hn3iBWs2aGkfQAKHikACoKDhEAUUk5DJEcBEI6lHzrnt7jn5+a7GNr//IlKPS45kj2rffuR+PwUDZVq78mSSHk1YuxDCePkRV9X3gsg7gBNQu8QHCS3Ui95cdla5aTAP3iOUBWU9JtNHXbixn2jYhFhhMS1H/nlnupTH7j6i12ub3Iguve95VRvcF4wDA7sZc5JIDEXJQNLanDoHTyD/sFfUS7YK4BV/gZ4AlQxHECbeFEAj9F1WyQwCQehahKWSIAZcwnvAUgDftlH3tiCW5xDe1D4LtU129oDR6xq+25V8Pmlqc15bDoHbPOxs6q4gYKvNjniHs8eRhsUFmgy5CzVGDoYh/hikOyuEAmUT05Hh0/Gyqxo8w7xP/jcv4orVfkGIwd9RLGoedErIXm1vllKE6AS+hT4DsKfWF/GzzOR9VtkFUYmhNdsckYpqpeE4KtlCjvDaED4FXOn/YSVnkN7AK9BfXKFrgTzD4+YFiq1rwD8gJMp8B8SogEEhHYRx4zFmdAxlBxkVenmPfKG3Gnvtm+jFZIZhH+dfVin39a9fqM63iiKrAHGNU8/zD/7hnlPn3/mCkCr+Q+MKMhZLPooRIAlABKVraDfE7ce2qnbtaoWd/T6Azt67b5dqWmRHCFRt2DNNnnVmDNkskJxA48OVaeiK7da9bYDQYL/kGq8P3jVY/mr1xvKOnKfvmsNoy6ExxXiQCn7OP2zX0RzUfZCpXIVwA8YnH5MrLbCtTsssmqrVW4/YLvPX5O3gmRa2g+tWi9gOUquE1Egvh/I8wAwcoAn9emR4fABeBtXOi+ZzN8oxFKM8qOBRX+rgD6HPtW+6hYtAJ6VXM8pvRwyRe5E54Ct239c+Yy+PjyGHPAO/BvFnhwjX/9dNAadBXlY/nMSl5XbR9hcpEhJtuQuYqyR0UaFGN7Io1TfOWy/tL+wb4vL7NsoRUNC2iMYmLafvCygjyKE94F49+9KKuWZo794lbafu6ZcwRTQH1BFLWLdZWzIpUR3icKMeA/854ficgH9BdFCAf3IyvUKx2GfkKegcOulMXlYkWfQLpZ09iUXOVZ4V1EaKDWM/EFBU637nh6F7ii8Wqf8uvKabf1vren1oG0/es6FXSrMz4U6LqQ6FiVXC9wFzbL/Lzyqk7ceBSy0fIOMQ/Bf2mcceAbZJ8jo+fkJa3rVbx1d/X8fiz4CFybDhCOAEB7ctek+kozLxubShpbm7A4+ALjrHTBRX3UnXCRQ1tL7Tsm4gAo2FUxFHoSQqwG9IFym30EkZ+7Vqn4v7jYsJABtCRoOn8iL2c02d+gLRzCzQQCnAqhBxQBZDfKdYJVwCoC7+hxYo5S0Mw7QhxnkrdyoE9Zw+1PTfnG8UgTnLepY5FF4FhRX2e3nndocZHyTSwDYwqKFwEExIGQC6zEJjYukBFFiLGCI8SppzWzILUfPqwYz4RY8jybNuH0yLifrUl3Fr4O3kKdb9N13o0OTPDPzpURl7Q+VOOCFKx6rWFBT2CkJ6cm4H66ff58H1OlA37fP/Hug7+bfWQR5BguAvqfOb6TEZbP3v8lY/zdp6888FMn9itWQk+V4N2CfCyEO8MNi9IcBfcJ8OvvscwB9EknV16AOM4wMayyJ50rK7XuvhFWqZrQM/bcEhUssHJYFZP3RS84Lk1dk4ZWbBLLYP9V7jwaWfMIaXPy0rE+huIQm4WMkheet3+2soUsLrXD1Vue+7RpUyTeAFpVVphFeU1ThSigWxK1q2wF71vvW2l8NWnjtTtEg1jwpWWGnIH8XLVeVnqbuETt05a7CTATqAte+SnrmuhrJvha2LLOca0E+jMDc+LWssSb738K3AMCenyWVBr/HOcW7IK4EM4A+SdXRTXtF84BdGDzCEbrCukScM0KXdeAAJOrTU2WiYfCtPXzda02DVDR6ZyVb9su4wcGBAJcviLOP4dmCRzohiIBWjCxhBtSOjlUpiZVcEqzRskRiiQ67PCOUfgRd4YZtyTAYLNoAPz5nrOwlKW9B2AOKTvWeI1JWEE47z16RUCQXYQYeiWiJhC7hWSg7eFsAUS52NzgokTjUaJmUNu1tavYH3iIsWexVEvehWYC29jP8nPKHhRU6iZQ5XH/ghMJF4H/OClcofoYXCUvg9YYWeUYUW4tXOJAJ0JCMJ8nx71DODmUIkQGAEtpnnuA18D1oScA/D4uyK/MohZJwvsCrowS8oDKT2opV2bQgF2Eq/OfW0y5naQwVqnwj88p1/mFDIL9ei37Ktx9yMczU0C5I2K22F7La3u/oVXgPxi6FrQUFJVC2tJ/GmX8f9sI48wFRPe6gQ5+jgnUYkMap0FhZyd0AbAI+MZRQUSq+eb/2jRQI4p3znTyT/A7Ox3EAM25Ly1fY3faXGiNnuiwKVyrcE9lLf3lW5TDxAuJpGof+fciWD+GC5lh/LirFsN7Qpwe6hMXe6XgpOUHlHF9/nOekaAQFGNgfKO+ANeQ188KeOH63Vp/BZ9kvovEMI9CnfIYHBAUJOY23Tcm0JH8TLveiW7l0V5uf2bnaVjt6p8Z2X7qpfA3yJlSpJrbMMDaxpzmhVaE7hJr1DgsIA+j92KHT1OUUFSrmAfSFP2IJGX+aX/cZh16t2n3YqncesHUHTtnpOw1SMB51D1hN76AVrl2XBPq0DdAnWgBATYllDpGEps49bAqqA7233OXrpQAQaXHw8nWFrlA6F2zDPGNxZ5/hFYW+VEIXBYjS6PlR8Z7F0YQ9fN4ljwNlN8GdrK8/m4F1Wlq9VjId4wzj5xRZ1o7cNRReFOXm7m570t1tD14PJZNxvykqtcSm7VJyOIUXRYq589iDPSasqORml4zLWkMHZx+mQociqza7vBudxVBot5++NuaN9QPoE07e0tkvDPC3Cd05/rBFlQ4kNIKT4aTlZBG0/C79cpvaVWsh3pyKLXPCLjYe5k9WP/WMdYhE7zs7c79BC8sE42ZF4AHMWFQSRh4/7zHK0V2tbbHtpy5Ikzp8+4EYhiMoV1mk5lWvQPPFhufOmg/A40CgwLIN42FRIFZZ0rAoUqdcCXMuaYdqEcRpYlVDUCC8AAe8Bys7v/+pcrXBzGt7R+xmR6dc7yqlVgTYx+pUblQnQOCuO3lJCSu3215YXsUqWbT+WbZCZUG5Y3FF08btc7WuyZaUlqsEHtZP6nevO3ZOzJfyiUtKltmPiSr7Z/kyW1xWZT9WLpd2jKDs6Hur2rQ5ZcttcfEKW5RYkSyHhkVLVsFAYMIY0LJlUU2Ov0QlUWESLom4TOCDuQOEsH4SuAAIThMMJz5YPwE7GHEAOADtPkZS6xp4VGif+c9sX78nvhProazZ7iCj5PzUttiO05fGWH8XvkKsL9Utzjc+lfUPgOeBvmgLoe+9CrqPzdRJQEZDZ02IuSPznvAdEk0J3yGzv3qPs+gXbtyp79te9diLvmGdjNva3aMwEASHLNGq/hS4sQtcJYyTd2pVJepO63MxavpFOTl5nVA6sUCRTBqrsJ+r1ugYbTxHgEus+OuPXrDC9busbNtBVXUo37JbFh8sIBuOXRbQJ2mdE29hlIDTsh0HUkl2CF1CHlBGo6WyMgLyiLnN37BH64byHcflytHmPL9lt9b9y1CRyncC9P8TK2us1Eo37rYnnUP2tHNYQB8aSArHAOiTaItiT1lOV884sHAHpWy1NkF5teSzkxC40Br7V/SkU3yD8oAk5QdzK36EIiLrXqGVbd6psJv2/iFbe/S8wAQeFIQsIBVrGpZQ5plwn+j6nRbftt+Ktx+wwi17rWjrPiXh8lnZlv32ffFyeSYFIAl9oS5+EHOOkg7QJRQLoCzvk+oslzuLdNKz5jxsmhfyZ4KTZSNrN4unAHRj67dqH8lLobkqt+mxKoWgwLMQtgBIxkASnIoZCGwBnKg040KZKFuMax+aP3O/SfwYBV97njNFggIL/E//2f+EP0EjAhri7666CcJTya2huPgf8enwv6Wly+1fRRVyz5NAipv+X/FqnQNCTenrtU2WU1KuPAAUBC9T3B4KPAd5xTqcDWDKhaUP4Aew19oWVIhXIXOSSn0A9FFqGS9zz9pi0Wf+mTvWCUMHpaGnyn/ONnbI64GVkTh4znhhXq/XtAb8670dvvXIKaAht/8wVOCZpRrT1YZnsugDauEH9A0DmPK1JjD/7B2MJVT24ewB9j/hFiSesocrtu232LqdOpuhdPtBnVtRvGWfwctKtu2z4i0H7PvEGnly2SfKbYpVqX3oAPk+q4iypS70j75Xbd1rAKnWLhJOL4j/AKplYMGjRXI44BcQPA79s46SuwGv1joGIViSJ3jMOedCCkeRwhMrtu1VeB0GjxVHz0p+QKsuBM4pyygKYADWnqo2sqr3v5WXFHpmf8kQMAmek86vGKsiE7Rf4zqwif0HUOfALOgCDOIuB9Q92ETuzI8ts1m5DmySSM+BT3gU6e8H5TXH6CsgH8MCCgcWePb1k54hO3fnscK18DRhxZ79c8x+Lllhd192W13/sN1/9tx+KIxLHhDySegOoZZETwD0XQhqsSW27LELte22/yphexWuqEMkYfsvXlXdec4IAkzzDkA+uT94ihkDxkjyETh1l/uWk+dsx+mLdu/JSxWCQNYSygg+IHQG5QjlM2/5JuEK1of3Lt99SFEeGFp/qlilfYbcbe/qVIlh8dbAGErVHSImwJCbDp8N5K2TBeAb5D0Xa8bagXWpKnXuUa3q4rNuGHyEFVEy82NWveeQQso5Q+Cn8jVS0J50DVhHZ4/mDEUFDMM7oWfa4W/kLXMDVvnL6+g/6n1vkY17BDw84YvhewtdBnF5huzvgEWsUUpoyyu1aUtgxK7cpDZAxGV6c4IZlmqAvgQGVTUogVnEwVrO1U5y3r2WF/Zs4Fd72P5Ktafvv+yx7ytIQCJBzJ1iqtJ9AmbDduphazK+UcAJIUrVCw6/CU7Hg1ggBrlAA2sYVjQsQrOpQ5xHOVEski7eE6YL41xatd5utL/WIRH3XvYla/YirElWgsHitkRIIlT2/vJAgJiFpcIQyYgoCFzEQiKsEAJYtCjPiFURpkAMH5VIdl28rqOx2SS4uFWtoG/YiKt71N0v5sHzHBSiO/HUA/9lm09fF1hjDKwFwEeCn0o2WLTyUuOnnxLgKFjEeDL3WAVweeaV6iwEqubgTsV9T+UdQDpWIVx4rB9hVjA7Jb8FFhiFIgSHrNC+FCrKsmW0z7rwnUoiSti6MAdixLF0/VLbpvrMNc+6ZFX9YP3zXegOgJSD1U48ak65b7HmJunVMXwPnFKfu777/1NA31Xa8UCfxFyAfn13j608cFShO7juANec4dD6moRcF7pDvDeMXO8MDpyD9hFgjJeavJz4R9w342SeXRy2C9vBe4bgEcOpaVECJ6U1sWxgJQGgMOcIrVlLCiyH8BMqC/S/tXXHLtmsHAdm8qrXSUCQBL7u6FlZmUjkxjKHoFaFlbxC42RCQAbMEIs+a8/7qawB3VLNh+PDsVIhsBEm/5FXpAOesNCu2H3IWl7224uet6OAvhhdFqCv8RW4syL0OwT7ZwD60CB8hDA0aJA597TI39QZF3gJlynpC16A+xihwimIVPzBkwidEnqBJZT9h5IJPTL38AMAmPceSDgQLkgIUlAlC8Arz0IQ+qAQHqptBNUivLGBxDMO35MyTiL+OECfBHBAvgP6AdBNKlbl9r8JYQn6B9BvG3wnGqUqBh5AgDEAiDKM8DysV3g1KPVKGNrjV0PO0hzEWItug3AKgJrCbgKBpb0MCM1xB/2RyEzyvvPiOv5HAh6eIvYnRQPwhsD/CHFp6uGQrmEpib48bcPAb7bu2AVZ9gTOsPApDNTRfGzNVufF6n1rRevwaHwI9NlPfp8zn4q/B9zj4cOTqsP4HGhg/jn5VHyPwx4p7ShjyOT4z5GaZgFa5oaQgNsN7dbeNWw1HV3KxSJUZHHpMqMikWLgVQu+xNoHf1V4wam7DaIxZK+AKpVrgvkHPIw3/8hh5A+g9l+lqxRLjRUfcOXpFwMCv8NjgAVcymaoyOZGmRNygjg/gvCgUilR7B94P0CIczr+g30bcxZ6xrmkZIW1vR6y5z3vbP+l+6KBJHaIYl12eQNO2XLzn5X+JXNKHDiCljgDhz3NOhZWqw9SemQscsAJwIqhgtKNu67fE8hSnghRBIS+4eXBgEfuYShutzo6xRepRkRVM0Ac/WVOvByY7J1+QnM8jxJMqJYD+m+S4Y/wPnc5I6l4RXCOjWTuUhd2iJymaow8tn2EtpwOFATfT9dWOs8QWIW2YglbWFhinC5LPXhkDfToDv7De+ASciPrtglPNPUP2YFLVxRxwBztOHVFic8oGN8Ww6PCkqvMFUBWcpsKTzJahG33mcv2VPkob4SzCMvj/KBtR85aSxfnbrzTPOAhIByybehXrQHeZngsvKf+eZeV7TgkfHLu/mMZzAD6Octd6U3WCPmHYeLGk1fiIeQJkXvS0tVtz/t65aEit4xQI/KVSjftcKd+d7+RJ4M1gTe4NXIVAcE3rJtC98JEMZQZlX2oi0/56fyVG8UnwXfkXFKA4pcnr4ThMLzNyym0ts5ee9E78PcB+pX7Tto3xctFqF6AwXDQzgGEmRuATZR+MVmA/VnhSptLacZwlS0oXOFiVAnNiTlmy4ITr0ti7ZwgJhTh+b9xxcqa4Y4iPgco6nojsId1d8X+ozYtJ2TTw0U6NIuJJ1a1mUOz0NrO/pLS/gIrMkCSTU7t7G1nL9uOM5cFpreeuSIN0jElt/hf5iRsQfGqJFAWCA3idW+0vJBFmVPY0CQBcwBlLFDMEYKdgx9gKmzkPdfvSyiR1IKQe/yi3wm5nrfWOuLCLtp63wjoYzEmoQTC3nTsrKzuuy7dFKPmVLaOod8EOKhARHJy85v3ist+0jdsTa96VfWE8oh1fb/ZhhNX1BfWCkG/NvSSAAAgAElEQVQti1Vuoaw41P7eGYx/++nU+CF8iB2rFnF+ACIUNH8h/CT0oy5PASsxp1qeuPlYyWNyuRHuxbPMe+A65TnmBmFSvfe4ao9/tH1qKas0apksAmdvPVZYCMrQR9e/c8g6ukds45mrSfetV2IYv7cSeaaYScf+f5g9FhYYDyU104G+SmwODlv5jr062j5/LRZfZ/l/OfyrS0ilMk/PsOiN/cO4oQ/mAYFFrDF1rHm/TjMOPC3QC0zIA0hCNQD6WPIpL7rr3FVnhQToU7KSHA4BlmKLrtookM9BQisOn3MJmGKIxJgPi6ki6AF+WGYQ6F/mhG1BUbnNzAkrNhslgVOWl6zcZouKV6ltDijDGogyQ/u0J29LpMT+T05MoWkofZuOnjEOW+noGlQdfWdhdbTH7xlXpkWf8WLhYK2nBvSD3I/AAjiLo9FlQXGWQWhPaxqpkiKBEjMtx8U/0y/mEvc6MbQwdoFM9jJVvyKUpxuWgr334i+qSiMrPOsITUcqFQOOYjG/mEPl4k4RUDlIZx0CIKlqTWA19NZ8LOKUL0VgSoBFKvW8p8MUnbrxefpwQP+t6CJp0Q74Ms98EVtu/4s46Ui5BBR7pvF1r1EVAxe3hFW00r7Ic6UwaRvvDydBoswSugH9AwJ5h1fwVUEsgqXRzRmGEkIg6D/7HaUB+vZAHzrfd+OhhDqenPbB33UCOECfsxLaRv5bQJ9DlvAGeY9ZTc97W3/8smhYxSBQmAKgTzgVQB8FASNJJtAnTBF+LcOOr6HugRdVSGIVomGSX1GQ/fyz5wCU/5ET1+mrU+I/l2/LW4ZCgUX/0r06e9ozIh6PMr1s71HtwZnRYuN0XE7wjK3ZLG90e++IbTtzXYoWNIvMFf8OTnrFij3e/CtsaakLc0FhRdGiuhAJ6XgxmEOUI0dzeJGK3AFKxRU2LTcij4g8uFiVCyp1AT7xdFA+9ctoQtc0DD4xKuzEbXG41J73/WYdr0bs+J3GJNAXfggUXUJ6oT0PDAkd8/OfTv/zCqpsVm6Z5M68wuVaFwfCnDeB0EHvjQSQYTXmxN0nA78pSfjI/SbRLWFzyGPm0clwQviKFNeNlRoAC0/zITvILxn2pgj2ObCP/rKP4S9YwKFV5LrPc2Ivu30e7O0AQ8m6HCl3nodwqcaGRV812gfeCegzfz4sSv3l3AqMGcElOV1QrHxIgD68m6ISJJzOR9EPDEVES2BgpeLZ6ccNOuGd8zl+qlihOPbtJy4InDNPOpeI4g3kH6AYCt84zxGhWIQowV8IESIUbObPYRkVoP/bTR2ifSIzKM9MuM2RmzUKATp285GRK3Hsxj0Dx7wYeKtQqnm5UTt/95FxKi3yC6DPOopOoF3Kex48qdAz+Al1+QH6Hd2c69Kv8B6ShzmXiJNxkcdPB361jYfPSi5r3uSxdPgGrMr8yUACX88vtjP3apyXk0p0KzYI53kvEjJz5cGT1jT0mw6fW1q2SkD/aVfv3wfow+Cx/orJw/BxeWFhTLrCvDbp7ukgn7+/5qAdHdFM+E65zchj07pDaNDoARmUsVK8a++IcfItsWnO/Zywr4uqZF0RQMpP2Ipt+63p1YDBBK/Xt7mkicKEQkgIIyFWffe5q4pzJ044Z9VWufZg9hAGBAJDgCGR0Espwca+YZe42zkgwI5QYpx4EjgenlhTrH4IMEJxFhdV283WlwLaWOc5oVbxrQIx8aQ1H8vW/9/emb5XUWxr/H46R0FEBWc8MmTemXbmhBDAADIbBOeDw1UEwQOCMgVIwpCABMg8B9Fz/9C6z++tXjudmOy0eyckkf7QT+3d3TV01apVb61aA0ZDmoj4sS2vl0Fxbu1Ot7Gi0eU1NLvNDbskDcajjFR3Hg4LJJ3tuONya+sVQIQFFGPdt6qb5L5uS/V25Sey5eatO9zbtVvdu3WN7l+Vda790YAm8vmOTpdX3eA21e/W0bkYTUkgiS/yHg+YZAAXpGtcGACxYeH7Bcg5iSAyrU4BGjV+3g++Z1xIoDh6hdA5XWCXfuJSm/fLXADdYAXvIxvS/34B9Xmp44sLran6kXLMVj9hzmGUAg+5pRp/VJM4tThLrACMZjT+JaKB1Pj3jbv7g7+5vJ37U8fiTEzo1oC+JLu28M/B0KEXJBphoI8x06+BVf+d4VG3/8sTGluC+SDthZly0ae3+wa1IYGekRwgNYfuAXucWrDYHfz6B0n0qQPwDJCBRmEwLE4sOixK+IrGHuXm6G+u/tAxMWABULxgYISUVybmjccD25Ds/uZH98/NJZJU8R0Xf+3Vsfapa/jxLtFpDKpbSOdRoQPw4JEDHXSAftGeo+65zeVeHza/TL632czgO5h5C4DhGwDpzFHufX+1XUyZDacFzDKAYkAff/9h1Z0poG9HnNUZSvT9YmkS3OcL0Qv2Un0z5sPzDFLOF3K8ehT9K0CY66WL6K6jkoVUn82bNgCB61K8LLB4XLo/IIkoIJiytOhwEgUYDmyX+E1exhL6n5Iqeukt7ilx66nTsIFJgWBUWOhP8gI2Zwf6SP78hqlYEv0poK/FBxqXClSt+2dxo3u5YqdonhNLbIC6x59Iosf48/5zGHqWNUqq/49NRdoAEIfk/uiEu3B/ULyY9tMm+ILmUFGF21DV5G0TBjCsG1PwJSI3Qwe0m40GIID+hj4wWIe/sBBuTG51+fVT/I/7qO60B/zvp/Y7Lr+m3m1u2CN/6ZSDbQUpPBjJO8BkOtD3JxrwHD/+HtgxNvBy2sPppPoU3eyKRj+fsLdAd31g0qFCCa/BjSj9ny3/2bj7kBdUYMS8pcRtP/iRBFCcXPx4444MG+HtrF06lS4skeCJEzk2y4U7UcfyJ5HQFeNKiioo/SnbkDT9D2hZlcOGoFabzvOdjzRWF7p6tHGFf9CXoifsoVDLyi+VKqy8cVmASyLrFtW7NTmchvsIpHKXWlzpViHsKaty/9hSKPeYJU173d2BJ+5uz6Q7/P0FvU+fa26ID1br9OLNIMgSUlzf/wTMmk7/6xMN7qV8H2STMYVWOdEwvXNAvgHOVZsK5aCiuGmv1EPwBrT/+/PioVp7wCw6tfAetOCZGNIDXmnDlgZUlMAk2HSgauTp2OZgJqkH+t4eZz6gD30a3yIFP1Ena5Ak5vll3j3kwJhO5rRRwHlBsFFDaAF9hy/WDxlRF5VLom/xUQCuuPtkoyibJXAKJzWFFa5o90EZveLQ4diZ8wLpAH02pgj0EOasK8dNKd4Cg40GG1G8guWXSx3pk1PnhENwu8uGEnyE8T0COq6PT57TaQJ9ogvBMSeBuSVSKTzTelOn4lceDLkNZTUC+rhshk7ymvamsBwnkAis4G24Uu8YeeJavj2tWDadPY/ctZ5hnVAiAMZdOe5NAfpExsVOiL5jrKWxgIosp8gEBS3y7mmhBfjM95fbUkAfTQ7xwwS8iKjKXsXpF+of/kP141q761HfygH62gWbhChQ10lNWDwvpACSJ9KZQF/eC5DqItEnWBJHgPKC0OCNcfOLFWoa3TH8dqM7hssvdJ8AEUiUKUOLR06Ze7u4SkeaSL4lAUUiiZ44vl2LcDFZI+MMBvLc9U5JQfgG2smAQsgsvITL/vLiNUeUTIALF0SMZxeYnj+twGc0niaCBTy/QsE5MEDR8Vn/mKvcdcCty0nouGgNoZhLvb45bacemKJUd7Sr9u6fkDqsQ9qX4/0946MYIMhRKsa0qN0gUXstMHjRcT4AMVA5AlxoBx547eBUhO9n4rbjh39gwp28dM29Xog/baJeBtFWYV4YnwQA/dNzlyWhlboQkt7h39zmmu2aeFrMcWlXWO0lk+i95gLkUN/BbsGH7WZ3T6hw6f5hJH3+isYPwCdpTQ46iF6KyuSAKXvpNG5Gr6tO6mfyheu3o2F0jGkDzA4QDG0ABgChF27flyHPrOM/NOnOXb8jupEk345HbYNqKknzAH3oBuaPOzST6BvQv9s/6G486JFkAleD79Q1y9sROtxsfFBlAryziaH9SHwZa7yQQFOADxZWdAxx1YkEnmNBxhvgDTDXpisPd4nlkni19o1oU2qRGwFrGCQx9jDTd8qxY+lXvZzobD9+UrSM9xWYISBWm5Hhx66wsVnHokh1oFs2bIVNzRpLpL7do7+5vPe8H30WA/r/0HenfeTLgXEFiyIvjBBDMaTbeK3BMwEBs+6NjLuCXT4y7vxA3/tm9xK6QHgQGGBO8ZjpQoXp96cvkrZgsngSsAme9XxOicCpdCZzfLs1N3TkXKX+IVAOp4u4nbzS3aOxIi88AXpGosZzeAVB+pjLzEf6wOYa9I6UiQVoQ+0OrwuOKmLgqcxUseTHHR/6GD32jUrSiscPeB2Sc3zPT//Gqe+fDvSnVHdmAn2ABidy2szkl7nzd+7rtOf6w0Ef7AtPOcWB687Akw+62/j5ZrP4+cU2nUDBOwU05bayXnN6c12zDPGgdb6BSJfEARDfCwJsAZoB2i8H3nOIrszJCGqYWtjhhXPwP/gXeQET2nAHEllokY0v9OZVd7wv8fJdM4E+4+Z5B/yEPuXiW+CB+KFH5Qnparj/2SjwjlQds+Q/CLrYHCH5RPUCn/VtD4bE4xFU4MEEEAKo5sJgEDsKNtrn2jo1NkjZjR+TMg7w0I11783b/1KBxL6MTWhBhU6xkSgDbps+/EJtgs9Aq/AYu+AFAJi3a98TqMHOCwHExrpd/oRB3oimdLVRLUXogtoXEd9Zf7nKD3wsAGjt1xqsMamUfRt97+l/RPFjjP55D5Ucxh/bPoHvgkq3sfF9bXLgixIysf4HNi7wQBxcUD/9hy447hGpm4u55AFajbxusdbTD6zleKlj0wOvh2bYlMOf55p/Ue+vNqPw4GR4LtUdtS3YnBvvItU6AcbC41phUnYVSPTxNLPns6+kfoNaDLwZDAHvYKyhYS7mjtcyqBGtEdmVNQlhDuVpLQ45K9EcL0hKkEO/IAjNq9/uWr76XtgCvocdl4Sq8lxVnYr1w5gxl8EiR747LWErggzWCNbo7cc+k53bg7E/ZMfxwpaEby88gvWFtVhOJyoVHZrNMLRRtfugO3XpqtZf/hc07UupYcK7wFrQNvZUN0f+K/uWu0PD7l7/gLwoQdvMMewcZX/VP6ZvwRiXfvN95t2+w8e5uAePAL/Bp9iU6zR0YFw2AtAjdALQp2xOxpu/+DZV/6+Do+7XvhWkow/BM4BMFBY8gfzA8h6pxxTBzw700XVksdVkJSJrbpUkNBiule5rcRX7DrumIx8J5OB39Mer7a5hX4uOz2sOtLjEgU+0i/dHROYV47R2tOhL4SFCbioTSQXDwReqPAn0j2vHxuJKG22yI2WW8Wl+ifv3edwQjitgDEFj2MESwp1dIgsUuzyb7FooOcK51C4QBzD9/Iezrn7vIVe9a5/befQTtbn24BFXffBDV3v4mLxAbNy6x+8+WVCRmBZ5wxT5VqZdgSHkc1u8MRtSbSTBeN1Zn58Q4TP5fGTJBv8t+QCL4Ji/uMqtKiyVGz0mExuFu8OPZczLQsm3AAoogwudarybwCTxow1DRDrOBWPeUrNNjFyeAvB9W7ZV44cvXx0lFtS6N5PbXNUHn2r8knsPufqDLRq/+0MT7qcbt922g0elC0dfYCDKRKE/6UO8aABGYM6MFfWjZsUFYyaYjtpcUq2jYR1BAoph+DLIrpJ+NGPF5uyrC1fchmSNFiWCIU2N/5jb/fFxAWWBosAfO7RMP2hcA9r0kpQpEDVF0/6eB/reLy+AnKi3SPQB+hhsotsJyH+9ssnlbWt2uPbkxAe/wlfvPdRmivZr08gYBO77UPGAHqHfW32DMvJF4o5xHNIlpFsbt+4ScGIBZuHFvzbu+QCbSPXfSdYJ5L+4uVCGTgA4pLYcfXLU2Xj8ex2ze0lLUvqMMEukMxdudztOlzgJQH0BkH725l3XNTopkM5pRH7zEc1dAab8Mulndoz4gFMAEk6l0Elcu6lEElryM6duDuGbvV9An75G/cGr5XgJzkyJPn2MjY2O4ZEyBUezM8di7v+zA336GB4GDRBMCAkodA9g31S1VZ5QAGCcjhGtFYkRfvT5hsYPjuo0EfqAZjiRA8ATkdGkkKj9bcAYcWOhQD9Ah3J3HP3M/dje6Q6dOi+wxpgjcECFgL5k4X6nskkgA7sHxoRTzc31CBqSspmgv2b7Xo1FSqIfNsY9FBjJBaBGQaL8KRYLIgsuthXiMUMT7sLdB/LEglAF3sGFIePPXQ9kcM0GvHTfhynBB3OH9gi855W7LbXvqc3Qkp0IQkMsvJxa6VQw4DtrSgMDTFxpFlVoY8h8no//6aQl8LLCb76dlO9hkcUYGbDI5VWXAIAmif0z0NeGk+8gYFngrlnrRdD/OXU7tXFjvgpooQKRBf+BdlhHoD8voKlI8S8EArhkhfbQUWe+f3OlTXMbILfrk+NqJ5JTNiq0nfWXtrGZVGRcpNHp+j8QaDAebMAAV99e7hCdQ8Oo8KGSt2ZTUUC/le7dygbRL4HTDp/5WRtUeDabVrx74ZkGO55E024BTXS9Mayu3nNYNI+ONe4RCfoIT2TumF2BsATrXn6Z4goAJqF/1lMArNE/38z3Qm+cjDPmnICp/ovtrr7lU/EeQC4A/1/JOklrmXPUz/pw6mqHNuphDEA5zD1UdNBxB+jfm/iv6F6AkBNKnXx7O7HZ5t9fuSegjz1BCui3aK4z382YFtqAHr0wxPTFA36G17VSYoz4wI2K7IpHrP5h9++zF1zt3g9czb4W8TN4GqpBbCZS16HPBILhKQhzJLAafiz340jPoQt9T0GNDH8ZH/qo/P0PhHMQhH78wzl36N/fSrjGugN+StEktI2qkbwZVes7WNuJyoswDlVTBEyrcwoUGwhvNAD4NxLQoy9H8ytw8gGdM7exM0NgCX0c/e6MO33lmk7HWfMB+swpBGdsDFg74CWcMF7sHtaJNWqHAP1rfZPCE7JlKU4KlyAkpg3fBOtA5f6pfqMvubhXcaDF1Rz+XEIJbBoA+qiuFu04oD7ym6gyCZjBU9ja/PLA17/igD5EAHOBAJgwLFiSSKFSIUMGW4xmB/rGWNkZcTT0WnG9DCyu9o1Jt7xjaNS1PnjkugZH3P2BUfdgZMLd7OmXISrg++LAE+3eIEg6k10ZulbHL1wW2IdZMrHP3rwngA9h4BoQYzm5lwzaSTtouwF9pA9fX0R1ZES6uBhMIol8t6bRS8DNPR3glM0OBFVQ7i7f7xNTwngSIHSrd8D9OjKu35LeBhICFh50/7Z/ccq3v8QzaoCupIiBKzr6l35kEwCxsgjDuM/d6pIfffoa1QOMklcFR5c60mNicJQuzwc+iAkTzDYKnHZglIKUESYNIwHkc9GXMFqipHJEzFEaqlBdA5Py5kOAFlss6TdtELSzZYGul24/44cRcOf4Y3ftYY/0efEb2w3I6yEAx6A2UEw8pL1EdmUC0w4D+ujo4UrU6icqHYse/YMOp74tzxtBh8cOd4Bf/XJV4/Xn8R9zXWNPZL1PACOYqHbs+CqHmQabVoH7END3TNZoeSoFeMIkLQAHdNrVN+TuDyIxGNR3A9COnWt1b1bvcO/WbRNDfacaj0eNLqe6UcBfDLS0QTRIf7IBhoEjUUFdZs9HnwroK2Lr4BOpdEBDxAFAJxGPBgCynPombXBaHw64u+O/y63YiasdkmJ0jj5xAP2yHe9LatPxqM9t++qUjrmhO4ARrs92HvtCG0LsPKA1aBpPKHwHcwDXaDIG7xt0RbuOeomNpD4Vkl40ffS5u9Y7pOBb2Jtc7OrV1dYz5u6N/e6OfHfKdQwOuPaBPhnzpgf6E9Lp/xPQD+jExsXSuRfZ2YE+i7YEFAUV8o+NhAoQwAkU6lXQjwFf6b4O+2A0Ld+e1InY87JV8Y4BGDeM9aBRwD59xQXPIRQ8Up+r3T2ShGOofW94xH147rKOzlHVQq9ZcylY9HPrd8loEKNn2oNUOWfrTvE5jKMJFuRB/RQ98v1RgT5A1Ye495JKADY87Pj5Vh1p+9PMUZ1cnL5xUyDges+ADPYw2j14/IQWdAKhIdShLzV/CN6Ul3Rbqnd6pwIDk4oyiZcr1BjhQ5KGid/Ui87/SWRc5iLG2xj8E10XTz+cGrJpCfiffFIPjLuztz3/o79SczZYgwzoA9amex1Coh8G+tZX3u7D7AsoD16AuqTUNgTyff9r48rzAPA8nyX/kQG4bAWqZOcC7+L68ucrokM/5ybd+TvdAhFsMjvHn7gj3//g1hcWa8NHjAttmpDYog6G0KSgUhstOXVI0/+ciMNrOBWA70IP0O/J69DvpGg3Rb/tXe7q/X7NCzZ5rHEt//lZNEDMmw21Te72xP+J5zDW8O3uod/cnQfD7i4eWR6NyEc8EX1/edTjNtTVB+AV410v8NP8DbylbKr2RrM60e0bFZDiRA368UASWwm/XiHo8xuzSflzt+/Guw+e5ljHkFZzEgdu4DRuc7U3koeGjG9IUpufVIC+M+33tGHHQ99bpV4FRPQjFTVs06bPOyvjr6ReiIQKHzr2SJRbhB/Y2HivO14IobUpkOhbHuavqf4Ie+V7iT7869cJvrvfq2gOjanfTWVU6dCYnrX2TujkCqP/N8qqvS/4gXH31aVr4jNa38BIuZUOtVwANAI5BBr/af/VtfUNubbeQffpiTOKGAvQh1dzQgdNArZX53rVF2gTbMFp9LGTZ+V56UrvqObkurIKBbbjNPw/rbfcS7lFPho7p2zSj/dug/FIRl8gMNHJff+Y++X2PXfmamsg0R+XjrzfWHAC4CPnwk8QEO79+rQ2sZy+3+3rd9j4cJ/vR+MDHX0iA98feSw1Z/g3UXBJ6Tc8EnHhCOXW8Ihr7X3sNlZtl02DhJHo6G/bmzoZolwwqcovrkzVf7d/2N3r7V85qjsALAP6YpCBCowdg04R/dxAnzIM6HNsXrH3qEBi+/CEjD66RsddV9+A6+rFgGLQdfb2O3Sf6ejLA78LKLMQ0JkvFBS7V4sJDFHqPjn9k6QA7LTwUoA3B1xPHvjyhNQZ8CoBMXKxU1Q7itGBTro1OYXum19aXcfgkEAcumuSKNRskxW5gK6MNv1unLrZmSJpgbH4hXzMdQ+PutuPeiXlFZGMBtIJfOUOTridx09LIo7hEnqFLIAAWemlBe3yC5CX0hCpDhWWk9fb3WuJUp8XfbHiOl0v424rUZ/yVb0KncrATy4bhasPB7X4nr5xW6HUuQfAZgIyqQEQMH2s0DF8AWizu8Vw+XbvmNzeGdBnvFmI6TeOAYlwyAKDK0cMgJHsslFj/O4NDLlO1DX6ByXtZvxuDg27qz3jOiHwR61VWugl3UoAODzQp35277d6xyTRN6BPn71S2ujWpHQVPegm8h00gKSBMZs+/j2KrreeuAIFxCgIggcFiwffJLWjQGVHEjf9NiPQ6cxdjDBRNifQZ7OH6sK14T/cdx0PJQUAfLxR2SAD3X+V1bjTbXc9wJf+pFcdeBGVAMWUSIqpvVmQcMmmXQ7QfvnhqJgV9ENkX/R0UZECpONzuLx5n7vQ2a1v5ygVKTRtACwkGpvdu6XVAupINZq+/iFlKAvNoeaD+kDdviOu9R6eix7LgxOL/pXuftfUckwnVCwibGALmz/UIoALO+YAx7Jr8xKu5tCHftM7NCmjys6B39yN7kG39eBRV7N3v7sx0OfujI+kgD50OrtEf3GBPgskCxfSK1SbPj/3iwLVINliYw5zl4ei0d/Un5xIlL23171WUKxrVQIblXqdbCGNRxqIF4c3SioUsAYPRJShjQNzaRBPS8Puamen++zECbepaY/fWAeBgmgPQI3j4U2V2yUJ5yRNzgPGfndvV6C6U+FP6UJxMKb4rIFX09GfW6IPUECgITW6wF889TKHtx/93F2890jASJvYoaGUpy+CgSV37Ze0VnyXTQfS90BtBNDC5n1z1Y4U0EdKhttVPBMBljjaZ+5wooLq3RoM0CXsYA5PxbWQT37maBCBG/6H1OzEDTxQlU6tPUh3Q6qi9BH1JHbN9v0m0be+mg701ZeJpIA+c4y5w/ix8eWEjD5inCWFzZL/oLIq49XgRFFqOgWljqjnrF9sMgHNREPHUwy+1fcf/1bBg14pKhagoh/5dsZAazDCitxyl1vbPH//I6hCFQnVHNQ6CnFTXObeKquS6gdGkZzG2KkA48iacPnOfffJd6ddXvM+HwG9uELBGQ+eOO1+uHFHarbYwHU9HHEP+ybdwz7vTrjtYb879L8n3Lpk0r1YWqI2+7b703GtwdjJJSrdpsptAr0AL6N/+h+gj9tt/91+UwY9scnGYcRPN7u955b+CXerx9vrcYLJfL72qN8d/uaEe7M06V4tKvEnUDKs9fFTvJCpyhXs2CsPeB1D4+6zHy+IN6CzjzBEGwNOQnCnnVJNnr4uRL/vde09703OAvTLNB/mAvqri7eqHQBb1kUiu3JiS9RtTpPBIf7y/Iw+4JKaKV7hBp9I3Rgj77eStdoEwe+OX2qVxzw2UsxRADs2lGzIoHsMt2v3HdXJJkLQ8213dOpPfzEO2oDJ3qVWDlZon7wxoZqbqJb7Ybzr4E2QPq04fERxRZDotxxnfHwwPzb5OFvBYQIXrlpRL+aU9fMzP4u3suH8sfWaQx0HwQy2aootEkQst+CH9A9SfYRlnLp3Dw27S4/weIeQD6l/hat4/2AgXIRuUA1CtdZf9BsAnevO4IC7NTTg2gb/UCC7k5du+I3O0KTLa3w/BfSxMSXiNCnqO1Y/wsAHg8MrB+hHJ+hMJ0J2+WAcOTsOuNL9H0l/j//SrwvUdZZ7++P2Le/xBxSx8QEMsACymdNunQ0NzDZgDMZYjfESfpuLDSTHja8lAv1XNnyoD2nxnZJCm+QWpsRlti7QBzTNZptUmy8CmJVvdRvqml35wfHFQNIAAAt9SURBVE9cfvNhHZELBITonjzz0dembXtdyb5jbnPTPpVv9UnyHOi1pisDndnivUeV39pIGpaipcu/2M+sHdZ3/Gej9+7WPa5wd4uravnClR34WDzkjart6mdrk/Wn/Z8tpby3ana6oj1HXPLQp0rfqd+lOqzu2fItl3vQEP1Qcfgz6TPzLbSNb49CP8vlO5aqHdBVNusPfUx+5iA0SXlPk24YZ6NfeAl0nI5+rW2o5MA7mDvQPTwAXkAUeMqMMncyGbOlrj+TNsd5slvj4/5b/P77n+XeyUx8mCMME+Zi/582w1zu/fR3bZ+N92KNf7ZAH8kxUgj0SHUsHAB9O0lA6so1F9APL5oGvGwRRZUCOjdaN9U6/ts78407m2IWZ8qWipp0k726ltWXrgzqJD91IvG2hZiU9qXL+zSeWXv4FtpInfQNv8P9x32+hcueR2mfvUtZ1MF/6rT7UcpYynfoB+sbazvtsb5ayrathLoZa+tD6z/+cxntpfsOm7Nh2rH8lJcu70I8MzpNR7/hdvBNNkeszaQ213kW7pOFaqOVsxT1W91xuviAM+7jpenjZQ/0jaECUsIMJsx8YuJZGuJ5Gv2+2OMfBvocec4n0TfJvkn0ZwP69Iv0MENeHQzop9LAl7LeDSRkfCt0zT1b8IzmDRyQWh7S+S7y2zvhORO+b89nS8MgwNrHPWvXbHme5j2+yfrE6rX2GSgJf4O9QzrX/ZnvWHmkUfKE8y+X3/YN4XFfqd/yNPsU2qLPMl1/bLNpfW3jQDqTbhfju6w+vsHaYPVYG0jt90z+E55Dlp92c9l/Ky+T1MpZqvozaXOcZ/51J+6j5dVHyx7oG8GEQYoxn6fBKK3+OF1awl2s8QfoY8CIEVIY6ONxZzbVnXRAH/sU2QwEQF9gPwDjKYCPNJUrAPq20NlCzH+7jObC/1kQbYE1KZu9N1tKv1keK8f+z/b+zHvksfooi4t3/koZM8tcyP/WHvqPi7K5R9+EL+7xLX+1bstnfWB9mElZf7XuhXgfXkk5qDPNBJ0r5RsWoh+yLcNoinL+yvpj83pmfugpyvxdiHaHx5nftIVyaYM9M/q2dpLyzC7et7yW3+ZbNm1c6vqzaXucd2kxQdz/0ft/2QN9Y5Q2qGHGYIuYPYvT6AO/UvpqscdfHgZCQB/f4l4vf1AGyDN19A3oy/VmP4bR+Ikel8GtAX0WzSkd/bnGxKv0hMeBfLb4sphy8f0z+yCcZ77fzBcrV+0KwLDdny8/z8P1Uwb3yM/9KPkX853wt82sJ/ws3I/cp/0GWGbmC//nPf6Tx8qw/uBe+N3l+pv2GjhdKW1eLn1pY23tCdNDlPXH+p1yKCNMd3bPyl6MNNxexn7mFa4z/Mzu00a7ZtKOlW3vZpsudf3Ztj/OP9daF99fatpYEUAfhsJljIAF2qRTS92Bcf2LO4lZZBZz/FNAf2TSe2cJvKqgmkP0u2hAf0LB0DzQ93QK0Jf/4DnVazzQt8XeFk2jcUvDUj97x/rD8qajQd61TQPvUa7ljwJULC8pecPjEaX+dG1biGe0iXLsm+wbaZs9s3pmvmP306X2jeF+oJx0eZbTMyT5tNf6YiW1fTn0Y5je6UMuaCHq+hN+18aAe3wb6kCL/Y3z0a89N7qwb7SUtvLMLtpr32F5svmGpa4/m7bHeRd37Y/7d+H6d0UAfQYcpgKDMQmJMZuYGBaOGJZjX4YXgsUY/zDQx6gW/7omtcenvn73T7k2s2dTEn0fDImox1NAH3d3FhglGB9c6HEFwN+eh7+PZ0bXpPYMmje6J+WZgQUrb67UDHCtPCt/rvdn3rf6yGdtsHcWYqG3sjJNwwDEyuAe/cNFH3LRfnuX31H7wb6R92eWFXUMrF1LkTL+jBt1016+x+gqvIlcirathDqtr+g3aMDmQFT6sb7nWynL8vPfaGsx+8HqmIt+rX1GG9au8H/yhr/X/lvZ2bR/qevPpu1x3r839vg7je+yB/q2mMJcYCz8t3t/p4GIv2V2pmFjvVjjD9DHW07HyGN5z8FdprnQxDDX/BaH0ymwPywf1R39k+5VwHeBjzqIl52ZxrgC+bMA/ZkLKHQQpnFbTLkXBmbcNxCSjnZ4Lyx95L8t1OHy0pVB3eTj4vdfzZ+u7IV4Zu2hLGsnv7lPe+231WXv867dmysNl8c79p8yovT/XOU+rfvhb7TftJv22/+n1ZaVWE+Yfugv/tu9KN8T7mPLH74XpYxs3qGt4fr4zRWmX3sOXYRp2miE1H5beXYvm7ZZ3qWu39oRp7OvwXG/rPx+WfZAPyaylU9ky3kMCcxDBM62IIIekZQJIALgv9U3/OeIhITXHvRRCdkItPWOu86RP+SL/8W8IHhToVfbUWhzU92ZQ6K/nPsmbls892IaiGkgpoGYBmIaWNk0EAN9A2JxOq908+842YkG+2p5rSL8tQ9PKlT2naFJd72HyHne0PYmkVFldMv/iVSIc8Kc3xp+4q71jCrSINGhCTG+Kq/SrS2pd6sKQsaaMdB/Junr7zhn4m9a2Yt+PH7x+MU08GzRQAz0Y4D/TAOwl0qq3Qv55Qrj/VJ+iQJfvZyTUAhvQsmvyy9VuG5ccNrl75W69fmluvd6aY3Cl7+iAFd1bl1ym3s+34N9MdREpcKgry36s45+zHCfLYYbj3c83jENxDQQ00BMA0+TBmKgHwP9Zxrom37omoKkVHjWFVW41xNV7pXCMrc+UeleKUy6lwsrp13cs2ttXqlbm5/0vvHRmy+qkSSfdHVhtTfAjYH+M01jT5Ohx3XFACKmgZgGYhqIaSBMAzHQj4H+Mw3CAOSAfdwQriutdWtyyxxBtNbklrh1iWr3Iu4b/3RVuBcLKyTFX19co03AmsCjxstlW2WISyrVnUBlB2n+nyT6RXXPdN+HGVH8O16YYhqIaSCmgZgGYhpYeBqIgX4M9J9psAnQ53o+t1zeaVDjeaWoSiAf8L42UTfterE48CldjIedKr0LgF9X1iCPFejmI8mXNL+4bg6JvvfKsyYG+s807cUL2sIvaHGfxn0a00BMAzENTKeBGOjHQP+ZBltrShrcc7mVbn35NvdScb1bnZd068salPIf49oXCmtT16pgY/BCkXc5p41BSY17LqfMu3MsbXD/yKuQnv5sqjtrcdFYaFFxY4l+zJCnM+S4P+L+iGkgpoGYBmIaWEgaiIF+DPSfaaC/OlHnkKwLlBfVel17+UuvE8jnmZ4n6hzvrk7U6lqTqHZcLxdXSyUH1R98TLMR4LKAWOY/31R3YqAfM/CFZOBxWTE9xTQQ00BMAzENpKOBBQD6Jp3MNM12gDKt1/LF9acjkPmfWT9mmsb9P38fp+ujTPvd8qUrO8ozKyfTNEod6d7JtF7Ll67sKM+snEzTKHWkeyfTei1furKjPLNyMk2j1JHunUzrtXzpyo7yzMrJNI1SR7p3Mq3X8qUrO8ozKyfTNEod6d7JtF7Ll67sKM+snEzTKHWkeyfTei1furKjPLNyMk2j1JHunUzrtXzpyo7yzMrJNI1SR/bvxEA/a4l+pgNs+bIdRCsn0zSuPwba2dBApnRn+bKpm7xWTqZpXH9M/9nQQKZ0Z/myqTum/3j+Gx1lmsb0t7L5X7Txi4F+DPSzVN3JlMFYvmiEOvdktHIyTeP65+7bKH2Tab9bvih1pHvHysk0TVd2lGeZ1mv5otSR7h0rJ9M0XdlRnmVar+WLUke6d6ycTNN0ZUd5lmm9li9KHenesXIyTdOVHeVZpvVavih1pHvHysk0TVd2lGeZ1mv5otSR7h0rJ9M0XdlRnmVar+WLUke6d6ycTNN0ZUd5lmm9li9KHdm/EwP9GOjHQD8rGrAJm2ma7STOtF7LF9cfb3SyoQGjo0zTbOomb6b1Wr64/pj+s6EBo6NM02zqjuk/nv/R6Of/AVn5vV/JR7NUAAAAAElFTkSuQmCC;" vertex="1" parent="1">
          <mxGeometry x="160" y="175.98" width="480" height="32.75" as="geometry" />
        </mxCell>
        <mxCell id="9-wRL0ShnZCnjAdU2LTs-11" value="" style="endArrow=none;dashed=1;html=1;dashPattern=1 3;strokeWidth=2;fontSize=15;" edge="1" parent="1">
          <mxGeometry width="50" height="50" relative="1" as="geometry">
            <mxPoint x="320" y="329" as="sourcePoint" />
            <mxPoint x="320" y="281" as="targetPoint" />
          </mxGeometry>
        </mxCell>
        <mxCell id="9-wRL0ShnZCnjAdU2LTs-12" value="VXLAN header" style="text;html=1;strokeColor=none;fillColor=none;align=center;verticalAlign=middle;whiteSpace=wrap;rounded=0;fontSize=15;" vertex="1" parent="1">
          <mxGeometry x="330" y="280" width="70" height="50" as="geometry" />
        </mxCell>
        <mxCell id="9-wRL0ShnZCnjAdU2LTs-13" value="" style="endArrow=none;dashed=1;html=1;dashPattern=1 3;strokeWidth=2;fontSize=15;" edge="1" parent="1">
          <mxGeometry width="50" height="50" relative="1" as="geometry">
            <mxPoint x="240" y="330" as="sourcePoint" />
            <mxPoint x="240" y="280" as="targetPoint" />
          </mxGeometry>
        </mxCell>
        <mxCell id="9-wRL0ShnZCnjAdU2LTs-14" value="UDP header" style="text;html=1;strokeColor=none;fillColor=none;align=center;verticalAlign=middle;whiteSpace=wrap;rounded=0;fontSize=15;" vertex="1" parent="1">
          <mxGeometry x="240" y="285" width="80" height="35" as="geometry" />
        </mxCell>
        <mxCell id="9-wRL0ShnZCnjAdU2LTs-15" value="" style="endArrow=none;dashed=1;html=1;dashPattern=1 3;strokeWidth=2;fontSize=15;" edge="1" parent="1">
          <mxGeometry width="50" height="50" relative="1" as="geometry">
            <mxPoint x="160" y="330" as="sourcePoint" />
            <mxPoint x="160" y="280" as="targetPoint" />
          </mxGeometry>
        </mxCell>
        <mxCell id="9-wRL0ShnZCnjAdU2LTs-21" style="edgeStyle=orthogonalEdgeStyle;rounded=0;orthogonalLoop=1;jettySize=auto;html=1;entryX=0.1;entryY=0.5;entryDx=0;entryDy=0;entryPerimeter=0;fontSize=15;" edge="1" parent="1" source="9-wRL0ShnZCnjAdU2LTs-16" target="9-wRL0ShnZCnjAdU2LTs-18">
          <mxGeometry relative="1" as="geometry">
            <Array as="points">
              <mxPoint x="200" y="420" />
            </Array>
          </mxGeometry>
        </mxCell>
        <mxCell id="9-wRL0ShnZCnjAdU2LTs-16" value="目的主机IP" style="text;html=1;strokeColor=#82b366;fillColor=#d5e8d4;align=center;verticalAlign=middle;whiteSpace=wrap;rounded=0;fontSize=15;" vertex="1" parent="1">
          <mxGeometry x="160" y="280" width="80" height="50" as="geometry" />
        </mxCell>
        <mxCell id="9-wRL0ShnZCnjAdU2LTs-18" value="" style="shape=curlyBracket;whiteSpace=wrap;html=1;rounded=1;fontSize=15;" vertex="1" parent="1">
          <mxGeometry x="260" y="360" width="20" height="120" as="geometry" />
        </mxCell>
        <mxCell id="9-wRL0ShnZCnjAdU2LTs-25" value="1、flanneld维护FDB" style="text;html=1;strokeColor=none;fillColor=none;align=center;verticalAlign=middle;whiteSpace=wrap;rounded=0;fontSize=15;" vertex="1" parent="1">
          <mxGeometry x="230" y="340" width="240" height="50" as="geometry" />
        </mxCell>
        <mxCell id="9-wRL0ShnZCnjAdU2LTs-26" value="2、flannel.1设备依据FDB进行转发" style="text;html=1;strokeColor=none;fillColor=none;align=center;verticalAlign=middle;whiteSpace=wrap;rounded=0;fontSize=15;" vertex="1" parent="1">
          <mxGeometry x="280" y="450" width="240" height="50" as="geometry" />
        </mxCell>
        <mxCell id="9-wRL0ShnZCnjAdU2LTs-27" value="" style="shape=image;verticalLabelPosition=bottom;labelBackgroundColor=#ffffff;verticalAlign=top;aspect=fixed;imageAspect=0;image=data:image/png,iVBORw0KGgoAAAANSUhEUgAABAYAAABKCAYAAAAoj1bdAAAgAElEQVR4Aey9Z3sUx7b+/X/xnL0dyNlhO4HizCiMssg555yzAZNzRgmJYJKyEAJs73M+53qu3129RsNYWBiZvcH0i756pqenu2rVinetWvX/xhRXWXzENIh5IOaBmAdiHoh5IOaBmAdiHoh5IOaBmAdiHoh54OPkgf8XD/zHOfDxuMfjHvNAzAMxD8Q8EPNAzAMxD8Q8EPNAzAMxD8Q8AA/EwECcMRFnjMQ8EPNAzAMxD8Q8EPNAzAMxD8Q8EPNAzAMxD3zEPBADAx/x4MfoYIwOxjwQ80DMAzEPxDwQ80DMAzEPxDwQ80DMAzEPxMBADAzEyGDMAzEPxDwQ80DMAzEPxDwQ80DMAzEPxDwQ88BHzAMxMPARD36MDMbIYMwDMQ/EPBDzQMwDMQ/EPBDzQMwDMQ/EPBDzQAwMxMBAjAzGPBDzQMwDMQ/EPBDzQMwDMQ/EPBDzQMwDMQ98xDwQAwMf8eDHyGCMDMY8EPNAzAMxD8Q8EPNAzAMxD8Q8EPNAzAMxD8TAQAwMxMhgzAMxD8Q8EPNAzAMxD8Q8EPNAzAMxD8Q8EPPAR8wDMTDwEQ9+jAzGyGDMAzEPxDwQ80DMAzEPxDwQ80DMAzEPxDwQ80AMDMTAQIwMxjwQ80DMAzEPxDwQ80DMAzEPxDwQ80DMAzEPfMQ8EAMDH/Hgx8hgjAzGPBDzQMwDMQ/EPBDzQMwDMQ/EPBDzQMwDMQ/EwEAMDMTIYMwDMQ/EPBDzQMwDMQ/EPBDzQMwDMQ/EPBDzwEfMAzEw8BEPfowMxshgzAMxD8Q8EPNAzAMxD8Q8EPNAzAMxD8Q8EPNADAzEwECMDMY8EPNAzAMxD8Q8EPNAzAMxD8Q8EPNAzAMxD3zEPBADAx/x4MfIYIwMxjwQ80DMAzEPxDwQ80DMAzEPxDwQ80DMAzEPxMBADAzEyGDMAzEPfOQ8MLa4yv7ocGfh82SVZR9+/WM5j05UWfbx5v2usTHFg8foRI1xvPn/Y2clplXMAzEPfNg8kGtjfDxzr+d+9/uybQ+f/Xp8jmnx3+AB59Pcdw/6CMHOf15UZWOStTa6OBxjEnX2eWG1fZ6oeeVwv8DP+Ayji6ptbKLaRhdV6sznUUXlNro4PWL+9/bnnmNg4CMPCHIZOv4eK9iYBz4+Hsg1DLnfnScweNnOmV//WM6DBj8ABG/e70FQQMY+BgZG7NS8Oe0/PnmOaROP+fvIA6+zK7nXc797Xz52++N0iM/vh3w7n+aOh/sJY1N19kl+2iaUzRIwwOeJpbPts8JKG5+aaZ8VV9uo4urMmc8AAX7m86Sy2fZpXpmAgUllM+2z/HKbWFYrcCD3vX/2u7c/9xwDAzEwEDtoMQ/EPBDzgHgg10D4dzc4bvAcHPDr8Xk4R+VVYGAwe2C4/8W/x7wV80DMA38PHnB74ufccfXruWe/L7Y/fw8+8PH8u5+Z5ef4ZEapjUvW2OcFaRtXXGvjU7U2tqjGxiRDNoCfyQYYlwjXOI8pqtQxsaTOPssrk48GMMDBvSOlX66c+fcYGIgDghEz10iZM/5/rOxjHng/eMANQ+7Zx8cdMz/79fg83PjFwEDMI8PxSPx7zCN/bx54nV3xcc/93b/77253/OzX4/Pfm28+1PEdVVihAH5CSZ0R3H+eX27ji6psdF6pTWQpYVE66wAESNu4wsHz+GSNlniOLqywUQVp4znQgsyBGBiIg/c4eI95IOaBmAeG4IHXBZxven1oh8IdMj9/qIb5fWs3swTZx/vWvrg9Q8tDTJeYLjEPjJwH3J74+XU09d/9/Lr74usjH5OYhiOhoftZQz9jbHFFJvAfW1BuExNVNjlRbeMLy2xCYYWNLwIo8CN89+uc+c/4ogr9j/8CDpA54JkI72rs4oyBONgYItgYmsnfFRPGz43pHfPA2/KAG6a3PQ/9XnfI/ByPz9B0+rN0yQYFlEoY25/Y/sQ8EPPAR8IDbk/8/Dr96b/7+XX3xdf/GrsU0/Ft6eh+1+//D++OS1TamPwym5QMYMDkZKWNm5GwackKm5ifsomFKZtYUJJzlNnEgnCMKygVkOCgApkDZB5Qc+CvyBh43bjHwEBWpejBdZ8+2G9y/j1DvI7Y7+f1N+njH93zofc/bv/7yZfxuLzZuPyRbA7/25umZLqDlnt+szb+fccypt/fd2w/dt6O+x/z9l/NA7n2Y+T6c3gb98d+fTzGf/UYf1zPy+W/wE9kCnCMLiy1qaU1dr2j35q6B6y5e8Budw/YzUfd1tL1zJq6+qypqz/n4Poza+p8bi29v9i1R70hy6CIZ1ap5gAFCSlM+K5oHQMDMTDwyjZaf6xEc4WA77FijWkQ88B/jweGksk3vzZyx+zjHvuYfh/3+P/35D6me0z7D48HYmDgwxuzWM7+aMxyfa1wrwMDExMVNja/xBo6Cf6fWcOTXmvrHrC27n5r7eizlu6n1tr19JUzgEE4Bqyxs1/gAEsPxlGfIEldAgoaAgq8u/hrWGAge+/E3HUNfKfSIgUW/D7OMBLXPwSGgsDjknU2NlFrowqroj0ja0V0vvPbZ/kVOvOZ+7nXB4Z0DvpPX/mc3X///K7poEqXFKnwapbRmFD5crh3D9d/pwlMyGf6zvFpXlo0Ge75w/2eTaNsPoJ/3jRVhmf4kf2+N/1/9n/+6s8+Jt4W2un95F3Z/cztg/9nJG36K97PM2gzh7fX+5D9/KE+0yfa733ze7jGM0bSN38GfM6R/TxkgnfxXn+nt2Gk73yf/u/0pU25n7P7zu/Z9HB6Zd8D/bjH+5dNz1yHzr/7vX/XM3wErUjhc7Qe48xaP1UNjmQYWiEb0JNzNu1Ee+g/xDFSuvE+jqGe87rrQ937ttfo58cuf6+j8+uuZ9M6+x5oyXdk0PVs9r3v4jPv4bneDr77tVweHur9rlP8/9zD//y/PIvf/OC69y/7P/577nmod/6V17LbQNv47u3jPNJ38Qw/eBbP9/fwHfr4e7zv/k6/7t8/xDPV0ymU5vxAUOPV1tGpTm/66rzh/cz8Zwi96brU/XD809zP7tvit35eUKljfKreOPDpOfu74vMfBb/xb6/nDwcGXqWRAwPUD5hQVK5sATIDAAFut/daW1ev3enosdudPdba+er5dmefcTR39ltz5zNr7nphkwrLbWK0QwHyA2+PpnjhO5qYHRYYwOjzcgSYsysrzig1F15XcHx3BYdT9a4a/lc914N9FAufsxVMtqJxMAAlg0Lxe7Npw2cUITSAHk67v6qtQz1nYmm93sc7obcrWtrhYzbU//zacP0PyhPjFcASMSRMWVRtE0pmjnh84aPsw/mIttMHb+cfnb2fPAea8wyuvQ/8x7j4QR+8r7Qve8y8f36v98mvv+3Zn8f5bd5PO7zN3gZvG3T2a687c4+PKc/hPtrCM97k/697rl/39jnv+3Xe5b9x9nd6G7gv+7P/70M70wcfW3jf+02fvd/ep2ydAL38Xn53WeFZPl7+P87uiOWes+/5O352muLQeoVgIfYExNH2Q85n0A06Zo+H0ySXbv7df3/bM2PoB+3g/Rzeprd97pv+z9/j7/T/OW/5+e8sfyOhv//Xzy570PVN7Z/T/G3OvIf/cWaM/ODam/gv/j/O9MF1un/nmstD9m/+Tu83Z38W9/P9Td7/Nn3O/k/2+/n8V9Pf6ek08Pd5X3Plxu/n9+x2fsifoSn9VN+jVGh0J4f3k9/pI/33Mcjus+vL352jCT38dnxV99PdT+U619xf9+uDE16vBnTZ74w/x7QZngfeEBjoeaZA34GBu50BGAAUGOp4BRzoHsgCBsKExKji/zIwgOD6AZGyFZsrNRdkhJp7+e7Xhifsf5f5aKcrJ9rvxphtIbjuCo1++H1OA+7nuveb69l9d2X3LmnAu72N/m7vE+0Z7t1+r/cjt/9+nfdwrz/Tz8M9f7jfabvTMftdfB7KMWAMsg//r7fN6eFjNdz73/XvHljQHtrG4W1zGvpvtIV+eF/8vpG0caTv9zbQVg6+c/j34drGvd7n7H75M4b7/3C/8xzugY/oq/MMgBm/8d3bwH1O89zPw73nff0d9BhnyWdh2A6Hz5NK6zPX+R0nzIPbCalazXhzjc8c/KbtdCIHjjEbqs+5jtlQ9/ytrmEDACjh+Sw6O70npNh3eBA04B6/lxmx/wQtXAaQL+yWy/zrxvCvbJO/+2OVP2jpNHgb+v9Z+/dXjl32s9CLtN91NLxD27LvGeoz93PdaeD38LxcPnTd7HyZa0N4Fvf4M9/k/f6+tz2/a/o7DaAP/eZwWrkt8t/oA33n4De/72379r78j35waLzxl6NsK22/NkL74zR0euG/8hn7T//9vU5XHwO+/13o+76Mc9yOV2NZsgYyGQPZwEBHt93t7La7HV0ZUIDsgewjZBFEWQPvKzCAcsPhcCFEqGACDyL5jILl4B7//UNgFFfUtNsP2s11Kj/y2ZWI941+olS47n11hZOtbLj2n6IBbeNdvD+7T8O9P/ve1/WfZ9BnzvTX78se/+He87rfXYHzfNriz+b+bFr6/7mWfXi/s//vzrH/5795hkbZfODjQ5tou/OP98nbynenuV97m/NI3+/t8/Zmt9N5x68NdeZ/Pjb+DOehbLq8Td/8ec4DfOeZ2X3ObT/30M7sM58/1IOg1QN/BwkI+LnGtjZcwwHzVHgPbrnuwa2f+Q1aQp/X8Z7u4b7o+FDp9qbtdnoBnkBDaOXXAu1DkSGu8d1pDzgA3d/0PSO5j/GC712eGMNsmRjJs4f7b+67Pjb5gz4jof+ftX/Djcef/d3b7jqa77lj+kfPZLz9P+ha17dcdx3C79kHz/N3ZN/vz+J37vf//9H7R/rbu6Z/ti3yftFPPkMD77/Tx/vzn+q/v+9dnemH95N+u/5ET0o/Zi0tkE35k/YH+tJ26Mh7/DPn7MrtvNvbkd2md9Xv+Lkfrk/1V40d/MxWg76UgKUBrV291tb+ZsAANQiau/pUsHBSYalNKK7U1ofw8X89YwDBc6PB2RUdjXME2JUawunXuPc/odhHOojjk8zwpO3z/FKdmQHi++jCcptUWqvKktzDrBAIkP/G94klIUWKNtD3bOUEfQhQR9q+4f6f/c7sdnCdcRnu/2/Sf+hAf0cVlIkG2bQY7vnD/e68w33QjON1//F7s/vlfOjIvP+Xe94H/qNdfjAmtM/7obZmzUSiSLTuDiMWzfLKWEZB2FCfvb+vO/u7Ob/N+zHeBDya/YSfstorI58FqPn4ZZ+RAedRHxMfs9e1+c9chya0ibZkOxp8Zgbc240jwj18d9rqtw8YFIBOvpYN2URnuTyjp5BbzlzjN5dbdB2f+W1cYaWO8UVVNjqv3KaUzxKdhhsD58Xh7nvffx+ueCA8Ax+5IzuhuNo4oBe0G50XDDZGW3sOR3zmcpLbf3+fn3N//7PfkSnky8FQvnvg4fL+Z5/5Z+7/2OVvpPTn/xzQ3PXmn6H/X3Ev74VXXE97W96Ef/x//Od1feH5/OZ8yXful48YZeMgZxyuV/gMGOffX3ceaf9f1+aRPtf/P1L7+7p++3V/z/t6ZqyhAWfGm3F18JQ+jNT+DGf/3O5h69wWcua6rn3g9v99HfePtV3Zdh3+flNgwJcTeNaAvg8DDHz+l9QY8KUQr57fuMYAgu1OvhR61hpVV/gYCT5zcP+bGJb/NgOhWAADOHvgiyPtCgcFgiPt17IVje6PAiM3MPSbPjkd3nX/GAve6e/nvVzjvVwb7v1v0v/sPqNMCSq4piBkhIqVNsInGA/aStuz+cfpOVQ/+M37zzN4Fv/lXjfIQ/3vP33N28WZNnuf1Hf4BeeQdkcBLobTA1l3AF53fpO+jOT9GHICIw+O+O7tpY3Dvd/lwPvNeKnfbwhcDfd8D8Dc2fD2ct1/g7Zc5/DP9Ef3jJB/h23fO36+yyEyiT5y+XT9xTUATNdfLrv+uwe5k5K1wUmLnHPX5a/rn/Pj637/UK5nG/Kh2gy/0FfPzBhbUGHQCmAggANpm5iIHIDikCXgAY1kOmf8/X1+Huqdf+YaspR7/Jn/j/jeCCj8aOVvhPR3Xfg6+zfi8cnhv9zn+XvR07TF9TSf3Y/I/U/2d/8f15wP/Xf/ji5xm+fP539MMuXaOdfTyJzrb9c1Q539XW97po1/5H+87XOz/8c7nE7ef37Xu7PsKf2l/9Akly5D9V00GmZ8s9vx3/js407/1edC/O2wlI3+jtT+vIn9wyZi/7jX7xcoAFjwntMvbt+HlXmQbdeDzOZmDDwdMmNgSGCgsyfKGHhmuRkDnxVX238VGHDBdiUPo7qi5xq/I/R+H8qezxicT2aUvveCh4OMsgAcmFJeb9MqZtmMucsstWy9JZastR9mL5HDjUPtTrUrGZ0jGrjydzq4IXjXgu1Gzd/n3wFxXBn/URuG6//3sxbbpzNSr6Ct3n/++0fPfpPf4Bfug27OY85fHvTnPod7ObjP7+Ez9zlPcvalILn//09+px28z9vsbfRrCk4j59qdIs4y+tH11zkFb+IYjPT97qwQGJGajlF3w/4m7ydVkzGCF7OdUPr/JvzJfX900AacqOx2MutdumKzJZdusC+r5omWBGnc57T0z3/07A/ht3GFac1UT0pW27SyevuqYrblzV5qpUvXW8mSdfZD/aIwk11UodltEOzkojVWu26H1azdblUrt1nN6h1Wu26XpVdssU+mlyjzIiNPiSrD2H0ItHibNmYb8qH+7/xFBgp8T1ZFyZINolfV6u1Wu2a7Va/aapUrNlt62Ub7fHpKswTwlzJYIv719/j582SVcQz1zj97zXULZ+Tdjz/7nLe53+nzscofNBsJ/Yezf28zJn/mP0PxSnZ/hnsW/+d+t9lOD6573/wZ3MPhvsrkKDvJdXLuGZ7KvZb73Z/9tmdvY7bseF/eBBgZ7r3QgXucpnzOvkYfvZ/vwv4P1753/Tt95YCW2H90YsnyTVa1bqdVr981cvsTzf67//5F5WybPmep/Pfk0nXy5X3CDzDAgXJ8V/z5d93/+Pl/jY37UOjo9p32Bl31x8CAFxl0YCD3HJYSvIfAAAKdrSi/rJ5vFWt32Jwdh61u8z6r37LfajbusZlbD+jg8+zth6xq/S77qmbBey94KAeUxKyt++zcwx679fQ3u97zMnNesv8nm1zG7GKYKUex8B+CYwCExftP2OazN2zPtVadocsPc5ZngqB3zdCueDE8efNXaTxmbTtoiaUb3qgNw/V/2cETAk0cdSV7wpdbCHUdJnAbrv+p5Zts0b7jtuHUVVuw55jNmLcyswTD+S73Ge6I8Hty2Ub9b92Jy7Zw70+iAQYIunggmvv//+R3byvvRJZo19e1CyUfyw6dtu0XGmz3lRbbcbHRlh08ZYkl621y2cxMynuuI5T7fbi+/BXvJ8ghsJ5WMccqkf3th2zmlv02e9tB8Rs64HUH44MDSN9pCwc08M/DtX/Y36Nq8Z/OgC9DET0cj4tPntnNvn9b/vxVGSCDfuB8aSY3csiGff4I+ftdP58UdsCB2Zv32qVHfdbc/792o+uFNfT+qmP5/uMKVCenagQQAB7sPH/Tbna/tOudz+1W16/W3Pd/dqPrFzvZ2i76wGMue9mG7l335b/x/OH6B684EAb/kCWw83yDNfT+2653vrSG7l8yx4nmhwadR80oycz4eZ/8PX7+q4ABgqxvZy6x9JrtVrlup/Qn24MhY/7ud3r+yOVvpPQfzv6907GLbBL8g08H/0yfu0L2901B22/qF4v3Vh09bzsvN9uOS0229OApK8aOlc8SD/KsbP1PMI5txk9aeuCkbTp9zfZea7UtZ2/Ipvwwe1kA4aJsnVybl/19pPR51/T/K+xvdn9zP4+0//+J/0MDeEA2pbhKvs617l+MY6T2R8F9UdpmbtlrFx73WeOz/7Vr3S/sZt+vOvDf8e/x2/FbfRKQ818xsfWfoF/8jg8HXHD7zpgFWa2wCYUV2q6QrQfZlaCtvTdTfPC9BQYQjlcF5NW1BnROiGZBqU1JVdkPdXOtsbPfGjp6rKX7qTVRbbF3wBo7e3XcffqL3XzUo4IJ31fNs/EFlTaxOGwDyF6i41JVNroY9JDMglJte8d2IigPETMKHrxd3DuqKNQ5kIAk2aaBWawa+7yoysYkq+2zwrRNLJ+tggxjE3X2aR6zkzhHoNMEI3U2qqjGxpfMCrNfSYo3VOq/0wqStnjTTmvufmYNHU/t6pM+O936xA433rOjLY9s7o7DGmBm2sbll9vEghL7urTa9p29Yk0dT62p81dr7vrNWnt+scb2Z9bSFbal2HT0tI0vLLFxhWUCET4vKte7x5XUq528n+MfiQobRa0CljOk6FM0C19YbeMTdaLduIJqGz0D5GlwthbkFUd1YnHaJhaU2b/Ka+3awy5r6ui3293P7cdrLWJIHFvo+xnbtpTSf9L6QuBMkDS5sMQWbKb/A+r/9cd9drb1kR29dc+ONz2wOVv22ZSSgPT6TDZnN/R8pi2TymZrLEcl6+wf+RU2umS2fVpcp/d+VlBl40vrwgxafolNTVTad5Uz7eLdx9bUMWC3nvRbU98LHY3d/Xb81m37przGJheV2aiilI1LVdjYZKX6MzGv1Kbll9v06tl2rvWBNXW/sFsdz+x273Nr6Rmwps5eO36zyf5VVm1TispsUqJcARGGAMPEtjW+RSN0+ISZa7IrMBqMg8apwkYXl+m9gB+kYtNHyQL8VFRjY4tqdRAoTEzUKCWOtLhxxbU62CZHB/wKal7Meu60Ldt12G53v7S2rpfW2v7cGjto83NrbO8T73A+23zPShcst0n5ZTauoNQmsEUmwXlBlZ4NX9Ae0T5VbZ+QKlc+20gvcvqPi/ifd4d0vXKbkJ+yZTv32+2efmvt7raWzk5r6Oy3xi54nyIn4Xymhfcvs0kFJTahqNTGF5bZxESFTSutsdaB3/Qf5L+1b8BudvVbS+8La+jqVdpTY0eX3et7pndQbOXw1Ubtv8pabPqAgyBgIOL1scUY6GCkg8y7Qg1n6DkhyQ4DzEqFLJhswGdcSbVkhjGUPigqs+oV6+1We7d4unDhGhuXrBfdmO2dnKxUf2gL48Nz4YNs3uZzMMY1StdCdj5N1NjoVL19Kp1Tq/FELzlI6Fk0DprRRm2JhLwl64P+SYXtPVlXOaE4bZMSr8+4yXYAkWGWPtAub6eP/5SCElu4aafGr7Hzqd140munW+7bsca7dqLlZ5u37YCK1rgjBC8Dgm46fcXWHDtnW46dtsuSw3471XTXJkf6OQChgTbQlX6PTdVJBuAn1WRBdxWnbUwiyGf4T5jlo72f53G93kYX14ovPymssnEltfZpQbmNTfI/ZLJOe0pDR2+jwNdUmGXTrDo6M8n/KqRHQs2LcqXwozP/mVdqo8uqbUxptfQEvIZMjs2vkkyg9xjDMcVhCQDyBM+NKcpaepGsDP2I7I/Lr+sK+AGdN7Gs1mo27bKNZ67Y2hMXbP3Rk3b5/hNr7Ryw0zfv2vhkoAm6HT4fX1ijA70bjuDkDI5vsL/+PfDdoCMknSMQC/0TqhyPLSiV3v+hbr5tOnPWbnY9tTtdA3a3Y8AOn79l4/PC8pEQ3KGrBjNlMo4LvMe4jVD+4HP4k37TrjHFJVa5cr01P+q3to4Xlpi/SryLjR6dqrNPy2rs05Jq8YB4OSNrAYxyeXT7/lkS2YvSJpO1kvXwviplyOw9d8l2nb1kZUtXSaaQSWg4vnSm+MUBLngT/pLu0RiH7Xd/T/dX/R+exX/4/6v0L5MvtOXUFenDtu4+7U29/9J1GxvRH31NkSjsn7b2zS+zCXkJ+yJRat9Uzbaz9zrtZteAXe/ot5a+57JhTV19duJWs31TXmWTi0ulf6ldgf0QmJqqszGShXL5C+4n/b4fgYfQc6EIaVQjKb9ElbLxG2bMXGjbTl+W3m/t7LK29k47fOVGpO+rbFR+pWT+0/xK9WFqerbaP1WFsNK2cM8xa+3ot7vdz60N/+FRt7X2PLemrmd2q+OprTzwUyYYQ6bJasKefJuus12nz8teYH+4H9uN74Sj3NbdbxsPHZf9wbcZk5+WL4Q/NyYx0z4rqLFRRXU2ujjsvCIZyQC4r44fYye5lQ0vszEFSZuUSts3VfV27t6jEdN/dKLCwhEyqzLy5e3J2N/gPy7deciae15qb3Js/5vYf3xoZRYUBv8CeUYGONCP/k7xAH5upHM4jymstonyBYL95F50JtmUyAb+s3ROAhlmzX9a9gK/Bv2JPE4omaXxlx73bdIy+iP8T7zpvrtkOowD+jNseR2KAQIWMYmA/lx38qJt/Om0Xbr32G6399u5hkH7I3+J5cvYjPyg92krfiA8PwZZKq7M+K/4L4P270Gwf80PbcGOQwLGoZXsumeheHZVNH7owqAPo3go+o59Y3w/wz6xJK90sGYSY4Lf+CntoV2pKvu8sEzP4T7sJj4Z9ufzQsCRkFkjPyRVpaJ0xCVjEhR2D/oIO8jh8oweRIdge/mcsQ+RPoM2jBNp5fh++CjYOXwezuhdxht7pP7nBZv0OTFBslZ9Ek+g5yi4Tl+orZa1pAUZov/QHx6B9tKzSWKYkdn/ScV1im14H/bKx5blebT3U5ZIls+U/0X/4Gf4X+OFzfb6bpFv5PQLdAq0g8afFmFDaiMa4pMFPsKXxk/hXfSf98v/0PKn2oz/x38ZJ8YUvY5enVY2yw6cvWR7Tl+ydGR/iB+QybFldbJx2EWKD8Kb+PYUH+S409trt7u67HbWdoXUF7jbHg4+U3wQfUhsht6E390OIJfBRxn0FTK84bpnBOf/54Zl8KE5ijVKwR2dl7Kx+SVWMGeRAgEU+Y1HHXbp5yd28f5ju/a4yy7efaTj6oNOu/Goz4pmL9N6TAiPcghOVnDARhWU2OiiVNS5wPAwoJwZCW8YJAYQMPFQiTMAACAASURBVCEEdUGRyelCSJK1GmAPNj7NA3AgiOB5tfa5DDKoda0EUw5uQQgQERj6/GVRiV2580jG8diNFptaUm1TU7X2WV5JZqYIpgEY4DrB6v4L1+3mo2673T1gJxoe2rIdR23Bpj22fMchu/6g06497LTbfS9t/dFTCqhwKgIjh70nGVSEkT4BCiCM/ywsl/BCA/WVNudV2Ji8SgECkxL1EggPCJTWymxWUblNKa6wjT+etNaeF9bSNWC3HvfamZb7Gi+tpS4OIEroP8htCCxR/lOLyzRmMB/9/yJVrWP09BKbjGKGGfNKAzgSpWKjEGkn9AsOfVgfD/0BPnDCESQCgTElM4OCzKewWb3aO6N2vl2+3243n/RaS9cLO3K1xVYdPGYHrzUawEBTVwAHvsLRT5TahFLW+JbapOIqm1ZUYQW1C+yCxmzAGrsCCLJm/1H78WqDwCoAqxMNrQJwJhYT1EbFI2UMgkC5YMlZJfApCPRH0cFvBC6fFaSkCOEFeEA0Rykk6qQcAAegYfbhBhxFz+GG2IGBxbsOCQi4+ajPTt24Y3vOXbfNR87atuPn7ELrAzlWtx73iD55dQsC8APwgANeUCXFyPsxHApuk5UhMC6utE/yA/1RhBhxgLhM0FtQrmetPnDEbvc+sxuPntipxmbbc+6qAWJtPXHWzrc9kHN68wnvf2J5dfP0H+QegOtfVbPtdNsju/Kg0y4/aJdBv/Sw087ff2JXHnbYtYftduX+A7ty54G19j7TOC7attfGA6ogd5mgKwB6wSD9MTCAc6p+R0G8jEdkRAQQYMABXyKHedSMpJUuXGFtfQNyOEn7/iy/UuCCAJLCsmCQlb0ReMEDJ/F1VOvB9aGqv6bq7Z8FlTYhPVc0lp4qKrfxJWEGAh2KHAAKYDjhVQydwLNUnX2CHCeCQ89/GUuMK3T19+Se3TFgjKEbcs8h/orWovJ5cn7Krv3cIf115FqjTU2k7cuSKjn36AZ4HxmWQY9SKWkfxg+QYFqi3HaeOG+g2egMAAuMvgy0nOpKyTT0RX/QlskpQIpIL5dU636+87wgK9Fa+8g5of9yWFibj8NUiGNRGgC/RCjOyftoI8EbeuKfM5IBfAE8zU/bmJJ6OUcCXCJ+om/QTY5PKjgpn0xP2hflM+VMAg6gj/6/GeU2LgIuqQ9AnQAC4tGF6LXIzrCkLOq76zYML+AOZ7c/2CN3Ihn/qSUVtuPkebvd8cwutjyyCSnkMegSOVcjBAagN1tPMl4CnfJLrHTpWtt84oK19P9mTc9f2OVHndbWOWBtT/rtxwsNNskdHMBvAOERAAPDyp9sQLXsHLzzWX6xpRatsHvdvwr4LF28TjwBLf5ZUCEg/H+K05pNBiALvBaCb/ib+2jzZwoGZsqxhvcC/4XlSNwHT7NshgmJW+29NnPDVpsE6JesipYwBgCc50FD+JOxZmzDAWA7WOxuUP5e9X/4P8uhfk//c9bS/4u1PPs/u/qwS87e7Y5uO3D5hgBsyQ+BQEm9fA/6Q7YOQHx+7Sy78HOnXW1/Zg09L+zQ9RZbc/CoHb7WYAADpI8ev9VsX5URPJQqoNaECv4R4G9xAFbwgwb5NwCpg/0YBAakb7wYaX6JlS1bJ/5p6vtFPHTjcbfd6e6x2x2ddvBSAAYIEAFlkXkmVACaofvE/KRNLkgIUGDGl8mRhie9duLmbdv+E3bsrB253mw8e/Xh0wJU0AvQn0wa/Iu9567qP8yenWp9aAu37rGFW3bb0m177dKdR3KgcaKxiQC56EqB4QQFDjTC08nhgYEA0FZIJ0P/8cWlAnQu/PzErrX3jJj+BI3oA2xZ9uHjEHivWvZvYlGlwJKW3l/s2qNeO9F4b1j7D3iMHpOtL6yWLRRYTlFjllJGwIC/D1nPBgYA1T+dToZGvWSKbA34X9kc6HefiIpsg2xFtOxMYHQyTLRhv+AB2QD81shGDPJfVEMgki/kBt8DHwTep31cwybKhidDkDM5WS792drxzC40Ddof6diiSptUXGMTi8Lkn8BFAtGiIP/w6KSClF19kGv/auRzMFMLGJWdwYVdBVimPdIDwwADTDwQ9ENnaIXM0X6eAX1oE2A3fBD8RkC0sIRatE3WynfAH0MXiA74bkwqFJTKT0Pf6YB2UVHEQFdvYwCVkXv+r3gnqvEFT03B5y6s1OQQPiDxjkA9Jkax/YAZAP7EC4VVmmzkfgJt/F7ZNooQoycj4B7gCL8WUFH6tmKW7sWPY6JQdpDYbIT2f2JRrRHb0C/aQf+R089+SGqcAWP+Ab0png3AVRAm4uA/yV5mZj7Sf1GRycB/jF2I/QBn4OF/5oVdwuS/4MMw8RQVOcWfcP8DPwL+gObSOZH/gxwF+1NtX1XMtZaOXumy2ZH9gc5MVAgcQAaKy+VvMul2O9qVoKWjOzMx98ECAzifCBNGN6DM85UWQfA7c80mG5uftCnF5fZFqlIFEvg8Pi+pe0HGUFSgVzjnMpIYf5R9EY5pCG5eMdyk+MCsCBzBe4TUM9AaqGjGEfQMFI3n4DBx0E4ZwcLqDFLqARoOnmY35FQHpYQT8V1ppTW3h9nSuRu2axA//z6ZmSWGCWif2pRfrtlIMgvu9L20gxeuS3GNzUvbtGSVTQU8iAJtkPBb3c9s+syFQdhRHJoxrRJN6IueC3KFQ1NSLeHVtcjZkuLPKtCDQnAHVf9P1ojmBEL3Bn6zHy/fEmCBk3+y8Y4AAxS9FDIZD8z8R9+lVIurNLMeZosHjP5PYlbl+2KbApqcXxYC8tIgPCgWKVWCm2j7SgJGlC8H9JchjpwXZm0QTBww+gLAgDI8ePmWELTWnudWt3KzMh7IrmB2f+mu/Zr9xNkgYB1VmAxBBMs3cAinp2z/uRvW9vQXzdRUrtxoEwANCkoU5KzYtU9ZA/Rp89HTNq4glQmMAv+4ox+yWALvBf6BH1AYGCXGBCH3IACDFsYv1NOAphNLZ8kRzSiZCHWETm54ZEhw0BMVNjU9U+u+q1dstu8rZttkkNfpCfuqtDbITH7Klmzfq/4zC3/sZpuNyQ9rvuUYRMExysmfH/ifYDNCQLWMIji9mqUiqMHZxhlI1Vhq0SpLL19r/0rX2Li84lfeT0bB4u37NNvD+4/cui15ABSTo5tfZlNL6+Ss4bBQEIWznNeiEhnpacUltuXoCWUUgZKSGcK48QzaAA297dDQ6Zs556Ccwakd3Cce/uL/nwJWpNAfYV9kHBBqCwDspRevioCJZ5ZYuFZAGL+LhvklCn4JAifgKEaBN2OofjKbXRD2rRe/RGg9hpRjUnpWMMzMJBBYYkyRa19ixPY0xSFIVtujMUP3yRhHqencg8zQl6EOZIkDmtFG5I4zhwx85Bh+n66TIw2/k/mD/v3k6+nSv2PyUpJhN3iMIU668znfmcHce+ay3en7xU4339Osr2iTioo1Rs4jBloOEDpgetjBxeVDsyRFLLFCZzPDF5wKdD9OChlb6AKMMkE8s+4AA58XJAJPSG5CYSgyU+B52sbzkR+cL58BhlYEygIF8lJymqERjgI6VKn8P6Rs/AycxxBEkW0AuMAz5NAxew9gWDYY0BLU8k4cA8mvZokrX6E778EecU9mvAtTtuv0RbvT/cLONz2QPQJcpJ/whjvp2KtwhPH28fXzUDzANRx5nuNt+7ZmvpaI3Ox+bhyn7j+0tT8eFzBAxoADA9AD/vbn+ns8eMnIWxTYZL7n8OPw8hfVUsgvsWlltTaprNJKl6yyu90vBAwUzF4moEcyglxUzbH/KQhZdMys4zghdwoemd0SQBTNiMoxYyYuOLgO2iKr8Ml3NXOtob1bYGbdmo2yLezEwRjL7ygOS4voO/+RLYxmxpTNo1mXXPl7FRj4Pf3nWkPvS7vV/VzHmbsdtv7wibANVVdvBhiARyaVzJL9A6jVpEheqU3KL7bDl69rprqx7zerWr05zNAXpmxKosyW7UT/9wjs2HTslI3JS6jdkgUKO0c8LTCU2V/XEznj5uOe3X5o+13tArvV84t453rnMzv/c7etO3RcoEBbV7eAAXQ6/oEAcDIzCUgBUQrKMzaWTAdAkWONbfZleU3IzMtP6kxm2Zfpeq3z5p3YH2XVFVZY5ZJ1mri41/PCjl26pbHnXYCYAJrQAIAa24EPlT97cfC9FFRiP8IMNOMn3+53/X91/JAd9Dg6TxMchSnbf+WWsmzI0hgp/aEzY+D0Huoc7G9auon6LuXLN4o+6Ofh7D/6FH3EM+iv9xv/i3dl5Dlqg/MD/M/BZA3ZnO77AgggH8gDehq5Z4zwxXkXAavbC+m7KGgl64UAKbw/AG0EiMghcsXBM11/iiaRDqXt6BFsl1/nXo6x+Qnbc/ay3e/9xc43Dtof+cPoz4IADijLLFUjmyDZSsJTVfZdRV3wF1+xf3mZLEX0ddhdrEr1c2gL7YB++HSvo5+P4z9mJAUMTCwHBAgz5eF5ADbRuEd2AZvA+9SvyBfG/8X2Z+wP8Q9jRfyjmCBkC2TreI9/Av3DOwBkOMTLqVrpS/nd1EfD30xUKCDV9puF1Ta1dKbq4UBH+oBtZrwn5JfbZAAbeACwXbFYWpNuACh8x/6jjx1YoW6OAJJorMfMKNU4/xX2f3wBWUTwdYVsODRhwoR3y7dLVRtZY//DpEgy6HNlA5JBXDpYpBOaS78XlEpfQGNoRR8FBkR+HHYo+FDl8gND9mYU35GJF/kfyIF0hnzWOvkhQY+E7GDxXvV8awZU7Xlu9asH7Y/AtyjjQfFRYbkmkVu7nimrrKW9y8jQAoj9YIEBBBomgugQ6/vaOdb69Be7+/w3q1q2xpiRBRwgsGM2neBC6e2R0UKRgNRgHP85I21T0nOFuGhWraA0zDBFDoGMURHpksEw8U4EDYFjUDJoI8o+yhhQuj4InZzEKjEFA49QoRg185AKBdBwKFGCejcGqzBt5fMWm/aX7Huh9G0QagmakKcQvEMDjAoz1uuOnLSWnueaoSudtzRUa0dofyhWgEv6Xy2plD3PlVkxe/Nu9Sc4kgGwUGp0NDMJ49AOhBaFAMOJqf33yLDJCNAnGYiQPo1zwAzh+TuP5EgkZy8ymI+D2XPAGjI9AE1w3jN79rLLAnSmEMz8pZrZbe17qf6T5o+Rpk06MCARLdxhFn0j5JKlFQT7Tn+UNsLHeIGCIiSkIH7yXbGCtm8r6u1WlDbPTCWpgmQ8kN43ekax0ieZLWjrfaFZcwQVowX9QUd/qJitLIPrj3ts+8kLaiv/n5assPEzEkZg2tjRI2eRpQrTSgNPoDi8TXJyotQtBa0oa5zUDP2DkkJBymGO0Mz/+T5pX1TNU1AKPTmYIYU+8FW2UWAM3SlhnHDUObiP96D86LuMQ0Gp2inZKUzZsRvNSu+/1v7UppYOFjGTcxnxPQGTFFVhSuAHDqSUakEIIN2oExCHcQiBObzAGJH2K0ce45T9/oISO3qjRaAW78f4u2PCuIMgMxZyBHDA80sEFDg4MLkwqdR0HLsDl25m+AJ6ALLBx0K8I17OBCQeoOQ4WdQO4L3IIO8WXTG6IPnQPa9MDhf3CIicnrTyBcszKVhF81fKoYIGFNbDYSXwBNUH0VeaLWh7pHMkF9FnOXQax1qbUDYrsy8y+sMNO/1hnOkbY8v/oQ3GFDrzfAAkjBpOPQ6aimIiUzhmOf31795Ppz3flf2jWQXS3UL2QPHMBZq1A5FOzVsqfTC5KK1lX54xgByL76LAl8+Sh8Jy+yKZFjDA8iPPGIDvw/0RDyeqtFyFAJ1gm1kcfof/HURQSnoBs5vBTkAHUoBB+JE36E/fcCagC9liU8tCBoICOZzTBOnh6NqgsyRP0ZICQAn4X3yEA5MPkFhhEwGcmV0mfa+gXDp6Yl65fVVaL6cSXiPb4BMHdkrrxTef5CXss6ISI8PEHWI/07cgyz7bHIEkOC8RAORyxIwXji1LCc7cuqdAlxkmZB57NVJgwPlLejVRaV9WzVFgd+VJn83fvt+mVlTbuIKkNT3qtftdL+zopSabjK3EiUVHeFZFFMBkHGGXt9xzDj8OJ3/wIWAMuodx84wBZgDJYiiev1y8ohmo0jqlpGqWLb/cpsFLAOMF2KNyI0vN7Q5jKZmOwMRPC8gwQYcQvASd9a/KWcoMwlbMWb/Vxs1I6f/IjGd1SQ8SGEZyCf+4biTQcnkbPL8aWObS/+vKWXar54WWHC7Yvl/ZKejtxscddrfnqR26ekt2inaS9sryl8npefY/35dIl35fUWNNT7qtoWfAWIYgxzFRYZOTaRs7o8imFKUEDLT2vbBL99ttSir4KcgZ+l6TIQo2omy0aFwH2/9qkIpuUhAU7awE/1BbBFAA/kG/035AgQf9z2z/hWvmjr8y01J1SiOHVpLPRLlduvtA9uHg9VbZZsl+MT4D6d1pzfahX6CzdChndOyMtG08fFbLBwGOymcuCgGrwMZUBmSuX7NZ4DTLC2dt2qWgRgGLfIoo09KXpP2u/6+On/sf/2Cyo6TW4Jmb7X1aArv91Pm/jP6ur3PHAR3ANc0is+QvyjIDVJ5SHgLrV+zvEPZffpcCTV+GGi07jQLb7Hd6OxwYwP9G/0IH+EB2KgK/lRHKhBqyhn8S6ULGEX2DTg3PDpNw8DD+DzZN/iqzya/ozzCTH2xHBGZEk1z0wW1WkMEw6TcllZb+vNP13M5HGQPyu6JxRbeTMYDeYuZbcsCsOsssC9NWNGuBQKRB+xcmMNFJyDxyGPoSwEbeLZuqSbrBTA+nodPPv48vrREggP7Bf8MuSP9gU7HtCXRfmESDnsQI/A6v0V/ZH5b+FFXZP2aUhXpLoi9bBqcjXyBM6tAfxoEjyFIERMP3pPErGzpkHDJmn36fsKnF5ZrMQwYd5MEPwlfm8Mw8MmWIbaYRx1FEWrFVAGeg5dREyJRGbhk/2sL/HRz4BN2eV2Jfls0M16OYYqT2n4wB2kvb0e/Yf2IJaEkbGHdm3wH34b+vK+fZ6OlhTPHDcv039A/0Ux+UfRb4n3gR/wE/Etphq4hTRQfqUxWVS/984e9nYpBJDu1oEeIY7BE+DTRBZtEl93oG7G5kf2g39zPmioGijG6WBCtboKPf7nX1De5K0Nn9IQEDg8oAZw7FjrA40+bPXijFerOj10Dpfb0jhIXxRoOwMZsXBWIYRtLJSSufWDbH/jmdmaUws4MQFc5bZot2HrRNJy7Y2h9P2ayNO7X2jUGD+Bgj3o0jJmODwsARx8kunWnVy9da5dI1VrlsrdWt3hIJlqeHBtRIAVqUojOtot7SKzYIKa5YscFW7t6vWXbS11ft/dHKl62zmet3Ce2maur0OculSGAg2rv7wjWlwHP/vwhYhRaSzlMdHNXClKUWLJVhY+328v3HQjqTZkkCiqvUmfy0UoCql68Til6zcpNVLtuo5QowrpRnFJAq3UfpSiFNhRkUEDyU1coDRzUepLOy9u9y28/2c/+v9tPNFhs3I6HZCOiGUkOIp1bOUv+rV2+2quUbbMXug0YqIev86H/F0nU2c8MOVTWncnnBgtUSPtojgCQK6BTwlNS9Qv+aNYH+bhjEN4lKKRQpy1SVkVrOMhTSJSsWLJVAMtaj8optWnm1rd73o2ZAmYEj86Fq1SY5j66olm4/qDX6gFMli1dISQEM0FdqP6zeezAzi0SfWO/Ku0ObcCpYpx6CU4K0mmUbRP/aFdB//e/oT/AIvVFQBCcYeGYbJ5XCj2nLW7DM5u86aBtOXrA1P56xmRt32/SZi8W3KAkZOdaoRUEUChBjJX4iBb6wNCigvIRm4MfnJ2zF3kNh7X7/b5IPAkLxWZJaEYH3ac/Ecvh/tVUuXWmVy9dY3epNomfob5Bj+kr9DZDTEJw5aBNoIKcA54VgDKOUl7QVew5rRotU5fw5y+SgYyhxDj04gxekJJkFRBkXAnSUCDnFqW3s7reZa7dIhjUzHjl1PEd9iQIS+sHhhnjwHBw8lDF8BL8B7GlGcHrKkGOycRZt22+bj12wxbuPWWL+GvsiWWGVLCXo7rfrj7qtYC6FQJnpCLOSn88osnHJMskPs+CF81bYoh2HlVqbq39cDuVMUdxz3krphbr12yNdVxwCfq1ZB9ALwAA1GZg1Q34q126zLyrnBgcBGYpmKgDpZGhyArHB/geaeP+hAQ4NIFvFmu1WtnKLjtV7DgvYZCkQ8ptestrq1m2zkiVrLL1ik7GriPM+z/IDHmRWgNRgX0qgjIHicvE4v3Mvuhojx3In5ED6OL9c41C/eY8t3nfEtpy9Iv09f9s+K1u6VqAEupJZC5wmnkOQwJmq0bSrcvUGZZpw/buZSyQ3646eswU7Dlh6+XrJvORHRaKimfPiKvuqeq5Vrtpi6BrAwAkz0vZdxXyr37DLtp68Yqv2HbPqJRttckEADRh3l1/kHWcCR5FsgTGpMiuat8QW7dxvm0+cy9gf5Bf5ZPwBQnBc4AGnB21mPNSnwpTtPHVBSwnONtyXTiDF0Xl6OGAgd7xdRv0cdFWVUVCQNnxdM0+FthhT9PrE0rRNLC41HOvbj/pUY2BilJX3JsDASOVv/vaDtuEn5O+wFS9YYRNLK6xk8Upr63putx50a9lDAESDvmHWf1rVbGV5fZ2qsfr1W23Z3iO24+xV237yksYAu0wADg8Gxyws7ULmmeHFJsAjczfuEgDI2vZtx84o+4ydISpXbbOqtbutbMU2LXshJZaxxIaIn6PlCkMDA6/qIviHg4Kw0P+b6nkq9InziROKbkb/UWOg+UmnUWMAsFm+CpmLydqwlKi4RgDKkm27pJvIJmT2mOfwf0Bxlg6s3ndIwAA1c/AfKlask8wpKIlmIWkPfOPnV3no1cAY/qGf8L7zT92m3fKnCPzIskJfMXPV0t4hYEBBBWvy80MqLRM76FDsSt3KtQI2mroHNA7YMwIGnoVs0W98NdqrdxLAs6ST+kiFVbbn3E1reNKvDJuvAXZTzMYF8IJn4LCzFOVae69qDq048FOQKcBK1jQTnEWz3PDGYN9Dvwczc0KGDn3HdiAvBIuAOazxh7ZlC1eMmP7ZywjFZ9FMvcsvs7zB/gYQSrohmnCgL8PZ//w5SwIgjC+oZZqk1YdA0XWM0wCd5Idfk89CEItvHgXUBDTjCfJKaqxu/U5btueY5G/rqUu25sdT8g8BkDT5If8nZFfCA5ppLkxrSQgAdNCfB1+xn+7/yGdT0JzW/9CfDm7Di9KnBcnMUoJzjfc0Hvi1AlXJiC1m5jr4CPhiUypmWsWarbIh2JFVew9rYmvQ/q2N7N863YP/zoQA/gr+A74HIInrcOcXp1cu/eA1ZS9QE6C0xr6qxn5tMPxnJtEALZJzV9uqfcflh8zfvMd+qJ4f6pElQkCJzWesyDb8x/SE+JcMT3Rl/vwVtnDnYdt0Iui+WRu3Z+If+WbJkFVNDKO4J6prBKBas3ar1a1Yb9+U19oXaYCPUi0TWnv4jHTpmgPHLb1mg+q+AB4XzFxglYtXW8m8FfZVul42d+Px8/L3pxSmbXJBuc2YtcgW7jxoO89ds+oVG20KExKydwF8JygeO71Ey7iq1+8Ysf0H2J9et8TQSdQ8WrjjQPDDowxh+AAeBhgR7xDEsyy5hIyRCvlvgX4eP0b0w78sCnyHzuc58Bx8XbV6a8Z/QPdNr1+guHPjkVPKmCWWZMKV3wAH5PMAyqdn6b+D9meH3aG2xcNgf2pXbVY2UHr1Nu26wS5PLJ2aWpi22+1Pre3JUwED1BG439Vj9z5kYMCFWcFGQblR8KgRo9Xdb7PWb5HBZU0IgQWEZMAwmFJ6IMXMtBVVa50ns24Ymy/KZ9vX6dl2ovFna376q93ofCYEnvS828/+rfV3gAUKVFCezFBG63cRbB2JGvuydlGYLevs1wwxa/1onyNGGBqESbMVpOongjBdbX+qwIf3sR69tee5UtMpmMM1EHWvmrpk/4mAfBembdQPKdt0/KyyAZgRnVEV0ophOBgIIIOMgbLFK5QtADJNxkAIjIIiBMnFWWSd6zfVCzI1AUjlvfpzt5hUCoEZUYKBREin5exBqpyVonLLX7jSLj/ptsuPuuyH6tly8kmt5GCNPYEaGR2f5SWl3DAOVeu2Wuh/KDoH0ooTQmq+95/xoLI5x+J9xyWQ7lDxbkfDvqkbnv6MAbwjBDS/1I43tCm74frDdi3jgGdwBihaNWP2Ain5xscU3nhmzU+e2tbjF/Q7Rh2E9ui128rYuP6k274oq5ITxgwHsx4F9fPFD7eedCmjA2Bgw7HTGcWG0iewDRkD1cYOG2RXND7qVSq16F/H9m6DW+vBsxhi1g1hGAAFplbU2NdV9Xas+Y41DPxm17oHjBk859+LP/co2CS4gOeEciu9GAc3fHfnBnABBTe5JMwaTShIGjMZ1zv6tP4RRe2KDSMGcgo4gKL8oma+NXV2C2RhDCk+SXFQKW9PyY1SmCkgxYETppSsaAbbAS8KiypbJj+lTAwKYlFx/dv6hXo/DhzvxzlQLYkoyMT4M770gayFIzeaBFQx24XDqwArKtyGo+gGjv6LLsMAAxozFLuMQb3989siKeq1R05b09NfraH9mbX1/5/d6vlNFY43HTlldcvWau3Xnf5frGzZBgFBbJ1KIDy2MCUjCkB2uOWhNff92250PJf+oV5FW/+vmqkjWAz6J1SlZwwISJlpQz4IwFlKQXql0iwTtQoi0QEcBMkUMr3RNaDtk0ifp+8yUJFj787IH53pv2aMotoEgJVXOqm6/G+73vNrAAWiAl7wO2t7eS+7DpCqTFVmdKeQdaXsh5kcgi6cZWoMMEtIfZITDW3KhHAwC92PA4W8U3zok/wyGccjN+/q+VR+buj/1a519Oudt/t+tRtPnmr9LDPFkkulmQZwGZAAZ4511QRGxXMWq4DZlScDaiv8hj1Ajnadv67sDoyyp4LiGpDTTgAAIABJREFUeDMG/J8ii0WzF9nq3SdU/JVxvPq4X8W8qFty4PxN+xfABHUPCtP2jxklAmXQrV+U19kX1fV25PZda3760m50UnS2R23Ktj+Br6tCcBmBJJpxiEABPlNjYO+5K5mMAeSZ4JegHLqNFBggDZisN/Qu8iObllUXYVRhwiYUlQiYoMbAscvNmkFCvgCUPXhwh5fvuvaGwNxw8oetvN3/f9GYPrd1x04pmG1p77f7fb9aYuFKzVr5rB1ONjNdCzbutsYHffIloH9b/7+toXPAbrb3q6Asa/CppcD/AohVZdPnLBavwR/IKvzW1vlUqZwUrqOQG7LMDhtXO3/V8WV6jsCpbGBAMpWVxfJH8gcgQyCBDDLe8CN8gY/Bge1HTxBYU2OAOgGuf1V8E71ZHJbT0YaTDS3W9KRTdQlUC4NZKflOJXLcmXC4+aRLdhB7jP3Cf4AG+D2uQ/g8dLtfBQYUzBUMbhcnHZjFP+gFbPCdnqdaDsEyP83GRsvPQrZPSGGn33vPXrT7Twfs3J0H+h+6hfv5LWSOBBAG3aLgS/VgQtFcgMI1h04ba+xZjplfM1cTRtiWf04P4AJ2JLFghd1+9qvAgXnb9oXlOQREZIxEExwU9ULWBmkwNDAgIJulHIBC+eV2vOGuih1jK78p5frI6E/QyuEAgc/UOzDggSeyyIFuCBlF2GIApD+2/9/Xzc/Yf4Eokf2XDGctRXP59rPTBT2E36gAN0m9mbSWis7fuNuoc9TY86tkBr3H8hB0ORkxZx52WnL5eptQFgrYBftZJzoya/xdepadarinOhsUIA76M/jvFx90abIP2y8fqDAAqdhQeAKZ0aw9E4TJYH/IIKF4K+MhGgGCkSkYFR+UPi2ptaoNO+wKeoJdB7pfSk6QGWwfYE+u/Vtx+IyewzuhDXSRXo5sm4+P0yuXfoAj+H3KwCooUwZLY+9Lu/Kg2xKzl9qhy63W0PGLtfT+Zg3tz+12zy92/WGvLd/9ozKgkA9sPgfLOOBfAM4p6Wo72tQmH8bjH9qf639AD3xI/ocNQK7QBV9VzNRYkca+ctdBZY3KH+15IR2KjFGYu6n/hR280WijZxTZyj2HrK33pZ281ablNIwz7259+psdutig2l34Do34EA97rLX3V1u264jsOO9FF5NZcCyy/+z+MFL7v2znMbv6eEC7wN3oDfafYtx7z163f1GTLKIfOphaCoACX6VqNFv/U/N97cJ0szNkcAX/+1e7+KDDFu7aL16HdgKgyOZIVlv1mm1GJiwZx6n5y2zJ7sPyXVg6C9h5+2mY1KL2FgXd8eWY6Ea3sQ00fjHvwX+hjty9jqd2v+u5Cqdivzx2vNrFrk8v1QfqorU86RMwcL+zz+486RYocKf9PV5K4ALxujNom4SYQh/Javu+dp6Ej6B3/uZdVr9up81l28L1261w7lIBA1ojSgAEOkcgUlIf1ldijPPTllyw2po6X0pBM0C7zly2NQeOaU05aczMBrO+bNPRs5p5IwtBip3UEgkHAl5j39QvFfpOcEchQAwp7cO4yKHAmJRQACUUNeK/zICSwrflxGXbfvKKHb3aqGCS2UWK5mw/c8U2Hr+oLXTYPqds1VbNFpAaDHKWXLhc7QMYYE0vTIcyUUokDFRcqkJCCDjOK7OaGE0YFMXohoP/fFu/WGkoBMA45jg2rJtUMJVkbW2ZnDhmvFDujpiiGKZVzLJdlxslmHO27BEIwDr7Gw+7FCyQMQDqRYo+hR4dbZ8xd4ltOXXJtpw8b1tPXTAKltGXa1n933T8fKDR2WvqP+OIUnIeAQGl/f+qXajq8zhlZAHk0p8xQLCDUxaWDFy4+1hOwZmmu0ZFdaqgS/DKq6QoqV2xft8Rpcbe7XlpBy41KBNDqcOF5UZhS5YiHG24bWMKEko5IgBhfeLxW60q/rh23xGBD4Adh643ySGA/hilAAow812jbb5IBaLGRIb+1fMV4OGAAQio2A78G6GmpM4xo9HQ9dTImrnU0WPbLlyxlYeO2YZjZ+3ojVYpWpTE5mPn1HeUagAV0tF66Trx5WBKeYnGiXoIefVzVdgPWlLoD17GqAX6h5Q+jBnAwJe1CwL9u5+K/jhbLPVhthbaw+9k1dAPVdOnH1QGL6pSajVyyeyW0vFZQpOfUsHByz93yGCwOwdbdRKUk/kDLXBOkD3oB42gaTD+ZZI9HAQcfWZgUar8Jmcgags8xH9pH2PihtnP7lD5mT4wW4f8w0ekmu25eFMZFcwqnWy6bxuPnLOVB0/biebH4o2frjcLGMBhYCkBDr3eRSCfn7DkwmUCcy5TEfxxn+06c3VQ/9xsztSvYDx5JwfgJOmBGBV008ajJxVUf1oUitvQXgrbESQAGOBgYziON99VACH+UxV/1r2F6rgCaYbJGIBW0Cyk27NF6grbfOa6tvZim69DF29I96G/frzaqKJgW05etB3nbkiG2V4SWYV/CXJ4DjQFfec6QBSp8BQtBRjA4dYyjYjvuEeBUVTNGhCY4Kvl2b/teNtD23r6sgHSLN1zSGutcW4oPMus3JwNu8VfpIhDQ/Qgsy0YVmi47uAxBXFHGn42sgUoqHfh53YBrxhpwGH4U2sfoxlfZpMJCpEP/t/Q/tKOXr+ngIP/4/CzQ8ztjue2YtfREFSWMUbR7jA/FFt6yVq70d1v13qeGgAjVe1ftT/svDFgG46el2wQUKhgoYoWhuUPjAk0HR/VGCAQxrFlJkjFqtDXb7CUwHXq4HnoAId6Icz+4qCjC7AlOkrK5FwzQ0/qPjUGVMmdwB8b/LqlBBHfudz52eXOz8PJHzvXrD9yzlYdPK5dMK519tmPN5u1Ow4ZXwAD40vCGm9mcJCD2jXb7V7vb9b6+Jmdv9+hcceRZscWgODLP3cJIAIYIJBFV/Bfsk3YanPHmeu249RV23Xmut1u71WaJjK/48Ql23bqqm0+edU2n75p2841Bt0hPRUtj4mW5mm9Lnp0GPmD/zmQF2jx6YywRIh+cGD/AVR9VwKKD0qnktERFRzzNfqACqThN7d32anme9IVArypz1BaJdAc+7dm/xGjACz6A/uFDoUGtMP5Dt3ruuHVPrzKP/QTPcNyJpaVyeZEYKMCr5KZ8uvI4KMo1qErDQI/vN/MuHPAc/Tz5I0GLZnYfuKcMnbGfF9qxbNW2Kw1O6x+1TYrmLlIy3ioUcTyAegmfR8tBS1evEZg6c2eZzZn8w6B1NhkdDT9BExe++MJAUbo97zZizUTSmDrB8Al/gzHYN9f7bfzM8AIGQvYD+zihbvtApPPNN2zafmlcvjxLd6W/hlAIOITlxs/u/11P8J9OS2nYSZUS8qGt//oEp7pAL0DfJlxysoWyPCJQEAyplh6hx0GBCqxWeu2KkDE77x4r0Myt3z3IVuy+6BtOnnOLjzoslvPfhUwQCFV2asoSwpdXrpwleS76XGf9Ofus1eG1J8bj12QLKA/ybxSyn2UOaZZdEDnyP6gu9Cf+Dtazx4tPaRq/YTCmgzIyXaawf5d0846FMvE98R/ZQckdtlw+8fOO/jvyIr7r86L8sWRg2jixMcr2z+HjvAaQTkADun6czbvVADJ0tujV5vsZucvduzGfVuy47Bm6SmKjR+P/QAEw29gjD2w9ll9JlcbepgQHYx/Nh89pWWkXj8L/4O4AuDNdacCZS0FLheoADC6bPs+AYjXu57alce98kHxaU41/2xX2rvt0M0m2QjZy0cUGn0hXbNs72EBlPiN2K8bD7vtaEOrspDxi5h0YccwMkMCOFtjX6RqrbHrpZaznbzbPmL7D6hy9Faw/2SNM6EUlmoP2JIdB6X38J2hH/HX+OkpK1+4WoF5APT7lN1A8XJqkh292az4DLBq40/npFPwHzTrX5g2apLhowAEoGeZ/DzacMfIFth6/JyKbsNP+B9LduxX9qMmewrTypLYef66smu2nb5oO85e1taD7MyC/SHjbevpq7YRG4SNOndL9cPIGGihLh1gObuuPO6yOx3heG9rDAwq1ldT6Pw6AqQ0uhklMiDMYIIssv4L5+4WTNL1UjMGXL/8uNdAeTVzAsoVbcuHE4XyB208c/uh1olfvdOhWSNqE3Aww41TvXr/UQ0czl/RvGUKDB0YoD08B2PyZfVCa27vkWPgg/ltzVzNqiDMroQ5SxF7QMLSBAxdUaWVzV8mtAdBT85brnfhwGI0cQSkSLQ1TLlNw8gVlIqJqIR8/VGXMYOH08iMKwUI527abq39L43gatmukPUQEPgAlGBkQbGhLzPWzI6z1Q+OOfQEIWZNPSnrKEiUMm1XZVEVIQvBFssdmCU70HBHzpOCsPyUljmQAcGWfwR6LPUAaccxdsRdBiJKYWRbOmUNqP9Lo/6H9WU4I54OiCKHFihYd0zJGGA9PwFYNv0RQv1XheEC4onCJ2hiTNnuEkACYABQAGe6dvN2w1k4ffuefVtSZVdaH2kLG5QbfcMpQUHdeNwjYOHQ9UYbX1wSgtpEtdJKEeazt+9rice51p8VJJ68fV+IZ5gpYcuxsOaePnxVs8AaH3dF9H8mZf593UI5M8zSkbqHU8V4oRjJhplaUqniSBSIwsnLm7/YJiTCtojwL+lYa/b9JOQYA6Htusj6IC02SjHGqHv2B4E3wRaA0NyNO+xM632BDtSowAA7Yqw0KqqkZxWf+rp2oQrvZNOf5wT6B94lOyAT0GeyDaIilKk68TTrqsg40ftv/yw+5P0UKvTAHvlVKiPof7Q2FxoiJwT+AGekfWLwQO1Jz6Id7qTQbpwaB+k8/dQNs5/dQPs54/gorbvSCuYsEWiBUdh3+WZQ3ARuxVVClHeevqRAGYVLxWzSm8MzQlbD1+XVojHB6bn7XVY8Z6n4yvUPVcMxGBgOeDW5cKX6gU7AsaSuBXIKmEbhvlHJmararcrL+aR1p1VwEZmiICABMzxOwI0MukNHf6GJ69nXnT0AAByCBwjsSYnkO7rQ9ReplCXzl2UMGSAuOlPAjfRlAPf4jx/ot0lFJRlggIKlOD/K5GB5SNZSAnQQbWFnFgIyAj7XI0E+09I3/yqrEcAAMHD+zhPRg/WCgCoAULVrt8roQj9oxBIQwGJllxSVi3YETdCf3S+UxYKuZvlUfrmWi6l+C8a7q9+YcZhEqjLBQkGpfV81y84235d9uXK/S9czTlVhhX1TVq8ii2yzy3ZlxXMXCcz18R+0P2RQPbPUwjVySGgjM57wkkCaKLUTYICMC0BMHFto4ksJoNfbZgy4PEj/UCNhRrmKiKGHXe40C5YqtXFFKWUssOXXgTPXxc/oGmbecoEB+Myvhc8h5drf53Ln52HlDx6BJ5lNKqm2bWcvWWPvgJaBsXVuavFqo54DmQ6kmuPY7rnQoK0MrzU/NnQPtSIowgaggQ3lTLomMzQ4hATgnL3oF842wff3lQu0LzRO19wN27Q8wXmeoBwnH15HBuAB2uCBgeuj18ld5nrkt1BrAT/IgQqehU7n+cy4swUVGQN7zl/JZKhRY0Bp31R0p2heUYXsJQH4j9eaZA/xDZDVWRt3ymFlq9ivS6vswp2H0jMnWu5JjnmfdC0BIH1iHIfMGng1QEb/o7fJ8iJI9oAMmjC2jDPtAhig9sGei9cH7YfAh1AcDZ5nfBsetWvJwfpDPxn1gs41t1vD4xfW2v2bNXe81Czj+dbHxtJIHHnGDp3vWUhk3K07ccaudvfZpY5uq9mwWwEj4wYvzNmwXbJP9ie6E93Cb/CN/A78sihrNDNGUT/oi/Oxn7H3jBG2iN06kGm2SCaoAxgYKf0z8pEBmAL9XX5y7S/+MOMnewqoNIz9R6/Rd/qAzwvfhr4FPsh+f/ZntzOAgxSfAxhggogM0gMXb0g+L91+aF+X1Kpo9pgfiuR/q6ZFUYmlV2+yH+Yulg7RNnxsSV1KhlS1Mb6N7U/tStvjjP6k6O2r/juTewNWNHdFmLzJZ2IxFI8jS4WxZPzIdgKYBhigRouycKJ6GvA7a9DZ7tx9YLIufJcQeMv9V3w/ZoDxw7ED0EwBeaSneZf0JrWKIn9BNB0GGJhUXhcKHUeFdQEGCKQBPanLs/rwWdWyYengqO+K7Jt0nZ1suivwmuD66wqW0wVgCnAc+p1re2i3Ovsk42TNYXumsPtIQUq7lmT7H/gv8IDrQPqkcSitEcDGlnanG++oZsnKg8eVZcdEqup2FZbb9FnzbdHu/TYpUaaMATIMAHRm1M7VUj6W4zHRxq466Gv8W4qAf5OeqS01mb0vWbAyo4e/LKmzvedvacKFNjFeI7H/2G+KtxMv8iyKVbOkkYk6JgHpO7oPnY/vQbbApTuP5SOfvftQk9H4Dhn+Kyoxdt4iPgUcgH7oN/xYAECWt+LXaalW51NbuOeIdADPwPb7+4P/0S0dLUAiqhvBs8hwxi//tnqO3e18qmUC89bn2B/sQlGVxoEt1pl8bOt8ZvfJUH/SZXc7u+1+N6B2j7VGx3u1XeGryvX34ADOIwKKYYaxWbPLjBEgACmd5+6126WH3RkEB5S3+dkvtu9GY+QMk3EQikEwOMwM3O59YTd/7rL03GU2MR9h8Kryaa1xRlAQLrISQHNItVOww37VUUofivfr2sVy/kmPQVhJnSHFBqWgva0JRKiqmyX8KE9HeUlTwrGm+CCpSOWL14gRGHzugzYODCCQgAnOhMWzF9rp5rua8Wro/s3OtT3WNnQ4qwS9ebVzA9gRba/iQSGGgnRw1ux+Ub9Q7VcQQRv6XijNiO35yBYA0HAFL2edWVY5v3Ps5uOnQianU1xNBZxCjQdmzKDvsZu3Q6Vg9qn2/UZJPWNde6Ro6CeKlTaDopUvXhX1P4wXY44Bw5ChVD2o4xo8QcYADj5rylF0FFRy+lOsxJ2w4IRUqKI9ARnpxmxZNAUnurDcvq6ZYxfau+1qR69VLFttU/KSdpqZ945ndul+ZwYYYE0XaCL923X+ioABZiW+rZqn1Cf6QH9YNw0wwpiSVoRgwxNKm0yFtX705V8shejsVYBCBgABLZkYOE84dASyOHQ4F1JMJdW2YvchCTn7i5bOnqfUdArvYRSnkRY4I2lTC8uUZgfa+uO11kzGAvSEpwBbMHRrTlxShXFQS8lTZ8i6YOa3ePYirQMETPHgHECMceDAOH5ZNU/OIym1ODykYrOFF/fhyEJ/8ZucicDL8BT/hyfWn7xipMWFd4dgl2CWwpXwN/UGUNbwfnBMgpOXcWyi1HQCVnjp0qM+pWWdaPk5GAyCychpc0fN9Y30CfwVyWbu2e+Dz5B55J93kC3AOKMbvi6Lip6hX3AA2M6ytErbhTaQptU9EKUjo8xLtSaQNfnaYgvQcfYSBbMYBMaPDBuCfYx0tv5RtgoOeV6ZVS1fJ8OCzNSuWGNjk7O0PaqKnVEgszgtpNkD36/StcqKIeAGrFRQhgy+ITDgdPAzfcw+yuYvl5MCMFC+aGUwZCrAE9bY+f9yz/4MMpxIhQeYxCB/DpgYzcZxj+iPI+47deSzAw0FfELBOAEQBaVyKOCXL1OVVrVsbUYfU3NAPIzeLqxQwMfYASQeuXpTM0noY/QaASJjMX/TTmUNYMAxvtCUg3tqV20Uz6NzjjC7yY4nVGsuZncaZhzLbMHmXXIsmPEAaIX2tJegc+X2A3KC2G42Ne/3408fgv25r5TMIwT7yFK0ZCY7oEI34HDh2OJYsSsBzjcBOQEANNeysfywPpgxBxBE/qGtPwv+RlZxWMkMkL6J+MPlIhNoZAKQyFaznWuiLCwl6BzQEgpoFezNYK0DH2/aJB6M+Mifn3t2fhlO/lgDDDDAOxlnCkqytK3hSZ8cZwFIiaBDgh9QrqwbdPuuA2znSyp22OMd4I3PLNlD5wW9FxXdi4Ip2SPuK662byoXSn+TsTZvY9hRh3HyICrQzOkUZpzdnrpf4P3MPTu9Xnf2+/mdvuPgtXX12r6L1zLAAMAEgRyFl2kLO7oQgFOokFRV/odPRd0CZvrIMKxcujpjv9BzZNAAigGqiF+iQAf7RRt4P/1F/4VrYZtG9H72mL6Wf1jDXVypdrF9IMAA373f/E8ZAwVpBTXaaquzS2u7T7fct5bOX+x8yxM7fKnRjt9ok9yhi7DTS3cekhMtx55aOomwk8v4VLkVLFxiR5tbjDTgpu5fBCLyP2x28J/mBGc/0mVqD/UCCkOWmTLX2Ho0p//0mb5n+i9QKBSfJKhRttHjXtt39op9QQbZCOmvMYjoj03PfT+0I6CHjugL9ycZsw0nr7yR/XeeZvyzfTCNe4498HFzPkcXEdhThI7ZaoI+tokmCNx6+JRAASYzmEQiuMKXUR0eZsiTYdkDvigTVeh6snqaO58LiEzVL/id/XT9yVaMLAs6fL1N+gEARgFy5DPAr9BuQqJUYBrFW881/hyWlWJ/Ins+CKwGvTWou0JavfuvAANlkf0TSBwVkHU5zT0P0imASS4fnjHg96OrAfQBfNFv8zYFYADf4lzT3Ywe9wAZ+hJ0E1ji567Yc0R2jf8CeC7dsV+2Fh8kNWthhn6AAizry/U/jjTcCTSJsq2CL8aORpVK+QcUJX5Zsf+IglUBSZE+Rb8wIcEyXYoPUjsKO3+h9aH4gOCWiYGj15v0jOM3WrQkYWKyXJklTG4SU83auFN+gbIm8sq0Y5lA0RSZ0hS/fXv7j/0mDoM3aavbf0AXYrpvqudk7Df+/7Lt+2VXiDeS85fo3YG2wX+jRhc+zYnGO/IR911uyNgmAFz3H4i5jl67leEz9ID7H4wxE1wss9CucgDRgBOaIA7Z6Piv6G0y1shYx/7QDsYH3nU7xTuZ0GS873QNCDwOQECXCr5+sMCAOwZeff2H+kW28uBJzRhBSIjBQVXdBdv3am00s3mktSzafcBgMpiYlHHuAy2jivBPVxttyvSElBEBIo45BeRU9CEvaQu27FYAwJoX0DiMo8CBaHBIq2SHg+0nztuWo+dsx6nLtvn4JQV2EmpmSin+wSz7K+DAoGONQ+nAQAiMQzEgAhBXDARRfCaw1PW8lI2dnrTalRtUNKWp93/tVvtLoaOsL0JhbDj4kyqEoyQJKmAqHDUMB2ncLK/4LFllk6rn2o7TF2zLT2dt+5lLtvnkRZuaDpVXCeBxLlGEMvgwXAFb+tRo/c2Nh72258RlFaCjfTAqDhpONzPyrOUHUMHRV8ZAskrrhP2ZGChmnFyxhv6vUkCHkssEbhEw4PSQYYuMLTMopBRuPnbGSK0hFYjAOhjxoPjdkIEustUW68Ixzsy8svSB92w+c9Wu9gzYxtPntYXetKIyO3X9towPqDOzhghYXt0CZQzgPKw7ckJOOdka287ckBDvPH1FOxNQaR1lx30EvQR0vB/DSj/oAwp/asUc23H6nG05fiZDf4rbINQeUOOkE/ShAJkVA60E+Tt26YZ9XZCQgsWgotDYFeEL9uienrRFm/cKKLrx5Jlm5QlMaYPzE+9f89NFOQbsZ83a6rsD/2fn2x5qm0UVlMFpzg+7MdBPKaaoDwT/FI4ibY6UPVJoKWAzrQJFOjirpBkGZhoiQAE+hB+ZqVi2jxn+l3LUtV5q4De70HZf2w1+U16jVFGWNyidTdu0DcoFTokHNjjprP32fblZXy9ZidqK0XUn1fkow1/DAAO8Q7PjhaHSPkEHTsA+tgotpFJwyIjRemoAq+JSbR/X2NEl0KqIquhUBmfWujBtl1ofaPyOXGnU1pcYcp8tlv5JYpxd/zyXw84sBAELs5QYJ9Ld2p6+FJ1YP/xpHoh0qEjMeAHKAQz8dKtVVcXJlsFgAMjJIXpHwMDbOEaeMcAMCLsS4AABDATwMBpjgEHangwFWCluhzwKNIrWF+t7XlIy/UPVrAD+tvfZnM27Jb+AczgqNSs3BLl80mUUYiO9FHAv2zBTkBV9xFG6hJ1vQtCJ/cCwc51Ua/Y9dz4UkJpM27iiEhWiRQci/xRhVNYNwEBxpTKR2NbvyKWbKtb6u/Fn5kLjv1d66sqjp8py06xlTsCEbmDGy2sM+HaFvpQAXh90bKMMEbZ1jZxjeBv76vIqvRMBaa5/BuXGZyJzwPsIGGD8mHWjtgL0ygYG3Anm7PLHme/+/Nxz5r5h5A/ZAhwI4EmZjU2USpcyo0jwgfwB2jDTjgwAnFx+1KO2XrpxV+PO2KMvkDEOZJXgFJrTjqCPI3sYLQcjI+DrigVhprur3+Zs3JZxzGTbopnVTD9yaiq4T5D5fQjaZNMt97P/j+vQWw4ewMCF6xEwELYlhkfYrpMAEfvX1jege7F/QYYqlH6Kndp24qLsH1sesxQQPUetGWTHsxOgBYc7n/A/PER7uCbQl+3Iiqq0/MvH1QMfb/fg+Y+BAYJa2k4/yUZjycTdnl67dO+xwLt5m/batGSNAswJM0rk95B5BDCAL/JdzezgIzKrV1It/TxqeqFVr1lnW46f0tpsMuvgX2YJAXmC/7REk0YUyUM/BNtdox2u0LkABErPz+k/15Ad7z/+BzSCn36onqvlGbyLgqtT81PiO9J/35b++Gk+gcNngL/s90M/zfQT/LDlH/ySACSaacv2nXgj+x8qtLOcZGj7m8ubfGd88R3Ri+gjX0qAPScbAxqcbbgr/0LbPQMaFFKdnexMagORbRZtZ0iFdm0RWhWW+XQ+sx8v3rCvCCwT5fLh+e+r/nvQn9R9+ap8VqYOBW1zIBReJeuTpQgOrKIjtARK2SbZGVdvBgxgk/5KYEB0VFuCDSJohLfZTnvd3h9FY+QR+vBe7A9ZF4BmyO9Pt+7YmB8SojMADP7jvd5f7PC5azYtL4Ax8j8K2WK3OAMOEP+wjp3aVV+Uz5TuxG+Tn58I8RT1jghKL917omKt/Ab4ii+C7kSvBlteJvAYYIBxP9fyUDrLgYHDV24pcD10+WaY6EqEJSdnWx9owomCgOhtAnfxojIuwuQSgA8p9xQuAAAgAElEQVS6+23tv4DlwlBDgefDf9h/2slRtmxdyBqgNkOySvQDNKCtbG2qYF5xaMR/gBpZ/hs1AchE0uROokL+AwBkY2evLdy8PSzNQUajySd8DE3+RNvRJhaulv5Bh3CPZEvZVhUqhEzGBjsOKGPNJ9GirCbuhcYODCgzvKM7yhD4wIEBiIHhUSpzUaXW2JEWCkNwYMgxjEIb81P2Q80sY3/YK4+7xNhfV9QJfWJtE0G/CxXV87ccPKY1/RhEqhJTFdXPFJ+iKjqzuBgkmBzlLkdKCC0zvwQvVSK8G1mExx2Df1J0ByMZHRgU/iNUMHKMhgMGBgPhsH0fQQK1D0hpZ+Z678VmW7rjqNWv2WpLth2w86RiP+kV2sWe8DCaBFqz9rQngBWjKIpF2mRxmZTJmIKkFLHWY7KlTZRujmGbkp4tWiOUrK9hNob1YQWVs7XuFJqQyk3gQs0GGB9gAJoI5UtWKkOBTAWQdoLFgF7XGTOOONBDAQPBucTQhkwDGcEIDfOgkFQkGP/39K+UY8IaO94FH31dOUcFU0Aht504ryCCCqEUHTn3uFvIIEL9darKfrrSFC2vGJBw8fxvK2ZFzsOAbT1x1iYXp6xi5VZrevp/KlhJ4A7YQFB98NJN0QGDD2CC4oZOHpgzrjhSVPQmFXeQ/mH5Bg4VzgUAFCmh8B6IL0qp6VGPnW9ss33HAXSuyKFjTRdrXPecvmo7T1yyfWevW1vfb9bc86vlz1qq/6O4CXKVEp5XYV9VLdSuFyVL1qlKKugyS1pwqK/93GmF9Yv0TmbSSMNTpksUSDCDhLMIYBYMQZjloY+B/6F/mEkHhGAshWZG20qR3j5j5kLtE03wxY4GKk7TN6BZuKsPOlQMi61IAQYwOPwfQIKxh55ckwHKKzOQWbJBoDfpc3LqI2BAtGTmJJI/jK0DA4MOqwc+fg7Ojb8P+f+yvE5ZNfDq8l0HQ8YJRoECSaQbQ4tEmS3ctttaevuUCUJgGIKXKi3zYD3Y7Ue9drn1ke0+fsm2nbkS1iSepebIBdU70fn8Vekf9oonS4rxJ5UNI8++5QSmHCoOB/AUARffVc7UjDZOAU6EtlMl+yfKFoHnONzh4DySIztjIBcYUJaRF5vLeQ9GiwNAds/ZK+I5nBnXF74mH4OIzLDWVNciQ0fqN2nic7fut9WHT0sOkAEygXgeQBNLLqgCzowChhldWL1ivd3p/1WGOb0o7HjhwAB2BAeT6sn8lyUD1K7h/8g/TgD/5zpLudhqNcPrbNeUCo5Zfv186V9sDTtIaBaF2eyiCgWkAAOX2x7azp/OZo3/0PaHLJy8mUsyji3yxXgpPZuaA/kJ23f+qkBMZryUncDSrQhcHlfAbjVhSRL6REEEwV2U+QZfDDp8YdY36KZgq34vH6/yy+hkyBgIs3ih6OIfAwMuX8EO/v75/vubyR88RFEo+F/rg5NlNm/7Hu1KwCxgyeLVogm6Q7Y5VWEHrjZpTevPnS9s46nL2gEH4PWzH5ICUQXCRVuGZuQkKpbqQCft/pKMAVLgu/pt9oat4hHeE3jC0649oCB7ImRQyLZGkwWD/Q/9dbnIPQ/KqNNn8IxuIBOA5QS5wAAZIOOi/d+pBk/hQe7D/sHT7DByq+cXZV1iv5jx+qqk0n683qjAgkkWgAH4RM4pPhgFA30JlzIJmImnnk+opyR9H+0/P9g/b++r/MPvg+3/44wB/DAAkOYn7cr4QQ9Cbw4yckiTJlCsWrFWGYTowA0/nsxM9mDbmRVdf+CYUSCYgocHLtyyZTsO2azVmwX0XWi5qyUNje19ml3VjkNkCSgoZh/7mcrA+IxtUCnqCOAe1Z7K7j9jzEH2H7TCfuA/KFupa8B2HD8nYGCk9Nc2dsVp6Udf9uk1ZLB7gCos4cDnxI+ArwR05KdtRv3SYe0/wAh+HzaM/7k9dPvrfPlafo18N7LVkD9k9NCVJmWbUouFWlvpJesFeI/+vjhsm1wUssEEEkdLefgv/iVLxPA/zzffs13Hzw2rP5l4yJtFQefBXUGwf9AIHUkgDTDAGneAVfoFMMAkGnKcDawGkMvlNGQM4L8j//Aa9i8bGMi2f84PLg9OL6df5nrOrhLuL6LXsSOzNm4PoPejbmP3I/wOttNj8g3biR+Jzd9x6qKyBsiaAHj5IlFlXyarQ8D75KldavnZDpy4+P+3d55vVlXZur8f7u02HLvP0W49dqttgKKqqFxQFEUQUVQMgAFBxRwQaQMmFATJwUSoKjKG7nOe+2fO+/zeMd+91l67du0KeLr7uj+sZ+69wgxjjjzHHLOkP2b9Y9dnSj69TfrHT0oEuWDlwzXHIPDhItcSiSLRFbfvOZiuu7tTuYHoL7hmXTF4HrxjKK1/9R3N+/sHvhacJHs6+9IrH++RvHzpw92aD3QoDHRsCKLCH9r2ZrphUW9E5YFHbIns7E/dj8xf/nthwHkcaLdTRzBfkq6N/Ma4Fn8hYnjiiraxsGUYx+LWD/cIh2t244cZjll/O3TpbzolDPxDLg4/skELp0fOX05LH3k83cSJVTiRkcdEqXUNCl/RY8FdFrzQr8EXHHzYMoErS9N/LoEfXlC0BfKHfmrxh6hcFnXRf1n07h7SQpEdA/DQIxMT6ejkP/FxhQVhVAVG/AdgYsrZg4fnHyYBEOXlJ4cAoX94S+7tUiZHjls7dD4SOAw88qSQDGLpXBl7ogl9AaDfXApDgknAs+PVS1ZP+U0oB4gZx1cxeZGZUx66fOwc+2lYUY4wJXuWc8KdgdVyCiBAcA4UhklepemOiIEilL4xYgDmBIwgIsbMESGEbRP2t/H1HcpYrXDWhX1akSQM+fVP98ooxYBBMUJw4bmTR5kVUozz3hGdDU7YFp50MRWELAYcCb9IlkPSNY4KI6M6Z3z3LVdyLRjzY8+/mv5wX3eEn7J6zFFgvSN6jkJMIjGUfgjYBv7v+1fIm31dB1lSWb1m/BGKXHUMqB9ZkXKUAaUZJUqKmOt9BfyBj4iB/Vwkmxlcpfa0/7qL0yhWaHUa4YLxwH7kD46fSbtPXUwDjz+t3Ao4j35/b1fsEz53VQY/BIdDBsNcqwpnLqWXd32a7hpcmnadnExfnLmaBh5+Sg4KHBWs3BMWjQGx68RpOa9CAQ9nAPBlHPT1xgWd6dZ+mG0oODxDiLAiQf8R7BjzKK6L7ycfQ5xbevj0uXRi8nLCcAR/EQCHJ3/UFg8iR/it5C0TP0rxDYYeDEhKXedI+kPfytqKJ0IXB8t9I6vSp8e+F1Mku+0dAyu0Ggdz0kWSppxMDzpkewT/qdOKo8aHI2NwhcaJII4V4BAq4KNyO2RmCKPnwnN938hK7X0j1JuEPmHkh2HrMQAPK4TQPeHeJOUDDoT6c09OA9qVgkbUTtAfwh3GynxwWSA3lpkfZSMKBwiZ7tluQ5je6qe2agsSgg9awekFfiLURp98WoYnq/Z4fDluDuUaRwuOAbLIchLFsYkftU+PkwNImkb4mLZCXfyxxn/Y5rFs4/M1xyTKL3vucMCxT23wic01jzkC4JEXX5dRiwKKIwOBJljBQ7JDgPm5VpfpNxQjeE0+o7iyQlptz4oRIaSvfrxHzkHyeaAAoeQwf+AX+QxwTnKeM0mAmNveBx5LOw6ciBMaJn5QJl4yHItnnz4vwQvtwVPWbXtTuGUc4yggPWNuVj0gmERf4qhHYIhzhW/hExydaqcCjgG8+XyP83nx6ofEU8GxGwmZRA70xD5F6BQ+uOSJZ3MI7XDqXvlwOnyaLMI/pIOnzyshECeKaP6byB9CnUmWB/5Z/miPaj6lA8eATnUYv5I4rlDK9BSOgVBqY2tYbRUzH58IXUELOPrMX5kveE9TuvCqYA9bhgZyeG+9YwCYABvPNWW5PhkrrQzIFvRHPxXRo4isCD9euuEZKfqHz1xRnhKi1hibznDvHki3L1mhRFfkRDj8w/9Nn3x7Ttml39xzNG16e1datOpR0RswBy6SKYqg8/5q+PjydPvSwjGwIitm0BqGMfJHCl82EK0gBz9aWosiLOARNFmGVfl3QT82sIsSuReOgYtyDPC/9i3h7x2RoR9+wDaC45PntP2E/++dGE+7T11WUk4WOUL+dSrXDnj+0clTkl/gCHoY+oDxR6vodrhkHKKfkmvs66+dvFD0tRiHeVC9YwDHRrn/VobJMcDKG1sJyKWAfGA/9fU45BRhFMbCTR1xSsbn350Vn2ZbHFtFdd76or7EXlxW2EiatvGlV2sLO0RpKRlxR296/eM9ihyAhkkUasMfeqA/N5E7om9MOMAzh6gHfsf4JROYB51oE0cCA2/0Npz7r3y4O93dPzJv+Euusq8d/a6kL0X7OFUzHXeORDJKjGIiIHQeek5kSuRQE/l/19AqPcPQ0wIAjtqS/C3PZw3nyvIFh1vnkLYCKM/SokHJ9D3fn1eU69Gr/zdxihKLcG/vOZw2bX8vLVqNIU9iRvqHTj0k/gdd4rA9cflvkZdr4nLae45TQOI0A+vvLOZZf0cn4Gg/8iiZf0r3ynTJKUEYpiSLDcdqJEuU02CGjgFtBc6OgZB/WY8uOQJN96Z3w6oMP55p0TBv/Yl3g06Un2HxsI5XZSGN0PC+VQ+l6+BPnHaUZSbjIWJg05s7I7LtzCXp5Zxl37WCrc9xVCdh5YfYPoTumO0f6F34eQH9I0LZrX+wmBS2WJzSclv/MjkNsAU2b9+lbXTQfegYMQ4iXUN3D8fAY6+RrPdy2rnvuHQWeCt2GcnfibDbuvMjOQaIumTBkmTs2GKPvLJdEScc0Y18Rg8m8fDusxeVvI9M/HOV/7Yj4M/QD86Xe5askAMF+T2ygZPvsH+GlQMOx0BsHT+XDp2/pJMpgBFOksC/8zr1RPh3Nk6YY/ERWQKNjW7cLL7EVoLOsdXp31i01IJVbDFnfHctXaVFLurgOE8nzTQvNF7cvnTNlI4BnF6Ce8UxQDS5+Of/D44BCAijQ17XHAb0m3t6JPiYVC7C7GHQSvxxX7dWH5lUkI2TC/CEY7zjJMBhgFB5+q0d8tj0P/KUzvvuXbdRR0kMrn8qDT/+jC7OLCYzMd4xGRF5/4aJGQWN1UwQR+EsSnA0KMGIlxaBbEPEpb+14VsfSt/oGDCx0T4C6L2j30lhZUsEe8oxzCBahd939Cm8BY8/CT1Q1l/65MtwDOQVQykJ2YjBUaA9QITvsg+2OycoyyutEYYYxiRtP7xtu5TiT0+cSncOjKQFI2Pp7hUPKbEXYXJ3D4+lL74+q60aZP2HwNhjS3g/jBYBITiQPb1vhULkbVjMxTGAYsK8akVPR9blDOY4kUh4RPi798VlxwoOIODCcYrs9yZfxaufHRQcZJQoAUt/+vwkqxJX05tfHpHRDnzBoy+/Hle0xM59B9PG195KX577r/TyZ4cicgXlEwWja0CJyxjT2/uO6hmKqRUHlCsLBgwJhEkN/lKoYssBChgrDghHlCUS0cG4UVi2vPNBGnlkQ+pb/7Twt3/dprT8ya06g3Xp+qeTrieelceRsH2Yupg2c8v51gvZHhGJlOgL9WP4gFMrNmxWNlhCLB/c8rpWDFAMgDd94pISwgoroYxEBuSVR/YCSlnpG1XEgKI9siPE9KoVdM6FxUjXalTRPorp2IbNWllBCVj5zItyIoTxksN6UTzyd6zwPv7K22K27AnvfzjyVIRh6RwZUzsGoFnPg8safVq5EXNlT92InD/gD0fxrNz4nBRO4AAfCMcAzpOhtGT9Bq0kkjcCvkK0BY4zom3w2n59/sf0/PYP08gjT6XeR81/npQQGnxsYxp+IngQ/If5ZXsGyhhwvvG+xcL3j49/Lzze9smXEpYIFGD33qHjWi0nMSJ0AV/U2OQUQEEPGDJfUro8zjmWBf1eTQMPVRwD2ckVSlFlL2WOGMAx8None0Vr7AvFkYhjQAYWPAPHU9/ydF1Hn/CK42BJqkSYI8l9OLmFc4QJ+UMB7Fu7XlmvUXLAn0deflt4jUOBixV/8IQVf/JYYLwBE2ABrOAnCGatTI1fUcQAK8hEzQBjznWHrnEMdK1+MIwfjMbeOP6LU1hIQEg0F+2veO6lGv/AyCBkFecA9LviiWeUeZvzmBc/bPmD7Nms7MWMZ3D9M8rbQYQOOE1uD/pLv4kAcPJBVsdxDMgR2xNHhEHvRAxA54QXc2kuMu3AE1B4UMDBb1Y/pbxnXCg7Cap0YXq5Cf61eKjBMYCiNRPHgOtxWW0HOudqRn/IE+hPuIx87hlKyHAUfRwDnFREsizL2//NdpPB5emOgeVpyzsfpb8e+VbbywiLRRHjImcK0YMov/Bl5+ZA2ZLynjPl376U420jYqDsGIC/2zFQG09WPP2ffhc6QdAlzwwH6DOuuOfvQimMb/09vLuZYwBlUnI84y8RA8cm4jhh+CbHWr2y+7DwAPkGPWJIf/bNacn6HQeOaSscfQkHTGwdQOdSMkcdCRvHwoI/yBrx+bxdrui3HQEVB0gXCd6m7z8nGoAD0O++b88oFJZcNNDqTf2jMo6USZ6w8v7I88HpUtA5+5RZ9WcbF0m42N9MArS9J75Pd3T168QRlHbqJhQd5zR5Sqw/cZ468IVWcICLD3ctE0/iOEj6zsU7wIPFFOiOyByt3JPvA70gJ1uOiIHLOjZy48tvzBv+0F5cuX2cwdB9hr9kfkX+eizIX+mX08j/1U+/pPkvVi1DN0HGSwfIp454nmv4m1e+wT10PdqhT7+9t1e5LjiTnS2I7x79Ph28+HctwkF78G2ivaA/tvCSF0MybNGgErEypxjGz21/Xzl2eh97OsE/ex7ZVNPfOXmG02NIIAovQH9Hnph/0g90UXRSDGmcUTjpST7IO8qJUMrRIj2ptuXQ+FtEDOAYQCYQMdDcMVBP7zUHQF6IM9xM37Uyb/3CMYBusXzTc9L/2PLSs2KttgWzyCfHI/S7mEWsYSVQB9c4CvCepaulu/ateUxyFucAEStj6zeV9I+NihplEZTM+dhA6B8Djz8r/UM6DvKijwWgyDGAU4G6iLj548AynViDU1QOtEWRaFs8U1tBhpIdAzv2Hi05BgYSW3BZzNr67ieCH7QCzfIeDqSn3vkwXb9gsZ6xnXfPt+fEszn2fL7yH7wU7ubti9hzdy9ZJThhP449/YLaZV5Jxo0jhOu5He+lZU9sTH3rn02jm7YlRd0+uVWLyOAeOMhq/9CTzwl+RLffeE9PGnkytiKyGLxwdHW6gW2uJKrNDjt4Gu2H/nIlLd/4gqIvLAftnOR9kpe3ihig3yz4sUhlxwA5Bv7lIwYgGAQNgOE3RjClmTSIh+LIPRg8yjChoCQ4Adk2vfleLdSclUWt+F24mp58/a10W0+/mDZGL0aCVgikTA+EAt5JwpJQnCAGGHyNAWbmC7GK6ec9jPRPAjRnJZYiUfMAZuFoJWFxffI9QqqpCyHsdiIsL1bQ2ELBCjH73l//bF8YJnhkSRrVG8TKuax/6l+i/cUgF9EFKLYILpwr/9axRJ5jPPD81z6u7PVHYLBCF0x8eYSgZccMzJk9/CT423Mme8vOTqo/RFZwxAnhdxg+ZMAkKQleTfYo4vFjtY9zyCOUdSSM006ymhcRAxh1Mf7BmiKHIivjMoekQRD0j76CEyjrCHV5lxH+fbGiEQZprNAzTvpPzgMMKpSKvd9yhuel9MV3F9IdQ6sULYASSCgRxqYyv567ml78bF/AiKMgu4YSmXRZ9eU0ChIHfnrqarqtb5WcI5wygWKBYoXzAcOAEHcp3ToerwjV1Vyw/5DtFiQWU3KRUPwtRJl7wqdjBbU/ceLF4Ut4w68momLYny2lgzA7spYqZDFWJ2RAKuQqVmARhhj0rCDc3DOW/kg2+84IOaId8FvhdgsWK2rgEKuabLl4/wvhDjgNvM1IY/Ut9gIyZ8Af4Sv4532FzB2nWVDSPmFQzJ/O14auF8WqGk40aJz2mSNOKBD8zv2gUEEb8Mw5xoppQjTfNZDYiwaucxQloaTgA3RJnTKEFLZbRAxIKIPXM3AMRHTEiBRIjhqN4wKvKEEdq1DQKjSP0QXTZj7Zx36ULRHnLqfONY+JHyAYENAwZ/Buwyvbpag6ZB7cA4YoKtQR8xfbPsAVK3PBp5Yq2Q9OIo4bun1gRNE5RERx/N2JK3+XYuSVLGVIz6u/zB9wY77BOfOZuZYF/foUC/hhwb8C/kTBVBSjbAQRVUT4P044IgbAZ/AduEIXwJ/+ovjQZ8LA2SLDSubClWsDJ1nJ1HG2S6QUsZII/qBE6shBaIhM0V2DWnFBiUMw99y/TsZ1zF1kkYbf43zA+QPvZLVe29VQbDsGJdhxSByYvJQ6VqyJrT7KYUH4fuDdfctWCx9RzEae2ppu7OxLNyzs0ZY0RxxxdBP0a/pGyYZ2UEwZC/NPlANzaP4h2OQIMvrMNim2IpWTD+IYAFbIRWjt5q5ROQHlANFWruCJ5vU4te3YRkYAd8EeXjJNhAlzonn5hR0DregPvAIO9BX8IJ8AURonzv2cjo7/IGce+YmQP+SpuHmY0M0hnULAKhrzzZYmtoywpdAOIeQcoa/hGChgCp1A51x2DLD6w2lA4Bc8EF4XK8vhdBJtkTyzJNdrin8tYsIGh50Dc3MMVJP3iScRfooCvLA37T52Uln9OZYQOviEPdjD90v3of/IPuQXybXgqa99fqC2FU78NG/tBNZc8FnwB9wBbxljWU9qxleMP/DiwjHQuBVCW+nyFjAc14T6s+rFwgj9/S15I5D5LAwMBP/93cLFOq71AJFZE1drGdLJj8Q2Iox+VuxvWbBY84j+BO1hFNAGmdG37z8iXRF+H4s/oS9BnyE3YqGGvsMXivFHTibzPVbyxWfZL79wcfr4xHfSk/Z+d0ZK/Xzhj/4j3pbhT9+AP/AF9ujGlCF/g6bR/TQv5I5AL5xG/j//wZ6anKyTv1mH9Tg9z+V51dz2r8wnUhB9tFSOE+qBJpH3wOaeleu05Yp8RWEQXVKkLvSn7cI4Zhb2K8kzx3DzDtsOb+vqnYJ/FvoP/JO5g8ahSxw38Aku+k1EI1sJSMSJY4CIAcGO1XciCoik6IztBJZf3Gcc5pPlrcAcI43shmfYEWn4+HvTfZ1jQLwh6D7gWETY8L0dTOhZK57emrd7XpRjQLlKSH6rfDEssAwltl+yhQb5hxOdvEQY2mxlIdoR/F+/7XVtq0GvQ79gPLZ/gJv1D55JV826FzTPnKGrECbPPny2VRIBqqgV8I6FJ7atKPlpbM0AJo9zahQncuw5UqMhaJj8bNhqbIUNWUTepaH07pfHFPn65Gvvyi7g3bc/P6STRz75ZlwnT0knnYf8l/O75NiXPBh9IBz7Zy4LL+k7/WLxM/KQXElPvb0j3byoW7rd1PBDjyuOtydiBTmO0wW9gGhPIg6vJ6pKumMsbsN/Foyif8SpVKMbtyjSIHhr4F5EARWOAZxEyB/wA4cdNhZ0DU6Aj3YMYJsRbfUv4hgwEcSgzWBcwmgQSDXDJCdgMKMzYfCeVjy6h9Kqp16oZc1/cMuriWRVrPgQioYiTbjulvc/VuImmCKMyoQOw5KQ6PfZ49lQ9162rCwhTAC8Vmhydnu86HhWtbragYIcxO4ymCZtUWdc5YiBqRwDaiNntef4JBwDKK0kDCT8DY85Jwywv/X6jp70+04SDi6WY4BwY5Rbe7XjnHPOOmdvHIZIZHMH6cLg4H8QNg4EE7gYw6KB9NRfP9b52/vOXUoHLl1OX12EgV8JZk4W6PFL6fhEhOmRLRNEREF/5OW3xUwwTFnxYkwQNP0pDAsSfdU7BlBw2UNFqJSdA5qv7BjAicEKB4wMwoXwYFzAWavaeMqzowWGiTeOfUx4eA+fPZ9I3LHm6VeV5fzfFvSoDkKY+h98TF5ZDPsntr+f/r035owVldc++FzJ445NhnNg7NnXE8fZIMD+YyHHXeHsWS+YwJgRbu4XeOx+0Ufgqv2sJBjsgtmGgwvYYDBA5KzAR5jgYLp1cDR9PnFBpyc89e4HSqQkIxkGoKNbQuCCv1xSSvoxyNijHWGgeO/LEQPhbY6jvDBCECoYVmS0xTHw4q4vZZwId/NKCHVJuZZSAvz7lE0WIczqBbRE/6FhGBRbR8gtIc8o21g6IyHSTTgGcigVkSxisB19EWp45qKUgxc+2qOxqS4SKHkrQDZ0Bx96LPb4TVxKT7+1U/ggZxEMsrZiXR8xIKEsx0A4B0LRKwvmghcFb4jjfshRwdYiHHPPvPVBItmV9l2yRwwGjzDs6EucycxKIhEDPQ9tEP9ifuA/KORkpGcPIAKblS5wFEUCuGFAclwoYXN8A60wx1KQwXvtaeWompVyEuF8WLFpc7p5UY+OyUGhJzmhtr6gVIhflY3yGCdtMW7z2bmWBf3O0jGQV5QwRF547xMlyuSMb/FhorCyYwBlzsoaCglOSJSLddtelxNI8OlBqR/JxnRfQkHDIXno4o9p3UtvSWAiNMELQvmga4y5RWNrFNIdOAVcgMmgFA7yVXDhGCAEUDiyaDAt2/BsYt81kWc4Bn7XGWGTUgChByUpXSOji3aWbtqiMEgct2zZwmGN01GnmuAEIuwvJ/UCX5E/KGg4gTE2OAMZ/hx8LSKgGDPRUGw3IvkgCVjZI7v76Gk5MaF3K7B2DDBGnANSMrNzaMnGF6SssZLz6Kvv6LhPVnzDkIGWS4ZtNjTEB0qKceuIActW05flfQ43JXFUyUFXxcNW9MeKC4oVMIFf4oR5+OW3FTFw5HQc1woOoS/gmL6hd1jRHcyT6G9Rr3gXPAzejVOSk3WgXRKNsk1CzvPFoXRJ4c9OkduX3K+VeiIQ12x+QfglxwBwy4pxGV7lcdYMg1k6BmxgwEu5MDTAE0cMVB0DYVjHNi/k36sffJSOjkdiVBwDY5tfVY4G4Rnh210h/+zYBjfQH0SPGFTZIShJr+EAACAASURBVM9/tjEh35Dv61/bIbjfNrRCuAruzAR/gA90OV3yxBvZz981Irp449Mv0onzlyISAAdi/4osE8IxzTn3bIl458ujcgp8/PVZ4Rc0RPJFLaxcuKpz13EA3NS/Qso58gmdTnPd0Ze2Hziadp+eVKg1xgJ8gTrQIzBQwB8ieh5/5R2ddPXYqzvTwy+/kxi/5LW2bkZSs4Ad+sdQ2rbrM+kfLCqw2jdf+Nfaf22H5oHjuOWkyPAXr1hYnDAlowEjD+cYx3lrtXl6+U99zBN8yoautm8oKiiMaNMteG1jmhKn9A0LSHpL/onYCmrjXIt73vaXt2tifH3x3TnJWErmkwUPcJAydNqLaevOXTper8bP0E1K/BPDlbniaDfmjjngAh6MwxEDhK2T04cIo8+PhfyJsc3fMSC9iyhiFn2qjvEs/9yvKEt6R34f/cmOAWyGlZtfkG7JCvDKJ5+NZJjoHjlqBdzEAfXm519JBn367YTwFdrnwqlNtJ3sH/IR9I7VklKig8IHyvKHiD1gFs7QcJ7TV2BKlBWLgE++uj2hPxOJZf7AvN/SC23GNhfspLJjwDQE7T//3mc63nfbe7trSfpw2r6792jaf+piRCT0RMSQkvqevaSTl+BV9A29ca7yP+YltgIyX4yLqASOScSpiPzGrkO3Rafa+/1k2n/qfNq265P0u45OwQ9eD68rww8Ymm6ACc9xhMEz4LvIDPQP2tfiMU48FmY7B1PH8jVZp72s3HGyESQnswxlPnqWpNuWrJQNg531wLOF/JHjK8t4OwZYpC07BpABRI6J7/5zHldoRaEgCjMZlTJ6ir3RBrKYFAYmYUoIyWxo4j0lSoA91kzu4LpN6WY8uqyadw6ndw4eS19duJo+PPlduqWHLMah/KB8yrjK5wObYFGS8BIj8EEQ+kTbKBqc484epy8mLqc9kz+kz85cSn9Z9mDNOWAnAQjjyw4Bl60cA7RFH+kfR8GRJRSjjczjrFhex37S3pF0PUnsMGAXY6T1aEUNzyrH7d2KIkOCsg5ggDG6TJmc7xxeoz0yn5++pGMP2St/19KHZOiyqsweITF69gotGtCJBXeMrkx3Luca04UiRRbwjmWr06IlK9OB78+kkxMX0icHj6cFw2PaM/7nIZJD4UkNQ8RzCEwKw6LeMRDKbeEYwBi1cctcQ2h3LFsrIsMAJ6wJ2Nw5+oDmkXkCblKolXhmQF7TlezxEZFcSO9/+VX6Q8eSdGvXMgkQQkdhqk+8ur0WSrhw7aO1jLookiseeyp9e+5HhTR+sP+wFECSe0H0RAzgqOBIQXkFL/yorNgoFBq7GKzxbSjdtfyhtH/i5/TFKfYZ/6RcBYwJRseKPCunCqtGAHfikR1Kbx44kg5c+SntPP5NurkvZ5kHJyv4a4/1DWw34ZimvKdOimJWWjEaEFpa1VfW5lGtWC9e+6iYIgbwhrc/lNMDeAJ36mEe2PP95+UPaOUUYxSBg9PtztH75RyQoQv8leRnafqPvpXp+g6U91Elb4pM2RznOZb+o2+1jBYcPcBx8drHaokEH33jr8FUYays1PUSVh6KBv9fev9TbV0hCqRzxQM1xwCOInAkxj13xwACl3ow1DDK41ivi2nnVycUnvpH9p0uGJYQhFYQvm8hlMfPaxW888EnxPjhISgq7x04lo5f+im9f+ikVqdqChb0odUlVnzitAzxIGhf+ShGRI/gszz7HT3p3YPHtbL3xuf7tPq869g3MlhxOqDMsmUj5s1HluWQNQmxWGXn+Xyugn7n7hjY/M4H2nv4+beT4rEKUyWKiUzxvSNycrGV4K7la7UfEsfA/c9tk0EXNM5RoH0KO8XA2/DWznTk8s9yAJO4CN5j5Z6tANpHefEHCWa2gCCcpYBJePfLMeCcM2ObXpTcUPRF55AiBsDzIxd/0FaCW7pJ7BWrYcwfeEfyQXgSXv+lT28VX9bpFZ0DtWzROw8dT3/oZX90tI/DkLEgb6Blxs6FwgNNWDbxHrIHOlDUQGdvem7HB3IM7DkxLtqDd+JIldKEcr4IOhyTIwHDAAMIWiMME+cHIbzKVTJ5Nd2+ZJXaqkWUVfCjbOiCn7+0Y6AV/SH/4SvwMPCY5LmRXPBKOj7+Y+pZ+6RwiDEz9ut7Mj/kFBfyYXT1K8oEBxXRK+ToeerNd/Pxt5eVM4KTDuC9RCOYrwIHtvhgkBMFtHbLNtEzc8UzMsArUic7ETyfNT2gkmTMNFiFr//7uQ2MmToG4JF2KrIadf8GtlmMSzFFhwC+Cilf2K8cQoTTI/+QXzgH2L6G3gROIreRTXwDnm7bfaCGP5z2gwy2/OVd+u5+u/R4xNtkrBWOgamOWxSeL14eERgL+xMniRAxQN/uGV0jeYLjgAUHJ3m9bfGIjEsc269+fkg0BP8Ft9HV0Nle2fuVTrD47eLl6caeFTo9ChySUU8U2tenQk8kR5C2zOGUZf+2jzYdTCRow3ggyuTQhb/r6EOPn+gh6JD6pD9298mRiRMXJf3IuUvpvS8Pzhv+6Ljoumx/QV7fPfKAjGjDP5zKyOvl2tqHPITXIXe4Wsn/x17/axg4kr+xRQIHW/l76xaa2ykcA+iR1y9kW+QKGeRqP+sT0JMWMbojqRyGIvo7C1rMH3mtcApw6giLe5y0w1aDDw+fTJz+JD6XT86q559EdoTMtWMAWQJPBBfRS+gHjoFn3/kgHTp9OX35dcifWPSI9+zkqNHdDCMGrL8C35k7BgpHfbk9zVlO3ohjANrEsb357fciz0V3LCjBexQlsXhQiwPQyPb9x2RsK6dT91DaeeSk8hl9ePzbRHQx/AHDVFHOJMNmfM70jwzSogR2xagiPuEDwBFd+avzP0qXfvzltyJ5Ng7pnIQUuGlxkUg/jqtc1CfHAPhKxADzLLncPaRIrQNnLqeX3v9cUU1a1FjYn3bsOZKOnf85bXj1XY2BiG+fFrDmmRcU3TRf+W/5i1yQLtbZL8cAObuga7apwKvIU4MzY9eRb7Ro+N6ho+m2/tbwgybQH6WLLhys5Yjbd/Z8zlEU8Me+BM+xH3AMsNWRKMqVm7ZoxR8nAzKkxj+JbhpcXnMMPPhcyJ/gNdlGpd0cMfAv5xioes7NZFzCWPFsIogADAnkACBGGiESeI3Y103JyQSEgZJ8hKPLMHjZoxTKVb/CXVY+86LOOkdpux/kWtSXbueYCurojLOmdURNDj29c+n98qJZkMFYQEZKzqE/PnkhHTo1KUbPfpu/DI8JgZhIJtsC0ePxfysY/WseVTIaGCGJAqVAkNSN0Pd8/AzhYCjLPCOZHQk82GfVufwB9Zk97YyD8qZ7OrWPloQiwIEVV1aqgmCj3yiWKJh3ja3T2cf0/+h5Eppc0ooJXishIaHdUwh33cuhZOFFjzB0vkGh5mK/MPMDMXFpXKxQVkLQ+h54VATA+NmjzHswJyvKGKFm/jByYC/HzOIl6Y5laxShIPjrCJBL6c4lYxGNoVMYhjJTzmG+vSMy3DAs9p++lD4+8r2ytZItnIs9iHcOjsmZgpLz7qHYs8vq7XULFysPAav2HGGJQr3r6PfpT73syx+UQskZsKy2f3rytELO/3r4Gyn19hyKSeSklTDjP408mE6iJJyaTCc4beDspcTxSjiNECwkVrLgJvswczi6aasSDcJg79/0gpRRjFHCRIEzv3GOISC42KfHfRgxv2Gu/EdJ5D333cmZUJA5g5U5BH/YoxeRALFqREZq5gCcZI/T1+MX0pFT45oHmM+dSxBSHFPDWeoo4RGuePPAmELuOXsVR5WieDqGlNMAvG3WPslfEOyMXU46723sHkq3j6zWthCcAigM4C2MkFV8+giMrUBb0HIvrqrSGvf9XpleQ8kKPF7/6tth9J27kjqW3y+4kpQSXGcf6z3Dq2qJH8EznBzAWjTAObYbtyi8D6XngWdeasl/gBcOCfiPnD+lEO+VW99Ih85MaFvLyKOx/w1lgH2C0BHGZCv6bfq8Gd1X7rOn32FvQb+Dol8rGgW8Dff6Etxa9ew2RWKg3HaMrtWxfsATuIK34DQGN3wMvIT2ntn+oZ7D85XXIx/ZSRg/q0raLjB5RdEbCo/mHOiOXuWfUcTAuatKRluWLxKqXUMybjB0WBFx8kHyN/B9cQ4x87+mpjhhMLG6wjz9ZexBOVzJ9s73jEHHfi4aUP4MnAbkIJBy00L+EKWi1VwlfxsU3cnIzTIIOD2w+WUp0Sgy942tFbxM41aOpTSi6JG4Fwd311B64dP9ylCvTPXnL2sfIqf6hCJd7K1HFikyibnXkX+E6Mbxuf+5qCf9qasvjJ3JK0qEeEtHT+0IMdUFP8pHXYFv8G/LtgL/5kZ/0ByrS8CBK/Zn/ijDAkNp4JGNUioNDxRkJdvNx10i85H98CAd99o7olN/4H1ebYaWLP+L/gb/IAKIsNAt734oWfD7+7qV68PtWe6hGIIjNtRZAQ+lvMqH4n9NAZTTNxYl6IPhzxzyn4R5HK8rY1Pw36tj9nyELRFMwj9WTTv60p/7R2U0c1rNrqOnpfvAe7lu6ehV8mYijtAfdh6K7OHMIVEXjkIjig1lf8snX6avSeR8alJnZCO/Qv6GQYy8lmGUZTjjF1/oGJYMuLVziY7sZAyEw3K9uuuLdCvJvhb1heKft3YKj9l73LtUEUMHx39Mz+/4TPqP+s4ebPIjdA3oNBaiQtly9/jr7ygK7vbe2OaHnCAcnVOduldx6k5fDVf5Fv2JBKNEJoEDJLOVfO0InJeTH72oayg9/8m++esfPcOC/dzhP1/5G7oL7aNDVuU/e6WhFxyvyBP0Xi7rkI38PfDX8tP81fonfEh5A5hjnQID/47E2f9xX68y55PMzvSHLkEEHYYZq87oPyR6QwbAW8FzeDMOLfF5joxdFFGk6D8spjFntE//2fYHn7aDi2+xA5CbOBxYLbZtgfzBKYZDAhksPS4vJLINAQfJfOVfI1+pl4/oHuIdRHfctzit2fKS9OWvzp5LbEch4Tf9pM/AEV2DPe4k4+Miqz60g2McBxcr1uA2Ucdrnn1J+K+E2eRekf0zLHmq7Sldg4mTTPQbe6Yjtr2yMAH/J+keNPbgCxwPHU4Y6IIx1RzY2aHE/XWv7lCf3iLvFidPdEJ7w4oYwMG2Zecnivb59wW9ur997xE53h7d9pbGRiQQdgJybuMbf5W+N1/5L5y2bpm38flYc8t/eDn6NXBYsXGrHHD0gd/0H9jTZ/RP69+hh4J/nJA1ULu/ctPz0t/RdTpXrpNzn1xB0JPkYteAFtesf5DjQIs8bE/JR057YYDv9n07rpwpW3d8mP7cM5wsf+gLfRMOL+gTzpCH6OjExXSMaO4z58W7D02cU9QAOQeOn43rRC615WD8nKIX/tgdNgURwfSjKgfn+r8s58q//1crxwCGZHicBpRZFIP/hQ/3KjM3SgBIDUNnfy0KEgyDVb1Dl/5LSZxA4AiPidAimMVbXx5RmKlCvbe9kf7ct1QCBuGBAodxyPnXZL7mbHZWCwEGSIRShpKE4fGnkQd0/I/CyklAMn5J+4hBDjGS3lhJAmhmlDUAZgMZw5jQUhCerQT0FaEvxptXyWHEar9zKN3/3MsiDPYJ7T5xOi1evU4MXYy9s1+KJ3ut2RsHLOK4tGCKZuxGQgy7OL4o8gGgrDJ2hK+8ht7PWjEGNIaKY8AOAoxmGA8rqiAnRMVl5Woqx0Cz8UMocgbkPTN2DAAPFE288wdPT0Zegwx/Gb69SxSCT5g2igkrRThWZFx2DiT2LLFPGS/lK7v2pr8MrpCDAKPujd0HZLgdufJfaeWz2ySMbOiSqBHhtPHt92XIELnx0oefpbsGlyXOfiab+VtfHIgVyct/T2u2vJLDD2PrBCstKIMohey3//Oyh8IpQEKybCwQXYEg5Pzfm/qWKtTvtwil/mVKokXIFmGS9H/f9xcSZ7yS7RiB4NUMQtZXPvNiwjGx9YPdus/pGcAGvGBFDeHBMT6skP2xsy/d0T+ivfEkbSLSBMH85t7DkbgHgZD3lFoxYG7Af5wCJyfilA/C2whxJ2xaymPfSPpdfxwLxPtEQ5BB9pVPDyhRYufYw1LIUc6btQ9TlLc7J7sikkKrMGwZeuH1OIbl4k8y+KBtO2GCzubvGAhci4Q79OOupSvCEB6/kHZ/fVqrVsAeoYxR+/HRUxGGxtnY535UVnQEirzgOQyVhJRaaZr4QfvzpuM/m975SBECWkUu5QRA8BKxhGMAp96eb86K/7DqjsIF/YJvNX5TpeFMv02fV99v8r/3gUflKIGXmn/JaMx5ERoVx3rFB5iSHAqeDUw+PXk2Da/bqP2Q5GTgVArgi3AFFzBWwGH2TiKY4dk2/LtXr1MOEU6zoD84Bx7c8rIMBhRAlAgMe56B4+SiUY6H7DiFPxBKT0JVVkNQQNl7Dl6RuwIHBMdqokTyPYYF+CElKK8KwJeIbDhw4W9SnJZteE4KBTQZSlyfsi3TB5y77M+cbv6f2flpbf6l3GaejGMOmkIhgWc7yzd7LzGG4SMc70ZeEpwv4AMKHXIEIw8Zs/XjL8X/D09eVL4UDNw/D41q/6icUKz04IyFf2aDgO9YeSXT8sCjT6dl659USCtH5LJFi6SuJC8lySM8Bscic8d3GBdycue9zdRb4N/UjoFW9LdgZI2cutAfSv1Hx04Jj3AKQH+cJAL+QBMYxncsWZk+/W5S2ybuGlktx6QXB3DqsvWQ1SJkJ0fB2rBvVODDAOKoSPgeKzwkOv5z/4hwEpwR3mQHini/otgiP4FX4Irx1zsIrCTF6nzMG3Nn+A9v2KLEpMse3ViB/7Ea/DFwScBGP+A/jJ/fhJ8fufD3tP/sVeX3+MvQcjkIkF9v7N4vx9rRK/8lhx0KP2HZ4DX4p615OJ97l6atn+6T/Do5fkXbCNF/Qv5G3iNWZXEMK2qMSJfsHLlryQNp2ePPpaWPPJPo/6oNm3XEMo6B9/YfS2NPPitZRHQPSdBoHz4B/TMOckEcOfe3dHj8p7ThtXeku6EDQuNDDz+p1VIMlk++OaPj79geeMM9i8QndD679K2L6aOj3yb4F3RtHgJ949hHh8EJ2ftQJLPVNjuiQTh2jNw5PUvTlo/2zl//+OiLND/4z1f+zkz+M/c4hoyv1iEb+Xu9YwA94I9DY8Jb+A57rT/+ZlKrx+AKRhXGC0YfethDz9XTH4YIiee8vY6tdhiWnGKArsmR3HcMLBNvxxbAKVDWf+CfyCNohwu6cp4y0dbCHtEsMgN5gfwhSSz78SV/hlZpC0PoFTmBcz61C/41X/nXyFfq5aPyF+GIQf51o/9v02lN8GqilXbsO6ZEqjamlaB6/HIiMd/H34xrZZ9voWPJ2v5lSogt++Ds5fTotjfSn9i62NkvvoVz7c7B0Zr9QxJIGcYdA3Lo2DmATYRjgEjRh158rbZtAzyBR4EnyCdkI7+598jrOxWZxvyRIBHHAPYWyQfh1dA1uICDl/vv7j8uI3zD6zt1Dx7PyRXYShjWyx5/dt7y3xEQ9JsLp9W9Y4X8X75pq+R3HIU6rH7hsEC+sLiz7vnXBX+McHAYXQ/8W/HMi2nn4W/S5vc+rc0dz8gxgJ6DjEFesR2QaD5gxRX6x9qa/kECSOYOG0Q8OG+F8QLWax99Iacw8mdtRf4ASzuOSFiO81iOgfGL6fjZC1qULDsG2F6Ac6DsGADHyMcEDwWPsAOm1Sub6InmG9XScq5atnQMoLhhFEFACOmvzv+cDp7/m4QaXm8reTBxmLn2kJ3/OW1+b7eUIZg4RrqYOaGp3UNSmt49eFIKJghJ5k4SX2EwffbdpEIrQXragrHY2GBPFCumMEUGSMQAIWEINO1bP3c13TW0QufpIkCUF0GAij2+TGYNMFkxZz87nkqQBYWOMZYdELcOrUq/vS+cBTLWOwfSKyh0JNci2d+lnyXIMEgJcQUO7IMmMQh7LdX3HIqK9xFFC6cGl/uvbJUTl7X/9b5la6RI1RsWZWaVFRg7BqgLwu9mD+1o2nP6cto/8WN656vjqsdbOGqOgYw4dpSQ6RMiRxGbavy8Z8UUwgF+jIG5wNB030FelHUZEv2xb5uVLrfDdygmODA4lxcYEjVgBZL5h+FA7Nx74s2/1gjyloE4bu+6+3rE4Eg29NLH+9OBiTgrnXYJDYdJktyS1ZbHXo+EKYwb3BMxZUNNym7vmBwDHBvDBQ6x/5jwSBwQ4D1KORdjEM4p7HNp+svwamVsJXIEAUkoME4ADHkMA/5zAdNn3v1IzArlGEEMjaD00UfeYbWX0GrwiX3ZFriffDuR7h1bG6vVGX8YA/0Ad5gLIk7IKQGzMf7fMbxc++NRIBmD9/JhELAnF5o6cO7ndHCS5G7ky5i+feAHbqGUYFiQYErGXO9oevvQd9HvU+ckaBCcove8/Ub752rZhL3PPvC3yohqdJkjCow3zFXMXT6WKnuNtep0+rw84B8c+z69d/Br4Q/Oos07PhIegUsIajFUtpMsGhSN3LXk/vTOl8cT/KsV/4GPMSZ4yR8HVtQErengrd17hTtfnpoU/j/37sfyTmMEgu8xrub0W4y73jCZ6f2eB9eHk7VEv8xZEYpebrv8O9qz0o8jFlhg8MMLwU34GPwc5yYOMUJ5u9Y8qvu8c+zS33WcEQk+P+IUkUt/E//GIAXPqYM90ig2GEWURGxAF1ysroPPOHqBFTwF5eDPI/dHpuyJHyTg/T2rBigK1A2vxRmtEOa899o49ZexdcJzZAjHDcEDUQroA05jTj3AOcR4W83/c+9/XuMf1O95hwb5zWoW/Oj+za9KLpr/7uPo0skfFTnHyRgoFSjGVoT4jWMA+cVFaCp84J7R1TLAeA9nqngv+Oekn11DylRN3Tj5+G7v9xMqMQzhhURkkIcBGLO9C/pVfflUBckgnA2lowwLfAscmSn9QWNEbpn+UHjhecoFcu4HOQbMF+gHdEEkh+U7W+1QNolwQ3by/bGr/53eO3pK0YngMpfntuhnzAXOKIX2kule/POntPv7c+nAhZ/S4ct/T2RfxzBB9sJHLHsLg2pqunN7ijJA5uWs+MwbmcL3nvsxfUEYO3z7+0mV9fC/LPh/9v05RdtAO3KQdC1ReDaLK/BhR88gv5gz0dxEIf+AGTKTdqENHAJcKPybd30p2XW0pP+E/I28GTIK8mkY3r7COIYf36Kwe/g//WdhQH2fvKLEaug10AUyiv7rCE5WzEhwtnAg3Tm4Mr352aG071SsHsIz0OdwLoJzOLXBO1ZL0fdwhkB3Ll/+aK9WTJHzOBDIJfH2vsPp81OToUNOXBFfR4Yzfvi2YNARDi5gwfywFWf++kfQzNzh/8vKX0WrZfnPmJlT0e+UsgXarcdndHf4CPSPDCcCCqfpnrNXxCPRV0x/GEvIzxNX/ju9f/Q7LXh47tkmy290I5x78E/4sJMxV/UfHLvwKPin5jDrf6Yj+Bm0aIcZ8gd54WhQ0cbkT+oneYKQv8g0xo+8EG53L03zlX+tHAPIJeCODoEcWr35RdEse9TZQgb/g1beO/KtdEDkJQ5txs9JPaF7RLSLncN3Dq9O7+w/qRO54NdHL/6U/nr4ZHr9i69q9o/1w6d2fCyeCf7DB+EBGPm3Dq5Me+Ef535Qgl+cdhiw2C6MCfii83EBK+6tZ4vIObb3HBAvgh4Z07aP94pmST6JnIRWkbXMMfU/+sr2mlMTRx08mvvMF8cZzkf+IxcZD/2mrMp/5DfjRsZyYTv8Zema9PaXx8U/q/o3zhhgH/h3NW35ADs0nJqMFccAfQZ3O1at05bAOPp0RHhVtB9bs1icREfiPnwH+oL+7BhgYTj4ZaP8OXL577J1cbTAX3Hes4iNzn5i/Hw6fvZcqjkGSnkGuE+0ANdUjoFo3/m+6um9Sv+t/lvOVcuWjgFWCFllBjCsVEDon317XkrQV+M/SCk1MSMQ3t5/QpnAb7i3RwIZhJbHsLZvBuWcfZv9QjgYE0TAZAFIJoyLs403bt+V7luxTqv4CGiIFIRnsJSs2GGQAnT2gyCgMOxQ5HmXywqAJ7IGqGxYw1gQZiglHJ1ooSNiyuGiYRRyNCGJQcLzT3ZSMnOjoCLcbJBCMBjlhIDBEH1ZMaEuJpaSFV8UOwSzzkad/EHMGOXJCon7X5QZEXL/mdAIzVqabryvN+0+dTF9NfmTVvZYpUYpDsUqwjE9fit+nMmOkl8//vA0wrh5j7BTvqPf+j4nHMHQNPxhcODB3TKsI78A39m4hkFdxz61/tEg9EX9CUZEghuYKxf94D8JlVAo8FazNzj2lw5JIbKDCgaxeccnGf5x7iuwRymEkcEkxVCUsCiS98jAzOMgYuC24TUJperAmQL+tw8ulwDVPOWxAwfwDe8xgpokPBD7Y9verjkCzChhluAThtKm7R/IMIUBw3BR2h55+W3hh99DGWI/NjjEHABD+o/wRZCAP8ZnBCP9clgxESc4BPBEGv8NfwkI9kENrNCcgc/sayZnwI6D38h5hGE8ffuRuRjFDKZtYwVFo/vhp9Le83+TM4aoCAmTHNkArgNf9jWa7sIpVyguVUZkvDSeGz+Nd3hygYeOMOvoE4MnWR6CjrAvYI5jaWzDljS4boN+c28xe3QxsBYNarWEiCDgSUK7dc+/qfmbjv9wqgHtwkswXIEjc0C/mIexJ58R7crBkoUN74czA3oJQ6so6+m3GPfcGHyZfw08/JTGCd4rZLjE/4r23Z9oD8WFFW2yILOV6pXP9osGwWfgAny7HlgfSgdRNAt7FZmA4kh0hI0B8JlIMBwHeOyBPd/7VAKMQ5RAhVlOXhWvJxs9tAVMhTP0t2soLbj/URm9KJY+x5g+8j18FTqhf3xvPl3j911L0j0rHxEfJGptdBOhgDine4WjN9zbLccxSsLa519rOf+chAHNO/SV+YIXcIkW8k71TgAAIABJREFUFw2JH5Ckq++hjYrGQT7Sd4xfjOBF96/XuKAhFCF4GPKUrQTB/3HGXNaYavyHVVp4fN7OZryDBjlCk7ppg/wiR+XYvpwdq7FSL3qYvCo4IH/5jvbNyxQtQP6EvAe/wMPAj5nSH3wbxzK8G/rD8UPkCjKcPuCYY+7NyzBMnn73Exn+wAa5D56AP1x8t/mvn8iAAY99NfYz8JeQWByuL+zaLeX8w+On5FhgKxqyEMdARGqEg5HxM1aixiIx4NR05/bAK3ATegIHDH9yGuEcYGGkgD8JY2Mswv9sJKCYgr9c8CF4Dzi5eednMopJIMzFN8gvyz/JwGwQgDfwdDt84evPfbQv8/9C/7l7NHLk0G/GCt8l6SWOARkJHYNp6LHnRF8sINB/TgrAQWHHBnMJfQHDz85c0GoZsphVY/rPVlK2oj2/c7f66zmELtHhXt9zKHWsfljjRV+Cx2C4oI8o+mhRv45m2/3NhMYdTqzAF2CAkwG6h2aRf+AveMBvaIcFAgyjrR/vn7f+gVNi/vD/peRv5Dqx/AcH4TsFrYK75ucu6/EZJz58BLjBW4kYwNjE8SbHYon+MHChYULKCWEPQ7PQw27ujy0F4AG4iS5DVAh0W9V/dp0cl/6+YOXDmjvkIfITumIc6JLgJ7iB7lCWP9AAOuy+cXDwBx05zLfSv9A9cSDncr7yD7gINjWHiuEYJX2FlsA/6HjlM89rIRG+e9/ISulqJBiEb2GkQjMffX02LcToVEJuosVC58AWuu7ubq2KQ0ePvrxD8GNBi0S9ZfuHOtEfgR/fgQPGfyI/WKTAMQDvJGoV+qJOeDz9RV5YTklfZMvbtrfS/os/pde+OFhz2DHH6OH0m+gE6kFXRc/CMYBN9/BLb0n2IjPh5RxBy2IMY56v/BdPU/6UcGo0yv+tGjvyg3wX/3Zvr+QtPHTt1jca9G87BHadPJM2bv8g3bfiQY2JcTEPRBDSb3gVugo5DogaAFaSDTX9Ixa5OWEH+YG8Rg5YfpB7Bb5q+fP8R7t19O4Hx0+lo1f/O+2ZRP6cT38iArl7SLnAODWORTwcAxj/ZceAHQG+H9sILoi/oxtIhuIQlU0afD106np6r+cNrZ9ZzlXLBseAK7ZiYALGKAY4ICmZV/HakFgIrxheFSYAIQwBsXJNQ/LQI4QBqFeMF8MEekNY67iipVoZWPwgdT2t8ygRbiA/wpBvbSRDpPTPkwPCRwha7IeFwUActMV3ME2AV748PofUw5hgchAISAmiuj2yXZLAg+QtGFUQHM9DUA1K8N2z/AEpzoSc9Dz0RCCCVqjDy8/79Ie+w9xQJiFaM3RChwiDwdBkRQvkJ4kPRqDfqS9jss3QQGiEJO/f1p8z4rJSvxDijlMPmBP6wMX4Y24DLlJSYLJ45XL2bSnBUp7Yz1Y4V+gHW0+U8VnHUy4X/AlzISwpFJ/Yjx3wL+aKqIs/Dq4UDgFnC3sM/HtHH0zD659NC8bW1faU/fYvXXIieI8c++WZMynX8iCy9yyOOLpn+YMyGAhBMhP97b2L062DY5pTj12lCCscHChK7OtkGwihkMAfhgieo0gJVtmJw2/mECbBeag4XFCOYNjgO6uCnJvavfaJxL509wMHGd/YIIW5A2tydeD0gvGAO6zKgkvAUG2QyTtvH6Df4J4dG+CQ58UhmDgf6uEfdABe8L3pCNjTZ3ADeLdq3wqpaRmag/7AO36j+CHUaZs5BS9pk2iBcsRAgcOBh8bfurkRflYEc2bGgkFnbBHyKi1zQNg4YdXwDFazwCdw+rbeURkjwJoxwE9QKHEwMDckIbutd0ywYC6m4z/ADvhTMnbGbfwgfJK9hzBu+EgIEQy/ev5THj+45PHzez4XfAuc4irTbxlfyvVX4S0cy8aH4QoM4aPiCQpdC75o5YTnJKNa/MATgj3wZ+4ZO32A9/g332gOWO1YGCeX8N+GohXGMLrC+MLR6RBO7avOhrS3eVFnzGGcbc6YqKc8T7cNrUrXLyjtrWfFFafeIIlYw1FEH6lruvm3Ygg8+W3ZY+eQ+wL8+c24KMt9sUKsPmZ+glwl2iH4fyhcKC41/rOoX3hBxA/5QWhX3+QjFeE5gquy+S+V4saKCngIHdAHzx+8EBgJpvCSnmWKvAs8ND1aPsyO/u5ZtjaNPLElUdIueAB86R+woA/APRSrkLHXsx+0f0zJA+GXIxu2yimPEwa+xPvweYzwKr6WcZnfwfMit0mZDuBz0D2X8UN1ZceAxl76Xa3X/5lzy37mT8YJ+5770XEIx40wbJxWKNRS4PIKVfDCyA3AWOgTcKCf6ssiklsuEd/H4YUOBT0zd//n7iz/aEP8KxRT5q48f9Z/gv8H3VK3eFUXugbO4VXCJfEunJoax7KMP5EUmFBdQoVR/hkH/YA30G8iFK4n4sd5FfpGJXtvQTfqGpbxAg+Ah2J4QrOev1odWW8qzxH8Gwc4so+96zhxY09wLMJQBxdwg5ahQWiJi0UG6IHxz0f/uDbw97aVyMXCvDPPzMN85S9jF65kHQDZw/xb/hdyxXRbL0/i3SWSf9QF3iILoTPyd0F/y57cqmNFF616VPqnEg2yGCQHdyzIoHvhZGBukaPiLTJY0fdHUu+6J+v0H9oCb83LQ+elb9F36QZs6UTHycmhwXvkjvSILH8iMWdE/wJL5pwxoX+gv81X/jWXwwFPYA+9MF6MSxwDONNwDNw5FJnvkSNENQyuf0Yw5T/1MjZKR7q6LRnwnFDTGUc54gwG97GloAV0GXhgyBHbJSNhE3Ak98CKGlzDeRi5dahfW3YzjOJ46kh+CszgY+Y/wI2Lb4A38+r5pl31OeuqjN3zYvql5JQ26H4+8p/5NE6DI+gBxhnBnZPDdNLccN6SHv0EZ8Rrmujfxj/DnPetozAWvuUedAQuAit4pdu3/mJ5BC5Lp9LCAHZNbEm2/CGaRric9SXmgW/Qj+HNnF7lrQQY/cfOjGvbAKcSVE8mUMTAWU6ZKxwDzLN4AXoIp3Bh1+pUnHp6t9yab9nSMaDJ6h3VIEEqgMmF8s3KKYa1FLaScgrSWKGiRJha8QN4AIwJU106izfu8V0ZuHqHTJ2s1GbnAgM2MsEcJMRoQ0ejxMoObcKAyMJadgrwuwawvOJOpmOEH2MDEblAADIak9kYI1gXe0vwwuWVFxCB/e7sPQEGeNTxENJ/EVl2MlCfGbtgkFeb6BsrFhijKFQI5GCI2YjPZzU3Y/xGeGAgpZH9RDICM1w9T6VQTMEOpVVXOAaYAxgCxKLfefzUSd1lAQQx2DEAU8O48rnvIK6dOcCJMWveSslyNF8ZPsBR72MkLOhPt/ePqQQW9AUc4TmhcPJ65yy+/+febhl3OE9+vzAMFiv84KEdWMxBzGvZKeXVokjgAzw4HpA5gEkCfwt0xi+45igJlBHhRjYqeBdFnL7awAB+/AaPzdj5zbtWkmFIMFr6KuWZ85U7cLqhjIVCwbg9vzXBVDnPFrwQ/ig5VBilU8HfRgk4Df7BXMRg8JQridP07Rvf6YcZIzwB2GAcg/uMNeqKlV/aAVdgtKY/47FpoTy+4l4oDn6X0njo/sMHftfBeDk+KZKC0kcMPsOdeZCSkRU0FFuHVIJL5iscGQq98h34RlnlP+4b7fPb/MN0J5qXIRS5VHhH7zYZv7/3+P1/ziXz2WH+FXQH/LkEq1KfacPjcQkugDfCi7yPERo0TwAuwITn4v9ZkQPGyADGAd5i7FHyHjTAu8wBdWs+MBZyQljeo95QfMKJQn/gX+ArfEM8XPw4G1N5tZ25pj8ouNSLEgFdery1ecp8N+i5MOT4T9v0GxqcyfyXaQjZw9xj1FMyFtVTcohAD/SJiznge/NElFnqgHa4zP+b8R+Sv8KvaQvnKnxNuOO91ji0MZrgSwsHxFPoE3MATQKv/xwm70hs18CgQhEDFyiNBy7LtDcT+nO78LUq/dEP5lj38x5p5g1jj3ljroA/zlPuGW8YH/PEPffLZZVOeA/+yjhpT/Ut7KvxOM8D3wddhoOFOYC3VOur/rfeQXmd4B8ZyI1HzJsSY7EymxMratzZgQOucUEXlDF2+D37WVdIf2BlnKS64A3jcN3QDr9jzqP/4AEXeET/zX+AMfQDHQjXupbppBbJiMXhyGQbJs+BA+3QF/p/473dcmqyos/iCnMGHEXLQ2PhFMgh6Si8v7mnO90+uCr9bkHsCwYH6CfvM3fIYBmPOS+C6+I5v4WbrGAr70ZE80iHyg5KlHH6xvipj2/oNzhccxD0LZeBOF/9A/3t2sB/av2nzDsYAzAwnGYif8v4q7nLRrHntUqvVfxlzrUAguGX50d9yE478MbRvdLn8wli9I05YL5xChA5LKMz54qC5ngH/MP4Ec6U9B/mLvhs4C39wjjlWGTn95BuWZI/4KQjA/kt+HQgT8CH4FXUwQX9wss8lgL/oLeZyz/x0nxaVz3swjFAXdAqNA2sSNTr43JJFAsOi79lQz5gErADBlzFAlXsYQefoUEMXvRmLpwO1OMLmlKbOcze/Iu+cPEf3IBu1KaSIxeh7uAF+hdRmxi+8Arpbd2xuKZtIdkxIFiXeC6wZO6BDc8Yo3gYdkLWG8v/6edc5b/5GbBHHjLPZflvuekFHcNbPCfrnfCTZvgHfgBv4Oq5oaTP1AEdcQEvcNPt0w7PKeHL4IFkUClHmb7FwUIuNUfm9CwRv4RWgBX8FRuV45XZFnB04nw6cnZSjoET443HFdYiBlo5BmrH5RY6aT3+zu/+/2pVGcjEOyHEYkUEgDERrPyDQAAeIIDsRloAqUnNKx0QM4oIiGBln0mQkMuhQSBEDUFQDrMQpISJ4NVhApkQfnMvGFQQFYTC5HGfUA9CRGyYuKyNNzsGOCLD2yV4pj50jujsVx8X6ASN/IfJ/ube3tpePxAAIiHED4LCCOGe4QYDC2YWfZex1DWSbulfqTEEQocwRrCLKHAYzMGwMPNgHsQ0sjEjJpINBMPBpRhUSUG04gpDMYyBuWHg0sfIkOhO486KBHhA25r/jiURXUCUQTcMPYQ5DB2YqC2UnG6EDISK0rA84SX2XCLYtJUBQ7xvNCnnw71EnCzXd4KvFbwMayt8zAHPmVcpUX7PsFA/w5hhDmHiKGHgMHAhWsSOEOYeZ5EFBXNFH3gP+ILreGSFfzmKw0oMz2r0YAXVjJ2VJuiHc2JR1GAymeboN3CK/kfSLDOygOVyvS+awnGS8Z9SMFzICQkjOs7PfWSMtIewMr5O1z40Cww1D7k//AeeMjCUkCucJoZ7ub/Me1zBqCRYsjEJc64dH5aNVr6NK76DWSPYxLR7xoRPPobsdwsj/4Pez6GKwBka+s09PSrpK6uuhE5jzAm22WibCf9hTDFeVmqC55j/0C8EJxE7CEZ4pHgD3mecZr3La/ynGRyK8XrcsyvpH+NwPQX9Ri4W5n3qC+Uicp6Yt0OHXqExXlMv4zctgY/QR3jx4xn10y7f8J5wDQcOc1K6z3/qU92ZbjiWFQes6Qua4T3jmOHv/5SWC6LT7tFEHY7uogQ/eIe2wFEUDn5TF7+N06LJbLhT71Tyx+3Dj+3MhYcbF+ir6Z76BIO85Yc2uegLcKMuf0cd1Gf+H/wnwr3V954RyS9wCFwidJx+M2fgnBQzr4p3YXDiKAlHBEa3eRj94b95Lv3RnPQs07350h9zTR2aay0g1NMffFLwyY5m6AM6pB+Mh74AN+aFPnue7XgxDAv6MT+Jkvf5XvVloyHgHMYDv3nme/w2/hR1N6c55o33oRFgLNzO/JwxMw9W4FFC4akYxkoSmMfsOjw26mPc8FTeg/9S8j0OTNFYphX3V3Ql/In+UBf1IC8oNU7z/844WtXRjtAEuM088K7eJ0Fz1l2kz/VFtA+KMI4uGQvwvpxj6DcL+iSHmRfhVifKdjjPa/MHPFDs+8eEr2W64776m417xgM8kUeOvjBeIy/hA8LpPLea59Lecs/pfPWPawb/X0j+gguBp4HvyB7rkPCkVjhs3ABvRV85wSs4xwVemOdbB2NewRXeF/5hVOFozPinehZa/wndn7mLeYx2QiZG1FPgbvBP9Erptl2xR5p59XZH1w/P4Dd9DhwZFH83nwefkReUvMc7hgN0RZ3QFrCjjqmvkH/+rlkJ/4TO4dPQhk/wYessyVKBn+wc+FmWjW6P7+gfdQMDaACagBczL9QNv0Dvg/bt9LUdAJz5zfiox/SkcdmuylE96I+CBac+dJA0PGwg9s+j64M3YUOF/LbObvziW/Wppm/Gf+ApXMARk6N+PS6NN/Mc3pPsm6X8lw6V7TnwAtgwf1z0SePOTmTgAEyAOSVwpk3KZvo3feVd+sp75d/8r7Zv/YPvqFuyK+MQ3yK/kUV8BzxryYEzn/QWPcEV+ZzzKxExUDgGxtOxs2fTyfGJ5C0ElHYKTBUxoEg0HHuad3AKnC/wvhn+zvV+S8cAyAxSAxQmBCESCn1eLVG4XzwDiT1RngB3jImuMalsVATDCAQ08fCehUgAwUiCYEGAl1Yju8IRIcaQlX2QiwungM/ItBFM6f54KwHH0hGmLgEIkuXzjVEuYTy+uK97NioJrUKo9y5VBng7FxC23DMjYMzRZjB2+iaEyoQKArr/QtzsAGGsejdvhSgUo1BibGDVxuN+ZSIA/iLgjNR+rwwLftOm32Pu/J776XYNFzHjLo7gG9UFDBg749bYtQoURjXwQum/dWB1+u19AzXGpHnN5/lCsFwiRDKEZoVDDBFHEavtUpJjjoCnFEvwBOGSmYj7beZmXPN9l7zPb/rAxdy7/+CE8A8Gn8/BlpHRsaQWQWKmZIFAv7nEJDPM+W1nAPMgxl4SUPwH1jwDZmo3ww+8QVAiBCwA6G8Z9z0nlKwo+kxg+s6YNI8Ll2h+cODc0h2MlH5ZCBEaWjfuJu2b/qk3+pGV0Gwwmtn6OX0OoRxGdNHXerwteEgYFtQjXMx47O9sSImmO4a1CgYOovSiKDB+MePM9IVHGbbqb04eiXMAJs550jUcyHhgGhWfq/Af6uCSszGfOUzf6JecFjn0TTisd5cpdFf71hzyJb4T9O/6mtGvn8+mdP+ZA48t+lxEKxm+RRmKEfOLMOZbnkF3t5KlNwv4Wj1EbvWP6V0pcvCtbBjQPldZyaBe+sJ9Si7ueVy1vmYlz/QGHLksG3ifestjLPeJ7+xcoDSfon73y22W+1Cuz7+nmv+i7QiBBQ+sTICT9BWFiRK6Bn42wGiPflCHlTq+B28I70bBB1/r+X84knEGIL9Q8LgYA/1EmbcSiXLHnImPlBQljFjmz7SgNpyEKsOFfjEfrRwDreiPthm7++E2uc896wOM3/MPXDyHhr1xx3PlufB/84NqSZ3UzXg855TFd40ygme8U22z/I1/01fNY4azeGt2IsUYI7oh5iLmh9Ut959vaccl9w0H9SEnE7T8VFvZCLCRw/ceJ/3iN+9xNfL/0XCMZZllec28MB8eO7xfzgj2FLO9M6/wIh8wUHiP+uGZiloh+SzH5eXoFeCArOY9xkQfuZhP/nPRf88FdfGc990HStrDkYKDBZ4oXM0GgPmAx+tv+W9H9Xz1D3Q1L+ZoDjLNglNzg/+1lb+MGZjCN4z70KSiYXUv4GnYVEvGwD3TInMNrgJvjHnTKbA2L6CEfzBn1r0owQPBJNsCRO7Bi7ioj3qZP+qy/qO2hc9hVKHH0H+HQzOXlj+8C9yRM+CP+y3c7Sp0MpwCyH/r4+Yh4Jr6XJPZreUfbUx3ma85QmLV5pe0R52oAY7mpW/GWYxKxg5MzdPLtMHYTMv0U/Sf58MOX9dFHeadyBTe1fuZl7heYA/cqZd7yCbwxA5lwxlZxcVYgRd4wKXfmb/QJ+pgjmv1dy+t0Rpyn/vUYTjTJ+pwPTzjnmmW+7zLxT3DmnfifjjLbe8wDo+Fd1yf5wG4io9lPDP8DXf+l/GP39wzPvLf33MfuhI+ZnuL5/7evL48F7yL/BaMF49K976eyNuc5FX6qPvNQjORIB39yiV0cPy8Igbi5IHx9PXEpBwDdgicOHMu+bJzoDH5IHAzLyjgabheq7KlY8ANAcypLj+feWkF2WUzwvTz2ZVVw9f/zVSr/eQ4PYQdF89qimV2EFT/8w7v6nzg0vFl1Xob/89tHEW//X3uZ56Pct/r2/T79aXh4bKx/vr3/bwKB0cMNMAv98vP/Z3rcX/L8JsOr/x+tb/Vel1/Y9kMv+J+tf+Goeuvln7+P1dOPR8e542lHBq+R58Nf5eGsfuNQ4zL/2deVvtj+Fbv+7+fR2mDuCjr+UpjP1xPtYQpjtbRLt82jjPT6xRwCnjV969ov9pe6//G0alKz43rr/bT92dbuq1q/a7H7TSW4RiAvqZ7l2cFDTa+62/nWjbS1/RwLveF3zP/Pvpe/b55v6fvRzN4N9Y303pavVfAnjZMP0U/qt/Xv9/Yr3hexYvG96r1+n/QX+P7zdr1d9Vytu9Xv2/1v1n9c7vfGl7T1ztz/GtWT/14p+L/4ITpohX/pz+ew/LYfI/nltWWlTzzu9Xx+L+/d+n71dLPZ15Wxl/V3+agf8y8bWBVaX8KuXJt5W99e9X2Z9f3Yq7L33kuy6WfTzVffg8Hgt9rXtb33/KqKOvli9trHGfUY7x26XqK9+v75L42liH/mvc76sEQxajEicIWlxXPvKTEiCSwI9F5q++L5/VwaNbf4v36cRT3q/VU34vnhovLZu0Z3q3Kov1qe/P9Xx1P9f9862/1fX17xqsGfMn2YAHHejhX7wMv6IOVfo4tJMkwOQPYRvD15Pl07PSZdOLsuLYUkG9AOQfIO8DFEfBnJtORM+fTgbPnEkdjksMttqznbfpELxM108KxNdfnbcdARbAwwTXkqDgHYvLbjgHgY4XDSoMZC4goosrvGJYmHL/n78qIWyZG3/f7VQZXrdf1N5bTMwb3w+24XddfLf38f66sZ1zV8aEYTqUc0m/PEaVh637/Gh0DU8HJ8Ggsp4d7dR6Mn83K4v3Ax+p8NLY/Pd76fbdXrd/P3U5jWTgGwP2p3uee6cJl9T3/n2vZSF/Tw939cDnz72OM/s5l835P349m8G6sb6b1tHqvmCPaaDsGWsHLz+vh1jg/s3tepaPZ1me8cznb7wu8i/FNx//LMsD9dnvm/9V+NL5XOAbK7/o936uWbsdl9bn/+/nMS89rHj9bACs6nPo2B/1jZn2otP+Ly9/69qrzP7M+zwzHPaeUrtfz5JL7fu/X4BhgtZ7oUPgtUTUkSH//2Om04+BJHXtrOLUum81jAevWdfButZ7q9/HceoHL4rv69z2vrcqZ9a2+7pl9Ux1P9f9c6pzNN/Xt1fSJEp6bn/CsgGP8boRvth+zY4A8TLcvXqojbQ+fvZhO4CA4NZ6dA2cTeQZ8nRyfTL44zvDYxPl0ePJi2nf6XLqtJ3IVkNODiC62B0Z/ZjPWmb87Y8dAdZLNHKr3/b/ZcwPSZRXQxf+ZDcL1NCtb1VcQRP2k1xCkqacolGaPd+5lfbtFf6v36+FRg69zJZSYefSl+r3/19fT2F71ef3/KlwaDeuKYyUTmOFTwLswOvyM0uOi5H/xfiRLdH/dD/9vLOv7XW6j/Luo3/NpOEVZ7o/7VP7+l/td34/G8cXzVophs/573PPtf3O6mx7+7tfM26/CY/YRA1M7Bqr1+v/0/Xe/m43f94t5q69v9uOv/75Z+77v+quln7us9rNKV37u0uMp3pu6X65/7qXnob50P1zOvP6ox9+59Hgay2s9rvpxuL359qPx+2vdb9dX7f+1ihio1uv/brdV6ferZavv/Hyu38X35qMuZ4qPs32/Wb0z5f/+3u1WSz83v/D/6nv855nfqz73d83K2b7frB7fn6/+4XrmWs4U/oaX2zEc/L+xrOJls//G4/rS7bms1u/2KcvPqu+X3/O7fmdmjgHX36z/9ffNz9xuuW/8dtsui/etH0Z7fl4tq/W1/J+3ClAPW8TYMkGuAZLZsb2g2fdut3ge42zW3+I9w2u+ZT1cm9Vf7U/1v+VU8/Ja99P9nlm9zfCk2Xh9v/jO7bls1a7fc+n347/1IuZfEQOcIrFoUEfC+rhCHUUo58DFnIgwIgSIEihfRBc4YuCWzl4ds6xkhjphYVS5QTyea122HQM1xuiJrkxwE8fAtZuI+nZnSoA1xvM/7RiAOZciKaYSzIyh9k5m5oaXCbJa+rnH5ZL78a4Zf/38zBRerr9aNvajfj7cD5fV73+5//X9aDbOsrELU/d7VfhX++9xz7f/VUHi/63qrfan1fvxvBhfjHN2WwnKsDKcmpdm+NOXHm+zsqi/vp65jb++DmBSbddwdP3V0s9d+nv303jj/37u0veL9xr75LrnV1bnOv67Hy5n3kaz76duZ+b1znT8U7dTjGPq56360fj9TPszl/eqfcQ5MNN6qt+2+j/feuf6/Uy/i/fMR13OFB6zfb9ZvWWeBi5U6dP07+/dbrX081bvV99rVo/fq5azfb/6ffX/fPWPan2z/T9T+DeDa/P2irn0nE5dTo2vbs9ltZ1m81B9f6r3/M6vxTHAnnP2mWuvP1n5c2Z+Za1vwv8MowLuMZ/m1y6L51PP49yfV/Fn6vrdj2bl1DhXrnvqemfe73Jd5d8zq9f4OfP2ot7iu3Kb/G7V7nTv19s9dgzc3DGY9p++lL46fSEdmbySjk7kyIEz5By4mI6NT3FNxLODExfSgclL6d8XcepTnBxHbidO1OJq3d9W45n6+SwcA1WAVP9HAyYIhzq69ACqCFgg3tQd9HfXvpy6/zNvJ5Bg5u9f6/Hl/tsx4LKG2FOPrzo/Bfz9fu6n6yuXtbqLsTTOZ/FsJrApCDS+K/oX3mHX0ew9P5976XG7nFn/3c+5tzuzdlrVD1xavTP989mNe/q6Zt8X409DvdPinfuMs8ipmVrQAAAJz0lEQVSRHo2rCdTp59WSZ8xhgf+z7/tU9TeMYwqaiXc8hrm163YK+NXXZ/x06fc9Xn9nuPh59X0/d9nsPd//5UqPr1rOFX7Xqp7ZtW/4uqzCy/erZfW96nxUn8/0v/Gg4f1Z0t/c++N5mB0cG/rblM5a1ev2q2Wr7+J5AT9/H/er8+f/jf2u/67x+fT9AO6z/Yb3PV/V/rufLl233/d/nqP4Vu+Xn7sOSt936e+K9hvf8bvTlf7e5XTvTv3sHwP/qfsyNxiU6yrDvPy7ke/HQovnwXX4G//3c5fc9zuzcwxMPbZmDma359L9cek+FPNeP49+7tLfVeFQ3J+6f04ASKI66uI/TgIuthhUv3d71dLveTwu3R8//7WVzeA0UzgYji79XbN6/Z5Lvz/nEjlZ4W9q21uZFg2nmzuH08Hzf0tHLvyc9p+5kIgcOHj2Yjo0fkklv7nYauCLRIUHxi+mryYupq/OXUk3L+ZYZp9GlI+75DSmStuz/2+6qS9/9Y6BZoxpOgB74vl2uvd+2Wd5IssKXB2S1k+0+1IQjJOvTP2eT21oKCuIaMbs0u3MtKwSaNE/G27BsJu9N9N2mr1XzL/hMLWAqH7vflbv/+v9n924r/X4muJNU7z2/ES/wQv65Pmoljwz7rgsvz9fwew6Xc4cPtcG7gX86uubCg7RN8Nt7ophPfw8H7906fFVy7m2e63qmV37zecl6qk+9/8qXs0e36buZ4E/leezoD/3hbLaz9b/PQ9z+fZafOP2q+XM6i7g5++b8yLmshEexXeNz6Z6/9rcK+asEolX4aXuU3luGQdGYdsxcG3mwjC+FqX5RbW0nDO+FmXIR7ft7/y/wJPivfL8+725loX+VQ/Lqdott+F+ehwen9/xc5e+7/eK7+rbLd6L+85MT9QAzgEuflMvzoHq+26vWvq9xnH9Y+jf/flHl83gNNN+NcIz5q1Zvc3en2l7De+V5WQdf4+FYzmQFi9Le8evyjmw78yldOzSz2nPqQklJDwwcTkd5NnE5XRovLgOTlxKPDt08cf0xZmLcgrcsKg/nxixJP1xcHW6cWEj/jX0r65PU+G68a++nIFjoP4DE1ZR1jfmCIFqWXQ46jNhView+r/4LrdTnoiZ/G4ATP14LODcrttrhkB+j5Jvy/+n+u36GgzsFn0v4FffRgH3PI7Fg+l3uoZ17F2tvcq4i77lUKgcEtVQn79r0r9GuBieMT/V5/7v8Rf9iHERCsg77nf1ue9XS94L+NePpwq36nfF/+i3E/S5XT93v126/35efd/3Z1u6nmZlq/qq37V6388tkKvfV//7/VpZxQvjywxL031jmfGgWn/1f5N23O9W9Oxx+P1Wpd+vldX+tPjv+mvft0weVNBC8U3ze4Zj9d1mdOD3b1w8mrhq+J3h6v5SUqefu3Q75ffm89v1tSpr+FraxsS9Gl16Hlrgx2z72tAvt1Mtm7Tr75u16+cu/V4Vj7nvd5gLQpi5Zjp+f1uUwf+MD7X5rY6r+r/UD+rydy6L+ov+TnfP421WNnxb6U+B51U5EPKl4fta/y23mpUz67/h53bK4/Aclks/97z5f7PS9dbKhvFX9YOp6bZxfurn3/XTjyn7W4NbtOfjZv2dy2bj8H2/57KxXy3gnsfveS/0lxbjrn1XDy/3q1npftbKGcK/9n4JbuV7NX5WccRU+1H+Zia/q9+7HcPJ+Gr+UYW/v3dbfu6S+7xjHPF7rUrXWy1dj+9X6ym3q2e1eQx693iq3xk/qvX6fcs/w6X6vf/zPcYdpxPYScC98vF8fpfS7VXL8jv8bhhXEzzxd0V99XzOz10W703dF78307JVfb/U85b9y3jQDI7VflXrq31nem4B/+r35t839QzqdK9yMtd4N/grRy/GccbQzHAieeDNXYPp1t7hdMuiPv0mooB7f+gsX/HejR296Q+Dy3SsOcdy6/jYRUt0ZOK//2MjBpoJTt+vZ+QFQTZD4HqBVJ3A6v9mE+KJaVk2TLj7HWUzxmTEcel+uH/V73y/Wvq7lv00glYYX2N99f0PpwDOgX9txwBwBlaN463Hr/I7zEEzfHM9Nfg3wYO2Y6AR5oYdZQP8jGcup3pnmnsWzI1l2zHQAOtp4Oh3DUf/d1nQRcyv7/t9K0bN+JtxwM9duh4/n2/p+lqVVnCrZY3vtcDHufazoV9up1q2mKtm7Vfr93vN5IvnwYr9TMdfbccKsfHB9TbU12Kc/s5lYztT8JASrDzeZmVDfZX+FHher2+4vobva21X5OgcHXaGn9txu56/aunnhrP/Nytdb61sGH89//Z7no9q6efV+ee++1Dus+/5O/9vOwZC3zI8XBpOrcoaHyvB3XWUy1b1VJ+Xv9XvSo4s46v5h/HD9fh7//dzSt/jHeOI77UqXW+1dD2+X63H7dfuZ/w33Xs8teeZvv28Wq/ft/wzHVS/9/+yMyByDEQSwpuIHqjxknrYuM1yWX23YVxT1FX+pqirns+V3+F38d7Uv6vvt/rfqr5f6nmrfpl/NoNjtV/V+mrfmZ+2gH/1+1r7OAbqnANZj63Jk6UJ58BNnYPpd11D6ebuuDh+8JbuATkL4KVyDnQO15wDOArIKXBz75J0Y+dA+n3v0hSOgRHllbq5b2W66ZpErE8tB2cQMVAgfQNwZgvM9vtTMpM2XNs41saBNg60caCNA20caONAGwfaONDGgTYOtHGgjQP/KBxoOwbazoq2s6KNA20caONAGwfaONDGgTYOtHGgjQNtHGjjQBsHfsU40HYM/Ion/x/ljWq32/aEtnGgjQNtHGjjQBsH2jjQxoE2DrRxoI0DbRz458GBtmOg7RhoewbbONDGgTYOtHGgjQNtHGjjQBsH2jjQxoE2DrRx4FeMA23HwK948tseun8eD117Ltpz0caBNg60caCNA20caONAGwfaONDGgTYO/KNwoO0YaDsG2p7BNg60caCNA20caONAGwfaONDGgTYOtHGgjQNtHPgV40DbMfArnvx/lDeq3W7bE9rGgTYOtHGgjQNtHGjjQBsH2jjQxoE2DrRx4J8HB9qOgbZjoO0ZbONAGwfaONDGgTYOtHGgjQNtHGjjQBsH2jjQxoFfMQ5cc8fATV1LUvVq5gnivWbP5nq/2vZ0bUz3rN3+3LxXbfi38b+KA81oqU1/bf7XDDfmer+Ke9Ph2HTP2u23+f9ccKCNf235V8WBZnjU5j9t+dcMN+Z6v4p70+HYdM/a7f+65V/bMXCNvUJtwmwrBlUcaMZk24y5rRg0w4253q/i3nQ4Nt2zdvu/bsWgPf/t+Z8LDrT5T1v/qeJAMzxqy5+2/tMMN+Z6v4p70+HYdM9+7e3/P1m2lpMtxS55AAAAAElFTkSuQmCC;" vertex="1" parent="1">
          <mxGeometry x="281.62" y="400" width="556.76" height="40" as="geometry" />
        </mxCell>
        <mxCell id="9-wRL0ShnZCnjAdU2LTs-28" value="目的MAC" style="text;html=1;strokeColor=none;fillColor=none;align=center;verticalAlign=middle;whiteSpace=wrap;rounded=0;fontSize=15;" vertex="1" parent="1">
          <mxGeometry x="80" y="280" width="80" height="50" as="geometry" />
        </mxCell>
      </root>
    </mxGraphModel>
  </diagram>
</mxfile>
